STARTFONT 2.1
COMMENT
COMMENT Shinonome 16dot font for JISX 0208, 1983/1990, Mincho Style
COMMENT
COMMENT The original is designed by
COMMENT   Yasuyuki Furukawa <Furukawa.Yasuyuki@fujixerox.co.jp>, 2000.
COMMENT   (Public Domain)
COMMENT
COMMENT Modified and Maintained by /efont/.
COMMENT
COMMENT (c) /efont/ -- Efont Open Laboratory 2001
COMMENT http://openlab.ring.gr.jp/efont/
COMMENT
FONT -Shinonome-Mincho-Bold-R-Normal--16-150-75-75-C-160-JISX0208.1990-0
SIZE 16 75 75
FONTBOUNDINGBOX 16 16 0 -2
STARTPROPERTIES 20
FONT_ASCENT 14
FONT_DESCENT 2
DEFAULT_CHAR 8481
COPYRIGHT "Public Domain"
FONTNAME_REGISTRY ""
FOUNDRY "Shinonome"
FAMILY_NAME "Mincho"
WEIGHT_NAME "Bold"
SLANT "R"
SETWIDTH_NAME "Normal"
ADD_STYLE_NAME ""
PIXEL_SIZE 16
POINT_SIZE 150
RESOLUTION_X 75
RESOLUTION_Y 75
SPACING "C"
AVERAGE_WIDTH 160
CHARSET_REGISTRY "JISX0208.1983"
CHARSET_ENCODING "0"
_XMBDFED_INFO "Edited with xmbdfed 4.4."
ENDPROPERTIES
CHARS 6879
STARTCHAR 2121
ENCODING 8481
SWIDTH 960 0
DWIDTH 16 0
BBX 16 16 0 -2
BITMAP
0000
0000
0000
0000
0000
0000
0000
0000
0000
0000
0000
0000
0000
0000
0000
0000
ENDCHAR
STARTCHAR 2122
ENCODING 8482
SWIDTH 960 0
DWIDTH 16 0
BBX 16 16 0 -2
BITMAP
0000
0000
0000
0000
0000
0000
0000
0000
0000
0000
0000
0000
6000
3000
1800
1800
ENDCHAR
STARTCHAR 2123
ENCODING 8483
SWIDTH 960 0
DWIDTH 16 0
BBX 16 16 0 -2
BITMAP
0000
0000
0000
0000
0000
0000
0000
0000
0000
0000
0000
7000
d800
d800
7000
0000
ENDCHAR
STARTCHAR 2124
ENCODING 8484
SWIDTH 960 0
DWIDTH 16 0
BBX 16 16 0 -2
BITMAP
0000
0000
0000
0000
0000
0000
0000
0000
0000
0000
0000
0000
e000
e000
6000
c000
ENDCHAR
STARTCHAR 2125
ENCODING 8485
SWIDTH 960 0
DWIDTH 16 0
BBX 16 16 0 -2
BITMAP
0000
0000
0000
0000
0000
0000
0000
0000
0000
0000
0000
0000
e000
e000
0000
0000
ENDCHAR
STARTCHAR 2126
ENCODING 8486
SWIDTH 960 0
DWIDTH 16 0
BBX 16 16 0 -2
BITMAP
0000
0000
0000
0000
0000
0000
0000
0380
0380
0000
0000
0000
0000
0000
0000
0000
ENDCHAR
STARTCHAR 2127
ENCODING 8487
SWIDTH 960 0
DWIDTH 16 0
BBX 16 16 0 -2
BITMAP
0000
0000
0000
0000
0000
0380
0380
0000
0000
0000
0000
0380
0380
0000
0000
0000
ENDCHAR
STARTCHAR 2128
ENCODING 8488
SWIDTH 960 0
DWIDTH 16 0
BBX 16 16 0 -2
BITMAP
0000
0000
0000
0000
0000
0380
0380
0000
0000
0000
0000
0380
0380
0180
0300
0000
ENDCHAR
STARTCHAR 2129
ENCODING 8489
SWIDTH 960 0
DWIDTH 16 0
BBX 16 16 0 -2
BITMAP
0000
07c0
0c60
1830
1830
1830
0c60
00c0
0180
0300
0300
0000
0000
0300
0300
0000
ENDCHAR
STARTCHAR 212a
ENCODING 8490
SWIDTH 960 0
DWIDTH 16 0
BBX 16 16 0 -2
BITMAP
0000
0380
0380
0380
0380
0300
0300
0300
0300
0300
0300
0000
0000
0300
0300
0000
ENDCHAR
STARTCHAR 212b
ENCODING 8491
SWIDTH 960 0
DWIDTH 16 0
BBX 16 16 0 -2
BITMAP
3000
d800
6800
6000
0000
0000
0000
0000
0000
0000
0000
0000
0000
0000
0000
0000
ENDCHAR
STARTCHAR 212c
ENCODING 8492
SWIDTH 960 0
DWIDTH 16 0
BBX 16 16 0 -2
BITMAP
0000
e000
b000
b000
e000
0000
0000
0000
0000
0000
0000
0000
0000
0000
0000
0000
ENDCHAR
STARTCHAR 212d
ENCODING 8493
SWIDTH 960 0
DWIDTH 16 0
BBX 16 16 0 -2
BITMAP
0180
0180
0300
0600
0000
0000
0000
0000
0000
0000
0000
0000
0000
0000
0000
0000
ENDCHAR
STARTCHAR 212e
ENCODING 8494
SWIDTH 960 0
DWIDTH 16 0
BBX 16 16 0 -2
BITMAP
0600
0600
0300
0180
0000
0000
0000
0000
0000
0000
0000
0000
0000
0000
0000
0000
ENDCHAR
STARTCHAR 212f
ENCODING 8495
SWIDTH 960 0
DWIDTH 16 0
BBX 16 16 0 -2
BITMAP
0ee0
0ee0
0000
0000
0000
0000
0000
0000
0000
0000
0000
0000
0000
0000
0000
0000
ENDCHAR
STARTCHAR 2130
ENCODING 8496
SWIDTH 960 0
DWIDTH 16 0
BBX 16 16 0 -2
BITMAP
0300
0680
0cc0
1860
0000
0000
0000
0000
0000
0000
0000
0000
0000
0000
0000
0000
ENDCHAR
STARTCHAR 2131
ENCODING 8497
SWIDTH 960 0
DWIDTH 16 0
BBX 16 16 0 -2
BITMAP
ffff
0000
0000
0000
0000
0000
0000
0000
0000
0000
0000
0000
0000
0000
0000
0000
ENDCHAR
STARTCHAR 2132
ENCODING 8498
SWIDTH 960 0
DWIDTH 16 0
BBX 16 16 0 -2
BITMAP
0000
0000
0000
0000
0000
0000
0000
0000
0000
0000
0000
0000
0000
0000
0000
ffff
ENDCHAR
STARTCHAR 2133
ENCODING 8499
SWIDTH 960 0
DWIDTH 16 0
BBX 16 16 0 -2
BITMAP
0000
0000
0000
0000
0000
1c00
0700
0180
00c0
0060
0030
0000
0000
0000
0000
0000
ENDCHAR
STARTCHAR 2134
ENCODING 8500
SWIDTH 960 0
DWIDTH 16 0
BBX 16 16 0 -2
BITMAP
0000
0000
0060
01b0
00d0
1cc0
0700
0180
00c0
0060
0030
0000
0000
0000
0000
0000
ENDCHAR
STARTCHAR 2135
ENCODING 8501
SWIDTH 960 0
DWIDTH 16 0
BBX 16 16 0 -2
BITMAP
0000
0000
0000
0000
1c00
0700
0180
00c0
0060
00f0
0180
0300
0000
0000
0000
0000
ENDCHAR
STARTCHAR 2136
ENCODING 8502
SWIDTH 960 0
DWIDTH 16 0
BBX 16 16 0 -2
BITMAP
0000
0000
0030
00d8
1c68
0760
0180
00c0
0060
00f0
0180
0300
0000
0000
0000
0000
ENDCHAR
STARTCHAR 2137
ENCODING 8503
SWIDTH 960 0
DWIDTH 16 0
BBX 16 16 0 -2
BITMAP
0000
0000
0000
0000
0330
0330
0330
0660
0660
0cc0
1980
0000
0000
0000
0000
0000
ENDCHAR
STARTCHAR 2138
ENCODING 8504
SWIDTH 960 0
DWIDTH 16 0
BBX 16 16 0 -2
BITMAP
0180
0180
0340
0660
0c30
381c
e007
0000
1ffc
0180
0180
0180
0180
0180
7ffe
0000
ENDCHAR
STARTCHAR 2139
ENCODING 8505
SWIDTH 960 0
DWIDTH 16 0
BBX 16 16 0 -2
BITMAP
0000
0300
0300
0300
03f8
0318
0618
0630
0c30
1ba0
30e0
0030
0018
0018
0000
0000
ENDCHAR
STARTCHAR 213a
ENCODING 8506
SWIDTH 960 0
DWIDTH 16 0
BBX 16 16 0 -2
BITMAP
0000
0006
0006
000c
0018
03b0
06e0
0cc0
0da0
1b00
1a00
1c00
1800
3000
3000
0000
ENDCHAR
STARTCHAR 213b
ENCODING 8507
SWIDTH 960 0
DWIDTH 16 0
BBX 16 16 0 -2
BITMAP
0000
07c0
1c70
3018
600c
600c
c006
c006
c006
c006
600c
600c
3018
1c70
07c0
0000
ENDCHAR
STARTCHAR 213c
ENCODING 8508
SWIDTH 960 0
DWIDTH 16 0
BBX 16 16 0 -2
BITMAP
0000
0000
0000
0000
0000
0000
0000
c1fc
7f00
0000
0000
0000
0000
0000
0000
0000
ENDCHAR
STARTCHAR 213d
ENCODING 8509
SWIDTH 960 0
DWIDTH 16 0
BBX 16 16 0 -2
BITMAP
0000
0000
0000
0000
0000
0000
0000
ffff
0000
0000
0000
0000
0000
0000
0000
0000
ENDCHAR
STARTCHAR 213e
ENCODING 8510
SWIDTH 960 0
DWIDTH 16 0
BBX 16 16 0 -2
BITMAP
0000
0000
0000
0000
0000
0000
0000
0fe0
0000
0000
0000
0000
0000
0000
0000
0000
ENDCHAR
STARTCHAR 213f
ENCODING 8511
SWIDTH 960 0
DWIDTH 16 0
BBX 16 16 0 -2
BITMAP
0003
0006
000c
0018
0030
0060
00c0
0180
0300
0600
0c00
1800
3000
6000
c000
8000
ENDCHAR
STARTCHAR 2140
ENCODING 8512
SWIDTH 960 0
DWIDTH 16 0
BBX 16 16 0 -2
BITMAP
8000
c000
6000
3000
1800
0c00
0600
0300
0180
00c0
0060
0030
0018
000c
0006
0003
ENDCHAR
STARTCHAR 2141
ENCODING 8513
SWIDTH 960 0
DWIDTH 16 0
BBX 16 16 0 -2
BITMAP
0000
0000
0000
0000
0000
0000
1e00
3386
60cc
0078
0000
0000
0000
0000
0000
0000
ENDCHAR
STARTCHAR 2142
ENCODING 8514
SWIDTH 960 0
DWIDTH 16 0
BBX 16 16 0 -2
BITMAP
0cc0
0cc0
0cc0
0cc0
0cc0
0cc0
0cc0
0cc0
0cc0
0cc0
0cc0
0cc0
0cc0
0cc0
0cc0
0cc0
ENDCHAR
STARTCHAR 2143
ENCODING 8515
SWIDTH 960 0
DWIDTH 16 0
BBX 16 16 0 -2
BITMAP
0300
0300
0300
0300
0300
0300
0300
0300
0300
0300
0300
0300
0300
0300
0300
0300
ENDCHAR
STARTCHAR 2144
ENCODING 8516
SWIDTH 960 0
DWIDTH 16 0
BBX 16 16 0 -2
BITMAP
0000
0000
0000
0000
0000
0000
0000
e38e
e38e
0000
0000
0000
0000
0000
0000
0000
ENDCHAR
STARTCHAR 2145
ENCODING 8517
SWIDTH 960 0
DWIDTH 16 0
BBX 16 16 0 -2
BITMAP
0000
0000
0000
0000
0000
0000
0000
3838
3838
0000
0000
0000
0000
0000
0000
0000
ENDCHAR
STARTCHAR 2146
ENCODING 8518
SWIDTH 960 0
DWIDTH 16 0
BBX 16 16 0 -2
BITMAP
0018
0030
0038
0038
0000
0000
0000
0000
0000
0000
0000
0000
0000
0000
0000
0000
ENDCHAR
STARTCHAR 2147
ENCODING 8519
SWIDTH 960 0
DWIDTH 16 0
BBX 16 16 0 -2
BITMAP
3800
3800
1800
3000
0000
0000
0000
0000
0000
0000
0000
0000
0000
0000
0000
0000
ENDCHAR
STARTCHAR 2148
ENCODING 8520
SWIDTH 960 0
DWIDTH 16 0
BBX 16 16 0 -2
BITMAP
006c
00d8
00ec
00ec
0000
0000
0000
0000
0000
0000
0000
0000
0000
0000
0000
0000
ENDCHAR
STARTCHAR 2149
ENCODING 8521
SWIDTH 960 0
DWIDTH 16 0
BBX 16 16 0 -2
BITMAP
7600
7600
3600
6c00
0000
0000
0000
0000
0000
0000
0000
0000
0000
0000
0000
0000
ENDCHAR
STARTCHAR 214a
ENCODING 8522
SWIDTH 960 0
DWIDTH 16 0
BBX 16 16 0 -2
BITMAP
0000
0018
0030
0060
00c0
00c0
0180
0180
0180
0180
0180
00c0
00c0
0060
0030
0018
ENDCHAR
STARTCHAR 214b
ENCODING 8523
SWIDTH 960 0
DWIDTH 16 0
BBX 16 16 0 -2
BITMAP
0000
3000
1800
0c00
0600
0600
0300
0300
0300
0300
0300
0600
0600
0c00
1800
3000
ENDCHAR
STARTCHAR 214c
ENCODING 8524
SWIDTH 960 0
DWIDTH 16 0
BBX 16 16 0 -2
BITMAP
0018
0070
01c0
0180
0180
0180
0180
0180
0180
0180
0180
0180
0180
01c0
0070
0018
ENDCHAR
STARTCHAR 214d
ENCODING 8525
SWIDTH 960 0
DWIDTH 16 0
BBX 16 16 0 -2
BITMAP
3000
1c00
0700
0300
0300
0300
0300
0300
0300
0300
0300
0300
0300
0700
1c00
3000
ENDCHAR
STARTCHAR 214e
ENCODING 8526
SWIDTH 960 0
DWIDTH 16 0
BBX 16 16 0 -2
BITMAP
01f8
0180
0180
0180
0180
0180
0180
0180
0180
0180
0180
0180
0180
0180
0180
01f8
ENDCHAR
STARTCHAR 214f
ENCODING 8527
SWIDTH 960 0
DWIDTH 16 0
BBX 16 16 0 -2
BITMAP
3f00
0300
0300
0300
0300
0300
0300
0300
0300
0300
0300
0300
0300
0300
0300
3f00
ENDCHAR
STARTCHAR 2150
ENCODING 8528
SWIDTH 960 0
DWIDTH 16 0
BBX 16 16 0 -2
BITMAP
0018
0030
0060
0060
0060
0060
0060
01c0
0060
0060
0060
0060
0060
0060
0030
0018
ENDCHAR
STARTCHAR 2151
ENCODING 8529
SWIDTH 960 0
DWIDTH 16 0
BBX 16 16 0 -2
BITMAP
3000
1800
0c00
0c00
0c00
0c00
0c00
0700
0c00
0c00
0c00
0c00
0c00
0c00
1800
3000
ENDCHAR
STARTCHAR 2152
ENCODING 8530
SWIDTH 960 0
DWIDTH 16 0
BBX 16 16 0 -2
BITMAP
0018
0018
0030
0030
0060
0060
00c0
0180
0180
00c0
0060
0060
0030
0030
0018
0018
ENDCHAR
STARTCHAR 2153
ENCODING 8531
SWIDTH 960 0
DWIDTH 16 0
BBX 16 16 0 -2
BITMAP
3000
3000
1800
1800
0c00
0c00
0600
0300
0300
0600
0c00
0c00
1800
1800
3000
3000
ENDCHAR
STARTCHAR 2154
ENCODING 8532
SWIDTH 960 0
DWIDTH 16 0
BBX 16 16 0 -2
BITMAP
006c
006c
00d8
00d8
01b0
01b0
0360
06c0
06c0
0360
01b0
01b0
00d8
00d8
006c
006c
ENDCHAR
STARTCHAR 2155
ENCODING 8533
SWIDTH 960 0
DWIDTH 16 0
BBX 16 16 0 -2
BITMAP
6c00
6c00
3600
3600
1b00
1b00
0d80
06c0
06c0
0d80
1b00
1b00
3600
3600
6c00
6c00
ENDCHAR
STARTCHAR 2156
ENCODING 8534
SWIDTH 960 0
DWIDTH 16 0
BBX 16 16 0 -2
BITMAP
01f8
0180
0180
0180
0180
0180
0180
0180
0180
0180
0180
0000
0000
0000
0000
0000
ENDCHAR
STARTCHAR 2157
ENCODING 8535
SWIDTH 960 0
DWIDTH 16 0
BBX 16 16 0 -2
BITMAP
0000
0000
0000
0000
0000
0300
0300
0300
0300
0300
0300
0300
0300
0300
0300
3f00
ENDCHAR
STARTCHAR 2158
ENCODING 8536
SWIDTH 960 0
DWIDTH 16 0
BBX 16 16 0 -2
BITMAP
03f8
0318
0378
0340
0340
0340
0340
0340
0340
0340
03c0
0000
0000
0000
0000
0000
ENDCHAR
STARTCHAR 2159
ENCODING 8537
SWIDTH 960 0
DWIDTH 16 0
BBX 16 16 0 -2
BITMAP
0000
0000
0000
0000
0000
0780
0680
0680
0680
0680
0680
0680
0680
3e80
3180
3f80
ENDCHAR
STARTCHAR 215a
ENCODING 8538
SWIDTH 960 0
DWIDTH 16 0
BBX 16 16 0 -2
BITMAP
01f8
01f0
01e0
01c0
01c0
0180
0180
0180
0180
0180
0180
01c0
01c0
01e0
01f0
01f8
ENDCHAR
STARTCHAR 215b
ENCODING 8539
SWIDTH 960 0
DWIDTH 16 0
BBX 16 16 0 -2
BITMAP
3f00
1f00
0f00
0700
0700
0300
0300
0300
0300
0300
0300
0700
0700
0f00
1f00
3f00
ENDCHAR
STARTCHAR 215c
ENCODING 8540
SWIDTH 960 0
DWIDTH 16 0
BBX 16 16 0 -2
BITMAP
0000
0000
0180
0180
0180
0180
0180
3ffc
0180
0180
0180
0180
0180
0180
0000
0000
ENDCHAR
STARTCHAR 215d
ENCODING 8541
SWIDTH 960 0
DWIDTH 16 0
BBX 16 16 0 -2
BITMAP
0000
0000
0000
0000
0000
0000
0000
7ffc
0000
0000
0000
0000
0000
0000
0000
0000
ENDCHAR
STARTCHAR 215e
ENCODING 8542
SWIDTH 960 0
DWIDTH 16 0
BBX 16 16 0 -2
BITMAP
0000
0000
0180
0180
0180
0180
3ffc
0180
0180
0180
0180
0000
0000
3ffe
0000
0000
ENDCHAR
STARTCHAR 215f
ENCODING 8543
SWIDTH 960 0
DWIDTH 16 0
BBX 16 16 0 -2
BITMAP
0000
0000
0000
3018
1830
0c60
06c0
0380
0380
06c0
0c60
1830
3018
0000
0000
0000
ENDCHAR
STARTCHAR 2160
ENCODING 8544
SWIDTH 960 0
DWIDTH 16 0
BBX 16 16 0 -2
BITMAP
0000
0000
0000
0380
0380
0000
0000
7ffc
0000
0000
0380
0380
0000
0000
0000
0000
ENDCHAR
STARTCHAR 2161
ENCODING 8545
SWIDTH 960 0
DWIDTH 16 0
BBX 16 16 0 -2
BITMAP
0000
0000
0000
0000
0000
7ffc
0000
0000
0000
7ffc
0000
0000
0000
0000
0000
0000
ENDCHAR
STARTCHAR 2162
ENCODING 8546
SWIDTH 960 0
DWIDTH 16 0
BBX 16 16 0 -2
BITMAP
0000
0000
00c0
00c0
0180
7ffc
0180
0300
0300
7ffc
0300
0600
0600
0000
0000
0000
ENDCHAR
STARTCHAR 2163
ENCODING 8547
SWIDTH 960 0
DWIDTH 16 0
BBX 16 16 0 -2
BITMAP
0000
0000
0038
00e0
0380
0600
1c00
7000
1c00
0600
0380
00e0
0038
0000
0000
0000
ENDCHAR
STARTCHAR 2164
ENCODING 8548
SWIDTH 960 0
DWIDTH 16 0
BBX 16 16 0 -2
BITMAP
0000
0000
3800
0e00
0380
00c0
0070
001c
0070
00c0
0380
0e00
3800
0000
0000
0000
ENDCHAR
STARTCHAR 2165
ENCODING 8549
SWIDTH 960 0
DWIDTH 16 0
BBX 16 16 0 -2
BITMAP
0000
0000
003c
01e0
0f00
7800
0f00
01e0
003c
0000
7ffc
0000
0000
7ffc
0000
0000
ENDCHAR
STARTCHAR 2166
ENCODING 8550
SWIDTH 960 0
DWIDTH 16 0
BBX 16 16 0 -2
BITMAP
0000
0000
7800
0f00
01e0
003c
01e0
0f00
7800
0000
7ffc
0000
0000
7ffc
0000
0000
ENDCHAR
STARTCHAR 2167
ENCODING 8551
SWIDTH 960 0
DWIDTH 16 0
BBX 16 16 0 -2
BITMAP
0000
0000
0000
0000
3c38
6eec
c6c6
c386
c386
c6c6
6eec
3878
0000
0000
0000
0000
ENDCHAR
STARTCHAR 2168
ENCODING 8552
SWIDTH 960 0
DWIDTH 16 0
BBX 16 16 0 -2
BITMAP
0000
0000
0000
0380
0380
0000
0000
0000
0000
0000
0000
701c
701c
0000
0000
0000
ENDCHAR
STARTCHAR 2169
ENCODING 8553
SWIDTH 960 0
DWIDTH 16 0
BBX 16 16 0 -2
BITMAP
0000
01fe
000e
001a
0036
0066
00c6
3e86
6300
c180
c180
c180
c180
6300
3e00
0000
ENDCHAR
STARTCHAR 216a
ENCODING 8554
SWIDTH 960 0
DWIDTH 16 0
BBX 16 16 0 -2
BITMAP
0000
07c0
0c60
1830
1830
1830
1830
0c60
07c0
0300
3ff8
0300
0300
0300
0300
0300
ENDCHAR
STARTCHAR 216b
ENCODING 8555
SWIDTH 960 0
DWIDTH 16 0
BBX 16 16 0 -2
BITMAP
0000
7000
d800
d800
7000
0000
0000
0000
0000
0000
0000
0000
0000
0000
0000
0000
ENDCHAR
STARTCHAR 216c
ENCODING 8556
SWIDTH 960 0
DWIDTH 16 0
BBX 16 16 0 -2
BITMAP
0000
1800
3800
7000
6000
0000
0000
0000
0000
0000
0000
0000
0000
0000
0000
0000
ENDCHAR
STARTCHAR 216d
ENCODING 8557
SWIDTH 960 0
DWIDTH 16 0
BBX 16 16 0 -2
BITMAP
0000
3300
7700
ee00
cc00
0000
0000
0000
0000
0000
0000
0000
0000
0000
0000
0000
ENDCHAR
STARTCHAR 216e
ENCODING 8558
SWIDTH 960 0
DWIDTH 16 0
BBX 16 16 0 -2
BITMAP
0000
70f6
db9a
da0e
7606
0c06
0c00
0c00
0c00
0c00
0606
060c
03b8
00e0
0000
0000
ENDCHAR
STARTCHAR 216f
ENCODING 8559
SWIDTH 960 0
DWIDTH 16 0
BBX 16 16 0 -2
BITMAP
0000
3c3c
1818
0c30
0c30
7ffe
0660
0340
0180
7ffe
0180
0180
0180
0180
03c0
0000
ENDCHAR
STARTCHAR 2170
ENCODING 8560
SWIDTH 960 0
DWIDTH 16 0
BBX 16 16 0 -2
BITMAP
0000
0680
0fc0
1aa0
36b0
36b0
1a80
0f80
06e0
06b0
3698
3698
1ab0
0fe0
0680
0000
ENDCHAR
STARTCHAR 2171
ENCODING 8561
SWIDTH 960 0
DWIDTH 16 0
BBX 16 16 0 -2
BITMAP
0000
0000
0000
0000
0000
0060
07c0
0ce0
18d0
1980
1980
1b30
0d60
07c0
0600
0c00
ENDCHAR
STARTCHAR 2172
ENCODING 8562
SWIDTH 960 0
DWIDTH 16 0
BBX 16 16 0 -2
BITMAP
0000
01e0
0330
0300
0300
0300
0300
0300
7ff8
0300
0300
3e00
6706
66cc
3c78
0000
ENDCHAR
STARTCHAR 2173
ENCODING 8563
SWIDTH 960 0
DWIDTH 16 0
BBX 16 16 0 -2
BITMAP
0000
7806
ec0c
cc18
cc30
cc60
dcc0
7980
0378
06ec
0ccc
18cc
30cc
60dc
c078
0000
ENDCHAR
STARTCHAR 2174
ENCODING 8564
SWIDTH 960 0
DWIDTH 16 0
BBX 16 16 0 -2
BITMAP
0630
0630
0630
0630
3ffc
3ffc
0c60
0c60
0c60
0c60
7ff8
7ff8
18c0
18c0
18c0
18c0
ENDCHAR
STARTCHAR 2175
ENCODING 8565
SWIDTH 960 0
DWIDTH 16 0
BBX 16 16 0 -2
BITMAP
0000
1f00
3180
3180
3180
1b00
0e30
0c30
1a30
3360
61a0
60c0
61a0
3336
1e1c
0000
ENDCHAR
STARTCHAR 2176
ENCODING 8566
SWIDTH 960 0
DWIDTH 16 0
BBX 16 16 0 -2
BITMAP
0000
0000
0000
0300
0300
3b70
1d60
0780
0300
0780
1d60
3b70
0300
0300
0000
0000
ENDCHAR
STARTCHAR 2177
ENCODING 8567
SWIDTH 960 0
DWIDTH 16 0
BBX 16 16 0 -2
BITMAP
0000
0000
07c0
1c70
3018
33a8
66ec
6ccc
6ccc
6de8
3770
300c
1c38
07e0
0000
0000
ENDCHAR
STARTCHAR 2178
ENCODING 8568
SWIDTH 960 0
DWIDTH 16 0
BBX 16 16 0 -2
BITMAP
0380
06c0
0c60
0e60
0700
0780
0dc0
0ce0
0e60
0760
03c0
01c0
0ce0
0c60
06c0
0380
ENDCHAR
STARTCHAR 2179
ENCODING 8569
SWIDTH 960 0
DWIDTH 16 0
BBX 16 16 0 -2
BITMAP
0000
0300
0300
0680
0680
0cc0
fcfc
6018
3030
1860
1860
3330
36b0
6ce8
7038
0000
ENDCHAR
STARTCHAR 217a
ENCODING 8570
SWIDTH 960 0
DWIDTH 16 0
BBX 16 16 0 -2
BITMAP
0000
0300
0300
0780
0780
0fc0
fffc
7ff8
3ff0
1fe0
1fe0
3ef0
3cf0
7878
6018
0000
ENDCHAR
STARTCHAR 217b
ENCODING 8571
SWIDTH 960 0
DWIDTH 16 0
BBX 16 16 0 -2
BITMAP
0000
07c0
1c70
3018
600c
600c
c006
c006
c006
c006
600c
600c
3018
1c70
07c0
0000
ENDCHAR
STARTCHAR 217c
ENCODING 8572
SWIDTH 960 0
DWIDTH 16 0
BBX 16 16 0 -2
BITMAP
0000
07c0
1ff0
3ff8
7ffc
7ffc
fffe
fffe
fffe
fffe
7ffc
7ffc
3ff8
1ff0
07c0
0000
ENDCHAR
STARTCHAR 217d
ENCODING 8573
SWIDTH 960 0
DWIDTH 16 0
BBX 16 16 0 -2
BITMAP
0000
07c0
1c70
3018
67cc
6c6c
d836
d836
d836
d836
6c6c
67cc
3018
1c70
07c0
0000
ENDCHAR
STARTCHAR 217e
ENCODING 8574
SWIDTH 960 0
DWIDTH 16 0
BBX 16 16 0 -2
BITMAP
0380
06c0
0c60
1830
3018
600c
c006
8003
8003
c006
600c
3018
1830
0c60
06c0
0380
ENDCHAR
STARTCHAR 2221
ENCODING 8737
SWIDTH 960 0
DWIDTH 16 0
BBX 16 16 0 -2
BITMAP
0380
07c0
0fe0
1ff0
3ff8
7ffc
fffe
ffff
ffff
fffe
7ffc
3ff8
1ff0
0fe0
07c0
0380
ENDCHAR
STARTCHAR 2222
ENCODING 8738
SWIDTH 960 0
DWIDTH 16 0
BBX 16 16 0 -2
BITMAP
0000
fffe
c006
c006
c006
c006
c006
c006
c006
c006
c006
c006
c006
c006
fffe
0000
ENDCHAR
STARTCHAR 2223
ENCODING 8739
SWIDTH 960 0
DWIDTH 16 0
BBX 16 16 0 -2
BITMAP
0000
fffe
fffe
fffe
fffe
fffe
fffe
fffe
fffe
fffe
fffe
fffe
fffe
fffe
fffe
0000
ENDCHAR
STARTCHAR 2224
ENCODING 8740
SWIDTH 960 0
DWIDTH 16 0
BBX 16 16 0 -2
BITMAP
0000
0300
0300
0680
0680
0cc0
0cc0
1860
1830
3030
3018
6018
600c
fffe
0000
0000
ENDCHAR
STARTCHAR 2225
ENCODING 8741
SWIDTH 960 0
DWIDTH 16 0
BBX 16 16 0 -2
BITMAP
0000
0300
0300
0780
0780
0fc0
0fe0
1fe0
1ff0
3ff0
3ff8
7ffc
7ffc
fffe
0000
0000
ENDCHAR
STARTCHAR 2226
ENCODING 8742
SWIDTH 960 0
DWIDTH 16 0
BBX 16 16 0 -2
BITMAP
0000
0000
fffe
600c
6018
3018
3030
1830
1860
0cc0
0cc0
0680
0680
0300
0300
0000
ENDCHAR
STARTCHAR 2227
ENCODING 8743
SWIDTH 960 0
DWIDTH 16 0
BBX 16 16 0 -2
BITMAP
0000
0000
fffe
7ffc
7ffc
3ff8
3ff0
1ff0
1fe0
0fe0
0fc0
0780
0780
0300
0300
0000
ENDCHAR
STARTCHAR 2228
ENCODING 8744
SWIDTH 960 0
DWIDTH 16 0
BBX 16 16 0 -2
BITMAP
0000
0000
638c
3398
1830
0c60
06c0
739c
739c
06c0
0c60
1830
3398
638c
0000
0000
ENDCHAR
STARTCHAR 2229
ENCODING 8745
SWIDTH 960 0
DWIDTH 16 0
BBX 16 16 0 -2
BITMAP
0000
7ffc
7ffc
0000
0000
fffe
fffe
0380
0380
0380
0380
0380
0380
0380
0380
0000
ENDCHAR
STARTCHAR 222a
ENCODING 8746
SWIDTH 960 0
DWIDTH 16 0
BBX 16 16 0 -2
BITMAP
0000
0000
0000
0000
0060
0030
001c
ffff
001c
0030
0060
0000
0000
0000
0000
0000
ENDCHAR
STARTCHAR 222b
ENCODING 8747
SWIDTH 960 0
DWIDTH 16 0
BBX 16 16 0 -2
BITMAP
0000
0000
0000
0000
0c00
1800
7000
ffff
7000
1800
0c00
0000
0000
0000
0000
0000
ENDCHAR
STARTCHAR 222c
ENCODING 8748
SWIDTH 960 0
DWIDTH 16 0
BBX 16 16 0 -2
BITMAP
0300
0300
0780
0780
0d40
1b60
0300
0300
0300
0300
0300
0300
0300
0300
0300
0300
ENDCHAR
STARTCHAR 222d
ENCODING 8749
SWIDTH 960 0
DWIDTH 16 0
BBX 16 16 0 -2
BITMAP
0300
0300
0300
0300
0300
0300
0300
0300
0300
0300
1b60
0d40
0780
0780
0300
0300
ENDCHAR
STARTCHAR 222e
ENCODING 8750
SWIDTH 960 0
DWIDTH 16 0
BBX 16 16 0 -2
BITMAP
0000
0000
0000
7ffe
7ffe
7ffe
0000
0000
0000
0000
7ffe
7ffe
7ffe
0000
0000
0000
ENDCHAR
STARTCHAR 223a
ENCODING 8762
SWIDTH 960 0
DWIDTH 16 0
BBX 16 16 0 -2
BITMAP
0000
0000
0000
0ff8
1800
3000
3000
3ff8
3000
3000
1800
0ff8
0000
0000
0000
0000
ENDCHAR
STARTCHAR 223b
ENCODING 8763
SWIDTH 960 0
DWIDTH 16 0
BBX 16 16 0 -2
BITMAP
0000
0000
0000
3fe0
0030
0018
0018
3ff8
0018
0018
0030
3fe0
0000
0000
0000
0000
ENDCHAR
STARTCHAR 223c
ENCODING 8764
SWIDTH 960 0
DWIDTH 16 0
BBX 16 16 0 -2
BITMAP
0000
0000
1ffc
3000
6000
6000
6000
6000
3000
1ffc
0000
0000
7ffc
0000
0000
0000
ENDCHAR
STARTCHAR 223d
ENCODING 8765
SWIDTH 960 0
DWIDTH 16 0
BBX 16 16 0 -2
BITMAP
0000
0000
7ff0
0018
000c
000c
000c
000c
0018
7ff0
0000
0000
7ffc
0000
0000
0000
ENDCHAR
STARTCHAR 223e
ENCODING 8766
SWIDTH 960 0
DWIDTH 16 0
BBX 16 16 0 -2
BITMAP
0000
0000
0000
07fc
1c00
3000
6000
6000
6000
6000
3000
1c00
07fc
0000
0000
0000
ENDCHAR
STARTCHAR 223f
ENCODING 8767
SWIDTH 960 0
DWIDTH 16 0
BBX 16 16 0 -2
BITMAP
0000
0000
0000
7fc0
0070
0018
000c
000c
000c
000c
0018
0070
7fc0
0000
0000
0000
ENDCHAR
STARTCHAR 2240
ENCODING 8768
SWIDTH 960 0
DWIDTH 16 0
BBX 16 16 0 -2
BITMAP
0000
0000
3018
3018
3018
3018
3018
3018
3018
3018
1830
1830
0c60
07c0
0000
0000
ENDCHAR
STARTCHAR 2241
ENCODING 8769
SWIDTH 960 0
DWIDTH 16 0
BBX 16 16 0 -2
BITMAP
0000
0000
07c0
0c60
1830
1830
3018
3018
3018
3018
3018
3018
3018
3018
0000
0000
ENDCHAR
STARTCHAR 224a
ENCODING 8778
SWIDTH 960 0
DWIDTH 16 0
BBX 16 16 0 -2
BITMAP
0000
0000
0180
0180
0340
0340
0660
0660
0c30
0c30
1818
1818
300c
300c
0000
0000
ENDCHAR
STARTCHAR 224b
ENCODING 8779
SWIDTH 960 0
DWIDTH 16 0
BBX 16 16 0 -2
BITMAP
0000
0000
300c
300c
1818
1818
0c30
0c30
0660
0660
0340
0340
0180
0180
0000
0000
ENDCHAR
STARTCHAR 224c
ENCODING 8780
SWIDTH 960 0
DWIDTH 16 0
BBX 16 16 0 -2
BITMAP
0000
0000
0000
0000
0000
0000
7ffc
000c
000c
000c
000c
0000
0000
0000
0000
0000
ENDCHAR
STARTCHAR 224d
ENCODING 8781
SWIDTH 960 0
DWIDTH 16 0
BBX 16 16 0 -2
BITMAP
0000
0000
0000
0030
0018
fffc
0006
0003
0006
fffc
0018
0030
0000
0000
0000
0000
ENDCHAR
STARTCHAR 224e
ENCODING 8782
SWIDTH 960 0
DWIDTH 16 0
BBX 16 16 0 -2
BITMAP
0000
0000
0000
1830
3018
7ffc
c006
8003
c006
7ffc
3018
1830
0000
0000
0000
0000
ENDCHAR
STARTCHAR 224f
ENCODING 8783
SWIDTH 960 0
DWIDTH 16 0
BBX 16 16 0 -2
BITMAP
0000
6006
6006
300c
300c
1ff8
1818
0c30
0c30
0660
0660
0340
0340
0180
0180
0000
ENDCHAR
STARTCHAR 2250
ENCODING 8784
SWIDTH 960 0
DWIDTH 16 0
BBX 16 16 0 -2
BITMAP
0000
0000
3ff0
0030
0030
0030
0030
3ff0
0030
0030
0030
0030
3ff0
0000
0000
0000
ENDCHAR
STARTCHAR 225c
ENCODING 8796
SWIDTH 960 0
DWIDTH 16 0
BBX 16 16 0 -2
BITMAP
0000
0000
0018
0030
0060
00c0
0180
0300
0600
0c00
1800
3000
7ffc
0000
0000
0000
ENDCHAR
STARTCHAR 225d
ENCODING 8797
SWIDTH 960 0
DWIDTH 16 0
BBX 16 16 0 -2
BITMAP
0000
0000
0300
0300
0300
0300
0300
0300
0300
0300
0300
0300
7ffc
0000
0000
0000
ENDCHAR
STARTCHAR 225e
ENCODING 8798
SWIDTH 960 0
DWIDTH 16 0
BBX 16 16 0 -2
BITMAP
0fe0
783c
c006
0000
0000
0000
0000
0000
0000
0000
0000
0000
0000
0000
0000
0000
ENDCHAR
STARTCHAR 225f
ENCODING 8799
SWIDTH 960 0
DWIDTH 16 0
BBX 16 16 0 -2
BITMAP
0000
01c0
0760
0c30
0030
0030
07b0
0ce0
1ce0
18e0
38c0
39c0
1b80
0e00
0000
0000
ENDCHAR
STARTCHAR 2260
ENCODING 8800
SWIDTH 960 0
DWIDTH 16 0
BBX 16 16 0 -2
BITMAP
0000
fffe
600c
700c
3018
3818
1830
1c30
0c60
0e60
06c0
0740
0380
0180
0000
0000
ENDCHAR
STARTCHAR 2261
ENCODING 8801
SWIDTH 960 0
DWIDTH 16 0
BBX 16 16 0 -2
BITMAP
0000
0000
0000
7ffc
0000
0000
0000
7ffc
0000
0000
0000
7ffc
0000
0000
0000
0000
ENDCHAR
STARTCHAR 2262
ENCODING 8802
SWIDTH 960 0
DWIDTH 16 0
BBX 16 16 0 -2
BITMAP
0000
0000
3800
3800
0000
7ffc
0000
0000
0000
7ffc
0000
0038
0038
0000
0000
0000
ENDCHAR
STARTCHAR 2263
ENCODING 8803
SWIDTH 960 0
DWIDTH 16 0
BBX 16 16 0 -2
BITMAP
0000
0198
0330
0660
0cc0
1980
3300
6600
3300
1980
0cc0
0660
0330
0198
00cc
0000
ENDCHAR
STARTCHAR 2264
ENCODING 8804
SWIDTH 960 0
DWIDTH 16 0
BBX 16 16 0 -2
BITMAP
0000
3300
1980
0cc0
0660
0330
0198
00cc
0198
0330
0660
0cc0
1980
3300
6600
0000
ENDCHAR
STARTCHAR 2265
ENCODING 8805
SWIDTH 960 0
DWIDTH 16 0
BBX 16 16 0 -2
BITMAP
01ff
0180
0180
0300
0300
0300
0300
0600
0600
6600
6600
7400
d400
dc00
1800
1800
ENDCHAR
STARTCHAR 2266
ENCODING 8806
SWIDTH 960 0
DWIDTH 16 0
BBX 16 16 0 -2
BITMAP
0000
0000
0000
0000
3c78
60cc
c186
c186
c306
c306
660c
3c78
0000
0000
0000
0000
ENDCHAR
STARTCHAR 2267
ENCODING 8807
SWIDTH 960 0
DWIDTH 16 0
BBX 16 16 0 -2
BITMAP
0000
0000
0000
0000
3c78
66cc
c380
c380
c380
c380
66cc
3c78
0000
0000
0000
0000
ENDCHAR
STARTCHAR 2268
ENCODING 8808
SWIDTH 960 0
DWIDTH 16 0
BBX 16 16 0 -2
BITMAP
0000
0000
0000
701c
701c
0000
0000
0000
0000
0000
0000
0380
0380
0000
0000
0000
ENDCHAR
STARTCHAR 2269
ENCODING 8809
SWIDTH 960 0
DWIDTH 16 0
BBX 16 16 0 -2
BITMAP
03c0
06c0
0600
0600
0700
0700
0300
0380
0380
0180
01c0
01c0
00c0
00c0
06c0
0780
ENDCHAR
STARTCHAR 226a
ENCODING 8810
SWIDTH 960 0
DWIDTH 16 0
BBX 16 16 0 -2
BITMAP
1e78
36d8
30c0
30c0
38e0
38e0
1860
1c70
1c70
0c30
0e38
0e38
0618
0618
36d8
3cf0
ENDCHAR
STARTCHAR 2272
ENCODING 8818
SWIDTH 960 0
DWIDTH 16 0
BBX 16 16 0 -2
BITMAP
01c0
0360
0360
01c0
0180
0180
0340
0340
0660
0660
07e0
0c30
0c30
1e78
0000
0000
ENDCHAR
STARTCHAR 2273
ENCODING 8819
SWIDTH 960 0
DWIDTH 16 0
BBX 16 16 0 -2
BITMAP
0000
0018
3830
7460
6c60
6cc0
6d80
6d00
3a00
0d9c
0f5a
1ad6
36d6
66d6
c39c
0000
ENDCHAR
STARTCHAR 2274
ENCODING 8820
SWIDTH 960 0
DWIDTH 16 0
BBX 16 16 0 -2
BITMAP
0060
0c60
0c60
0c7c
0ffc
7fe0
7c60
0c60
0c60
0c7c
0ffc
7fe0
7c60
0c60
0c60
0c00
ENDCHAR
STARTCHAR 2275
ENCODING 8821
SWIDTH 960 0
DWIDTH 16 0
BBX 16 16 0 -2
BITMAP
0c00
0c00
0c00
0c00
0c00
0c00
0c00
0de0
0e70
0c70
0c70
0ce0
0dc0
0d00
0e00
0c00
ENDCHAR
STARTCHAR 2276
ENCODING 8822
SWIDTH 960 0
DWIDTH 16 0
BBX 16 16 0 -2
BITMAP
0180
0180
01c0
01e0
01b0
01b8
019c
018c
018c
0198
01b0
0180
1f80
3f80
3f00
1e00
ENDCHAR
STARTCHAR 2277
ENCODING 8823
SWIDTH 960 0
DWIDTH 16 0
BBX 16 16 0 -2
BITMAP
0180
03c0
0db0
1ff8
0db0
0180
07e0
03c0
03c0
03c0
03c0
03c0
0180
0180
0180
0180
ENDCHAR
STARTCHAR 2278
ENCODING 8824
SWIDTH 960 0
DWIDTH 16 0
BBX 16 16 0 -2
BITMAP
0300
0780
1b60
3ff0
1b60
0780
0780
0300
0300
0780
0780
1b60
3ff0
1b60
0780
0300
ENDCHAR
STARTCHAR 2279
ENCODING 8825
SWIDTH 960 0
DWIDTH 16 0
BBX 16 16 0 -2
BITMAP
0000
0fe0
1f60
3f60
3f60
1f60
0f60
0360
0360
0360
0360
0360
0360
0360
0360
0360
ENDCHAR
STARTCHAR 227e
ENCODING 8830
SWIDTH 960 0
DWIDTH 16 0
BBX 16 16 0 -2
BITMAP
07c0
1c70
3018
600c
c006
c006
8003
8003
8003
8003
c006
c006
600c
3018
1c70
07c0
ENDCHAR
STARTCHAR 2330
ENCODING 9008
SWIDTH 960 0
DWIDTH 16 0
BBX 16 16 0 -2
BITMAP
0000
07c0
0c60
1830
1830
3018
3018
3018
3018
3018
3018
1830
1830
0c60
07c0
0000
ENDCHAR
STARTCHAR 2331
ENCODING 9009
SWIDTH 960 0
DWIDTH 16 0
BBX 16 16 0 -2
BITMAP
0000
0180
0180
0380
0680
0180
0180
0180
0180
0180
0180
0180
0180
0180
03c0
0000
ENDCHAR
STARTCHAR 2332
ENCODING 9010
SWIDTH 960 0
DWIDTH 16 0
BBX 16 16 0 -2
BITMAP
0000
07e0
0c30
1818
1818
0018
0030
0060
00c0
0180
0300
0600
0c00
0c00
1ff8
0000
ENDCHAR
STARTCHAR 2333
ENCODING 9011
SWIDTH 960 0
DWIDTH 16 0
BBX 16 16 0 -2
BITMAP
0000
07c0
1c60
3030
0030
0060
00c0
07e0
0030
0018
0018
0018
3030
1ce0
0780
0000
ENDCHAR
STARTCHAR 2334
ENCODING 9012
SWIDTH 960 0
DWIDTH 16 0
BBX 16 16 0 -2
BITMAP
0000
0060
0060
00e0
01a0
0360
0660
0c60
1860
3060
3ffc
0060
0060
0060
00f0
0000
ENDCHAR
STARTCHAR 2335
ENCODING 9013
SWIDTH 960 0
DWIDTH 16 0
BBX 16 16 0 -2
BITMAP
0000
1ff8
1800
1800
1800
1800
1be0
1c30
1818
0018
0018
0018
0030
1ce0
0780
0000
ENDCHAR
STARTCHAR 2336
ENCODING 9014
SWIDTH 960 0
DWIDTH 16 0
BBX 16 16 0 -2
BITMAP
0000
01e0
0700
0c00
1800
1800
37c0
3460
3830
3018
3018
3018
1830
0c60
07c0
0000
ENDCHAR
STARTCHAR 2337
ENCODING 9015
SWIDTH 960 0
DWIDTH 16 0
BBX 16 16 0 -2
BITMAP
0000
3ff8
3018
3030
3030
0060
0060
00c0
00c0
0180
0180
0180
0300
0300
0300
0000
ENDCHAR
STARTCHAR 2338
ENCODING 9016
SWIDTH 960 0
DWIDTH 16 0
BBX 16 16 0 -2
BITMAP
0000
07c0
1c70
3018
3018
3018
1c70
07c0
0c60
1830
3018
3018
3838
1c70
07c0
0000
ENDCHAR
STARTCHAR 2339
ENCODING 9017
SWIDTH 960 0
DWIDTH 16 0
BBX 16 16 0 -2
BITMAP
0000
07c0
0c60
1830
3018
3018
3018
1838
0c68
07d8
0030
0030
0060
01c0
0f00
0000
ENDCHAR
STARTCHAR 2341
ENCODING 9025
SWIDTH 960 0
DWIDTH 16 0
BBX 16 16 0 -2
BITMAP
0000
0180
0180
0340
0340
0660
0660
0c30
0ff0
0c30
1818
1818
300c
781e
0000
0000
ENDCHAR
STARTCHAR 2342
ENCODING 9026
SWIDTH 960 0
DWIDTH 16 0
BBX 16 16 0 -2
BITMAP
0000
7fe0
1830
1818
1818
1830
1fe0
1830
1818
180c
180c
1818
1870
7fc0
0000
0000
ENDCHAR
STARTCHAR 2343
ENCODING 9027
SWIDTH 960 0
DWIDTH 16 0
BBX 16 16 0 -2
BITMAP
0000
07d8
1c68
3838
3018
6018
6000
6000
6000
6000
3018
3838
1c70
07c0
0000
0000
ENDCHAR
STARTCHAR 2344
ENCODING 9028
SWIDTH 960 0
DWIDTH 16 0
BBX 16 16 0 -2
BITMAP
0000
7f80
18e0
1830
1818
1818
180c
180c
180c
1818
1818
1830
18e0
7f80
0000
0000
ENDCHAR
STARTCHAR 2345
ENCODING 9029
SWIDTH 960 0
DWIDTH 16 0
BBX 16 16 0 -2
BITMAP
0000
7ff8
1818
180c
1800
1800
18c0
1fc0
18c0
1800
1800
180c
1818
7ff8
0000
0000
ENDCHAR
STARTCHAR 2346
ENCODING 9030
SWIDTH 960 0
DWIDTH 16 0
BBX 16 16 0 -2
BITMAP
0000
3ff8
0c18
0c0c
0c00
0c00
0c60
0fe0
0c60
0c00
0c00
0c00
0c00
3f00
0000
0000
ENDCHAR
STARTCHAR 2347
ENCODING 9031
SWIDTH 960 0
DWIDTH 16 0
BBX 16 16 0 -2
BITMAP
0000
07d8
1c78
3818
3018
6000
6000
6000
607e
6018
3018
3838
1ce8
0798
0000
0000
ENDCHAR
STARTCHAR 2348
ENCODING 9032
SWIDTH 960 0
DWIDTH 16 0
BBX 16 16 0 -2
BITMAP
0000
783c
3018
3018
3018
3018
3018
3ff8
3018
3018
3018
3018
3018
783c
0000
0000
ENDCHAR
STARTCHAR 2349
ENCODING 9033
SWIDTH 960 0
DWIDTH 16 0
BBX 16 16 0 -2
BITMAP
0000
0780
0300
0300
0300
0300
0300
0300
0300
0300
0300
0300
0300
0780
0000
0000
ENDCHAR
STARTCHAR 234a
ENCODING 9034
SWIDTH 960 0
DWIDTH 16 0
BBX 16 16 0 -2
BITMAP
0000
00f0
0060
0060
0060
0060
0060
0060
0060
0060
0060
1860
0cc0
0780
0000
0000
ENDCHAR
STARTCHAR 234b
ENCODING 9035
SWIDTH 960 0
DWIDTH 16 0
BBX 16 16 0 -2
BITMAP
0000
3c3c
1830
1860
18c0
1980
1b00
1b00
1d80
18c0
1860
1830
1818
3c1e
0000
0000
ENDCHAR
STARTCHAR 234c
ENCODING 9036
SWIDTH 960 0
DWIDTH 16 0
BBX 16 16 0 -2
BITMAP
0000
1e00
0c00
0c00
0c00
0c00
0c00
0c00
0c00
0c00
0c00
0c0c
0c0c
1ffc
0000
0000
ENDCHAR
STARTCHAR 234d
ENCODING 9037
SWIDTH 960 0
DWIDTH 16 0
BBX 16 16 0 -2
BITMAP
0000
e01c
6018
7038
7038
6868
6868
6cd8
6cd8
6cd8
6698
6698
6318
f33c
0000
0000
ENDCHAR
STARTCHAR 234e
ENCODING 9038
SWIDTH 960 0
DWIDTH 16 0
BBX 16 16 0 -2
BITMAP
0000
783c
3818
3418
3418
3618
3318
3318
3198
30d8
30d8
3068
3038
7818
0000
0000
ENDCHAR
STARTCHAR 234f
ENCODING 9039
SWIDTH 960 0
DWIDTH 16 0
BBX 16 16 0 -2
BITMAP
0000
07c0
1c70
3838
3018
600c
600c
600c
600c
600c
3018
3838
1c70
07c0
0000
0000
ENDCHAR
STARTCHAR 2350
ENCODING 9040
SWIDTH 960 0
DWIDTH 16 0
BBX 16 16 0 -2
BITMAP
0000
3fe0
0c38
0c0c
0c0c
0c0c
0c38
0fe0
0c00
0c00
0c00
0c00
0c00
1e00
0000
0000
ENDCHAR
STARTCHAR 2351
ENCODING 9041
SWIDTH 960 0
DWIDTH 16 0
BBX 16 16 0 -2
BITMAP
0000
07c0
1c70
3838
3018
600c
600c
600c
600c
600c
3398
3ad0
1c60
07d6
001c
0000
ENDCHAR
STARTCHAR 2352
ENCODING 9042
SWIDTH 960 0
DWIDTH 16 0
BBX 16 16 0 -2
BITMAP
0000
7fc0
1870
1818
1818
1818
1870
1fc0
1860
1860
1830
1830
1818
3c3c
0000
0000
ENDCHAR
STARTCHAR 2353
ENCODING 9043
SWIDTH 960 0
DWIDTH 16 0
BBX 16 16 0 -2
BITMAP
0000
07d0
0c70
1830
1800
1800
0c00
07c0
0070
0018
3018
3818
3430
07e0
0000
0000
ENDCHAR
STARTCHAR 2354
ENCODING 9044
SWIDTH 960 0
DWIDTH 16 0
BBX 16 16 0 -2
BITMAP
0000
7ff8
6318
c30c
0300
0300
0300
0300
0300
0300
0300
0300
0300
0780
0000
0000
ENDCHAR
STARTCHAR 2355
ENCODING 9045
SWIDTH 960 0
DWIDTH 16 0
BBX 16 16 0 -2
BITMAP
0000
783c
3018
3018
3018
3018
3018
3018
3018
3018
3018
1830
0c60
07c0
0000
0000
ENDCHAR
STARTCHAR 2356
ENCODING 9046
SWIDTH 960 0
DWIDTH 16 0
BBX 16 16 0 -2
BITMAP
0000
783c
3018
3018
1830
1830
1860
0c60
0cc0
0cc0
0680
0680
0300
0300
0000
0000
ENDCHAR
STARTCHAR 2357
ENCODING 9047
SWIDTH 960 0
DWIDTH 16 0
BBX 16 16 0 -2
BITMAP
0000
f39e
638c
638c
638c
66cc
36d8
36d8
3468
3468
1c68
1c70
1830
1830
0000
0000
ENDCHAR
STARTCHAR 2358
ENCODING 9048
SWIDTH 960 0
DWIDTH 16 0
BBX 16 16 0 -2
BITMAP
0000
7878
3030
1860
0cc0
0cc0
0680
0300
0680
0cc0
0cc0
1860
3030
7878
0000
0000
ENDCHAR
STARTCHAR 2359
ENCODING 9049
SWIDTH 960 0
DWIDTH 16 0
BBX 16 16 0 -2
BITMAP
0000
7878
3030
1860
1860
0cc0
0cc0
0680
0300
0300
0300
0300
0300
0780
0000
0000
ENDCHAR
STARTCHAR 235a
ENCODING 9050
SWIDTH 960 0
DWIDTH 16 0
BBX 16 16 0 -2
BITMAP
0000
1ff8
1830
3060
00c0
00c0
0180
0300
0300
0600
0c00
0c18
1818
3ff8
0000
0000
ENDCHAR
STARTCHAR 2361
ENCODING 9057
SWIDTH 960 0
DWIDTH 16 0
BBX 16 16 0 -2
BITMAP
0000
0000
0000
0000
0000
07c0
0c60
0060
07a0
0ce0
1860
18e0
19a8
0f38
0000
0000
ENDCHAR
STARTCHAR 2362
ENCODING 9058
SWIDTH 960 0
DWIDTH 16 0
BBX 16 16 0 -2
BITMAP
0000
1c00
0c00
0c00
0c00
0c00
0dc0
0e60
0c30
0c30
0c30
0c30
0e60
0dc0
0000
0000
ENDCHAR
STARTCHAR 2363
ENCODING 9059
SWIDTH 960 0
DWIDTH 16 0
BBX 16 16 0 -2
BITMAP
0000
0000
0000
0000
0000
0780
0cc0
1860
1800
1800
1800
1860
0cc0
0780
0000
0000
ENDCHAR
STARTCHAR 2364
ENCODING 9060
SWIDTH 960 0
DWIDTH 16 0
BBX 16 16 0 -2
BITMAP
0000
00e0
0060
0060
0060
0060
07a0
0ce0
1860
1860
1860
1860
0ce0
07b0
0000
0000
ENDCHAR
STARTCHAR 2365
ENCODING 9061
SWIDTH 960 0
DWIDTH 16 0
BBX 16 16 0 -2
BITMAP
0000
0000
0000
0000
0000
0780
0cc0
1860
1860
1fe0
1800
1800
0c60
07c0
0000
0000
ENDCHAR
STARTCHAR 2366
ENCODING 9062
SWIDTH 960 0
DWIDTH 16 0
BBX 16 16 0 -2
BITMAP
0000
01f0
03b0
0300
0300
1ff0
0300
0300
0300
0300
0300
0300
0300
0780
0000
0000
ENDCHAR
STARTCHAR 2367
ENCODING 9063
SWIDTH 960 0
DWIDTH 16 0
BBX 16 16 0 -2
BITMAP
0000
0000
0000
0000
0000
07d0
0e60
0c60
0c60
07c0
0c00
0fe0
1838
1818
0c38
07e0
ENDCHAR
STARTCHAR 2368
ENCODING 9064
SWIDTH 960 0
DWIDTH 16 0
BBX 16 16 0 -2
BITMAP
0000
1c00
0c00
0c00
0c00
0dc0
0e60
0c30
0c30
0c30
0c30
0c30
0c30
1e78
0000
0000
ENDCHAR
STARTCHAR 2369
ENCODING 9065
SWIDTH 960 0
DWIDTH 16 0
BBX 16 16 0 -2
BITMAP
0000
0380
0380
0000
0000
0380
0180
0180
0180
0180
0180
0180
0180
03c0
0000
0000
ENDCHAR
STARTCHAR 236a
ENCODING 9066
SWIDTH 960 0
DWIDTH 16 0
BBX 16 16 0 -2
BITMAP
0000
01c0
01c0
0000
0000
01c0
00c0
00c0
00c0
00c0
00c0
00c0
00c0
00c0
1980
0f00
ENDCHAR
STARTCHAR 236b
ENCODING 9067
SWIDTH 960 0
DWIDTH 16 0
BBX 16 16 0 -2
BITMAP
0000
3800
1800
1800
1800
18f0
18c0
1b80
1e00
1b00
1980
18c0
1860
3cf8
0000
0000
ENDCHAR
STARTCHAR 236c
ENCODING 9068
SWIDTH 960 0
DWIDTH 16 0
BBX 16 16 0 -2
BITMAP
0000
0700
0300
0300
0300
0300
0300
0300
0300
0300
0300
0300
0300
0780
0000
0000
ENDCHAR
STARTCHAR 236d
ENCODING 9069
SWIDTH 960 0
DWIDTH 16 0
BBX 16 16 0 -2
BITMAP
0000
0000
0000
0000
0000
3770
1bd8
1998
1998
1998
1998
1998
1998
3ddc
0000
0000
ENDCHAR
STARTCHAR 236e
ENCODING 9070
SWIDTH 960 0
DWIDTH 16 0
BBX 16 16 0 -2
BITMAP
0000
0000
0000
0000
0000
1de0
0d70
0e30
0c30
0c30
0c30
0c30
0c30
1e78
0000
0000
ENDCHAR
STARTCHAR 236f
ENCODING 9071
SWIDTH 960 0
DWIDTH 16 0
BBX 16 16 0 -2
BITMAP
0000
0000
0000
0000
0000
07c0
0c60
1830
1830
1830
1830
1830
0c60
07c0
0000
0000
ENDCHAR
STARTCHAR 2370
ENCODING 9072
SWIDTH 960 0
DWIDTH 16 0
BBX 16 16 0 -2
BITMAP
0000
0000
0000
0000
0000
1dc0
0e60
0c30
0c30
0c30
0c30
0e60
0dc0
0c00
0c00
1e00
ENDCHAR
STARTCHAR 2371
ENCODING 9073
SWIDTH 960 0
DWIDTH 16 0
BBX 16 16 0 -2
BITMAP
0000
0000
0000
0000
0000
07b0
0ce0
1860
1860
1860
1860
0ce0
07a0
0060
0060
00f0
ENDCHAR
STARTCHAR 2372
ENCODING 9074
SWIDTH 960 0
DWIDTH 16 0
BBX 16 16 0 -2
BITMAP
0000
0000
0000
0000
0000
0ef0
06b0
0700
0600
0600
0600
0600
0600
0f00
0000
0000
ENDCHAR
STARTCHAR 2373
ENCODING 9075
SWIDTH 960 0
DWIDTH 16 0
BBX 16 16 0 -2
BITMAP
0000
0000
0000
0000
0000
07d0
0c70
0c30
0700
01c0
0060
0c30
0e30
0de0
0000
0000
ENDCHAR
STARTCHAR 2374
ENCODING 9076
SWIDTH 960 0
DWIDTH 16 0
BBX 16 16 0 -2
BITMAP
0000
0000
0600
0600
0600
3fe0
0600
0600
0600
0600
0600
0600
0740
03c0
0000
0000
ENDCHAR
STARTCHAR 2375
ENCODING 9077
SWIDTH 960 0
DWIDTH 16 0
BBX 16 16 0 -2
BITMAP
0000
0000
0000
0000
0000
1c70
0c30
0c30
0c30
0c30
0c30
0c30
0670
03d8
0000
0000
ENDCHAR
STARTCHAR 2376
ENCODING 9078
SWIDTH 960 0
DWIDTH 16 0
BBX 16 16 0 -2
BITMAP
0000
0000
0000
0000
0000
3cf0
1860
1860
0cc0
0cc0
0680
0680
0300
0300
0000
0000
ENDCHAR
STARTCHAR 2377
ENCODING 9079
SWIDTH 960 0
DWIDTH 16 0
BBX 16 16 0 -2
BITMAP
0000
0000
0000
0000
0000
7b3c
3318
3398
3398
1ad0
1ad0
1ad0
0c60
0c60
0000
0000
ENDCHAR
STARTCHAR 2378
ENCODING 9080
SWIDTH 960 0
DWIDTH 16 0
BBX 16 16 0 -2
BITMAP
0000
0000
0000
0000
0000
1c70
0c60
06c0
0380
0380
06c0
0c60
1830
3c78
0000
0000
ENDCHAR
STARTCHAR 2379
ENCODING 9081
SWIDTH 960 0
DWIDTH 16 0
BBX 16 16 0 -2
BITMAP
0000
0000
0000
0000
0000
1e78
0c30
0c30
0660
0660
0340
0340
0180
0180
1b00
0e00
ENDCHAR
STARTCHAR 237a
ENCODING 9082
SWIDTH 960 0
DWIDTH 16 0
BBX 16 16 0 -2
BITMAP
0000
0000
0000
0000
0000
1ff0
1860
00c0
0180
0180
0300
0630
0c30
1ff0
0000
0000
ENDCHAR
STARTCHAR 2421
ENCODING 9249
SWIDTH 960 0
DWIDTH 16 0
BBX 16 16 0 -2
BITMAP
0000
0000
0000
0600
06c0
1f00
06c0
07e0
06d0
0e98
1a98
3718
3630
1b60
00c0
0000
ENDCHAR
STARTCHAR 2422
ENCODING 9250
SWIDTH 960 0
DWIDTH 16 0
BBX 16 16 0 -2
BITMAP
0600
0300
3360
1f80
0600
06c0
07f0
0cd8
1ccc
3586
6d06
6606
350c
3838
00e0
0000
ENDCHAR
STARTCHAR 2423
ENCODING 9251
SWIDTH 960 0
DWIDTH 16 0
BBX 16 16 0 -2
BITMAP
0000
0000
0000
0000
0000
0000
1800
0c00
0c30
1818
180c
181c
0d0c
0e00
0600
0000
ENDCHAR
STARTCHAR 2424
ENCODING 9252
SWIDTH 960 0
DWIDTH 16 0
BBX 16 16 0 -2
BITMAP
0000
0000
0000
3000
1830
1818
180c
300c
3006
3306
360e
1a06
0c00
0c00
0000
0000
ENDCHAR
STARTCHAR 2425
ENCODING 9253
SWIDTH 960 0
DWIDTH 16 0
BBX 16 16 0 -2
BITMAP
0000
0000
0000
0300
01c0
0000
0000
0de0
0730
0030
0030
0060
0060
00c0
0180
0000
ENDCHAR
STARTCHAR 2426
ENCODING 9254
SWIDTH 960 0
DWIDTH 16 0
BBX 16 16 0 -2
BITMAP
0300
01e0
0000
0000
19e0
0f30
0018
0018
0018
0018
0030
0030
0060
00c0
0180
0300
ENDCHAR
STARTCHAR 2427
ENCODING 9255
SWIDTH 960 0
DWIDTH 16 0
BBX 16 16 0 -2
BITMAP
0000
0000
0000
0000
0600
0380
0000
0000
1be0
0ec0
0180
0300
0e80
1980
3180
00f8
ENDCHAR
STARTCHAR 2428
ENCODING 9256
SWIDTH 960 0
DWIDTH 16 0
BBX 16 16 0 -2
BITMAP
0600
0300
01c0
0000
19f0
0f60
00c0
0180
0300
0780
0cc0
18c0
30c0
6060
003c
0000
ENDCHAR
STARTCHAR 2429
ENCODING 9257
SWIDTH 960 0
DWIDTH 16 0
BBX 16 16 0 -2
BITMAP
0000
0000
0000
0000
0600
0600
1ad0
0f1c
0600
06e0
0730
0e18
3ad8
0e70
0600
0000
ENDCHAR
STARTCHAR 242a
ENCODING 9258
SWIDTH 960 0
DWIDTH 16 0
BBX 16 16 0 -2
BITMAP
1800
0c00
0c30
0d9c
0f06
7c0f
0c00
0df0
0f18
0c0c
1c0c
ec0c
74d8
1c70
0c00
0000
ENDCHAR
STARTCHAR 242b
ENCODING 9259
SWIDTH 960 0
DWIDTH 16 0
BBX 16 16 0 -2
BITMAP
0000
1800
0c00
0c30
0c18
6f8c
3ccc
0cc6
0cce
18c6
18c0
30c0
3580
6680
0300
0000
ENDCHAR
STARTCHAR 242c
ENCODING 9260
SWIDTH 960 0
DWIDTH 16 0
BBX 16 16 0 -2
BITMAP
0000
1806
0c0d
0c35
0c18
6f8c
3ccc
0cc6
0cce
18c6
18c0
30c0
3580
6680
0300
0000
ENDCHAR
STARTCHAR 242d
ENCODING 9261
SWIDTH 960 0
DWIDTH 16 0
BBX 16 16 0 -2
BITMAP
0300
0198
01b0
0fc0
00cc
00f8
1fa0
0030
0030
07e8
0c38
1800
1800
0e00
03e0
0000
ENDCHAR
STARTCHAR 242e
ENCODING 9262
SWIDTH 960 0
DWIDTH 16 0
BBX 16 16 0 -2
BITMAP
030c
0336
036a
3f80
0198
01f0
7f40
0060
0060
0fd0
1870
3000
3000
1c00
07c0
0000
ENDCHAR
STARTCHAR 242f
ENCODING 9263
SWIDTH 960 0
DWIDTH 16 0
BBX 16 16 0 -2
BITMAP
0060
0060
00c0
00c0
0180
0300
0600
0c00
0600
0300
0180
00c0
00c0
0060
0060
0000
ENDCHAR
STARTCHAR 2430
ENCODING 9264
SWIDTH 960 0
DWIDTH 16 0
BBX 16 16 0 -2
BITMAP
0060
0060
00cc
00d6
019a
0318
0600
0c00
0600
0300
0180
00c0
00c0
0060
0060
0000
ENDCHAR
STARTCHAR 2431
ENCODING 9265
SWIDTH 960 0
DWIDTH 16 0
BBX 16 16 0 -2
BITMAP
0060
6060
3030
3030
303e
67f0
6030
6030
6030
6030
6830
3030
3060
0060
00c0
0180
ENDCHAR
STARTCHAR 2432
ENCODING 9266
SWIDTH 960 0
DWIDTH 16 0
BBX 16 16 0 -2
BITMAP
0066
606b
3035
3034
303e
67f0
6030
6030
6030
6030
6830
3030
3060
0060
00c0
0180
ENDCHAR
STARTCHAR 2433
ENCODING 9267
SWIDTH 960 0
DWIDTH 16 0
BBX 16 16 0 -2
BITMAP
0000
0000
0c00
07f8
0060
00c0
0000
0000
0000
3000
3000
3000
180c
0ff8
0000
0000
ENDCHAR
STARTCHAR 2434
ENCODING 9268
SWIDTH 960 0
DWIDTH 16 0
BBX 16 16 0 -2
BITMAP
000c
0036
0c1a
07f8
0060
00c0
0000
0000
0000
3000
3000
3000
180c
0ff8
0000
0000
ENDCHAR
STARTCHAR 2435
ENCODING 9269
SWIDTH 960 0
DWIDTH 16 0
BBX 16 16 0 -2
BITMAP
0300
0180
00dc
18f0
0fa0
0060
0030
0030
07e8
0c38
1800
1800
0c00
0700
01f0
0000
ENDCHAR
STARTCHAR 2436
ENCODING 9270
SWIDTH 960 0
DWIDTH 16 0
BBX 16 16 0 -2
BITMAP
0300
0186
00db
18f5
0fac
0060
0030
0030
07e8
0c38
1800
1800
0c00
0700
01f0
0000
ENDCHAR
STARTCHAR 2437
ENCODING 9271
SWIDTH 960 0
DWIDTH 16 0
BBX 16 16 0 -2
BITMAP
0000
3000
1800
1800
1800
1800
1800
1800
1800
1800
1800
1818
1830
0ce0
0780
0000
ENDCHAR
STARTCHAR 2438
ENCODING 9272
SWIDTH 960 0
DWIDTH 16 0
BBX 16 16 0 -2
BITMAP
0000
3000
1830
18d8
1868
1860
1800
1800
1800
1800
1800
1818
1830
0ce0
0780
0000
ENDCHAR
STARTCHAR 2439
ENCODING 9273
SWIDTH 960 0
DWIDTH 16 0
BBX 16 16 0 -2
BITMAP
0180
00c0
60fe
3fc0
00c0
00c0
07c0
0ec0
0c60
06e0
03a0
0060
00c0
00c0
0180
0300
ENDCHAR
STARTCHAR 243a
ENCODING 9274
SWIDTH 960 0
DWIDTH 16 0
BBX 16 16 0 -2
BITMAP
0306
0183
c1fd
7f8c
0180
0180
0f80
1d80
18c0
0dc0
0740
00c0
0180
0180
0300
0600
ENDCHAR
STARTCHAR 243b
ENCODING 9275
SWIDTH 960 0
DWIDTH 16 0
BBX 16 16 0 -2
BITMAP
0000
00c0
1860
0c60
0c7e
cde0
7e60
0c60
0c60
0ce0
0c60
0c00
0600
03f8
0000
0000
ENDCHAR
STARTCHAR 243c
ENCODING 9276
SWIDTH 960 0
DWIDTH 16 0
BBX 16 16 0 -2
BITMAP
0006
00db
186d
0c6c
0c7e
cde0
7e60
0c60
0c60
0ce0
0c60
0c00
0600
03f8
0000
0000
ENDCHAR
STARTCHAR 243d
ENCODING 9277
SWIDTH 960 0
DWIDTH 16 0
BBX 16 16 0 -2
BITMAP
0000
0de0
0760
00c0
0180
0300
067c
0fc0
7980
0300
0600
0600
0600
0300
01e0
0000
ENDCHAR
STARTCHAR 243e
ENCODING 9278
SWIDTH 960 0
DWIDTH 16 0
BBX 16 16 0 -2
BITMAP
000c
0df6
076a
00d8
0180
0300
067c
0fc0
7980
0300
0600
0600
0600
0300
01e0
0000
ENDCHAR
STARTCHAR 243f
ENCODING 9279
SWIDTH 960 0
DWIDTH 16 0
BBX 16 16 0 -2
BITMAP
1800
0c00
0cc0
0d80
0e00
7c00
1878
19dc
1830
3000
3000
3300
6300
6180
60fc
0000
ENDCHAR
STARTCHAR 2440
ENCODING 9280
SWIDTH 960 0
DWIDTH 16 0
BBX 16 16 0 -2
BITMAP
180c
0c36
0cda
0d98
0e00
7c00
1878
19dc
1830
3000
3000
3300
6300
6180
60fc
0000
ENDCHAR
STARTCHAR 2441
ENCODING 9281
SWIDTH 960 0
DWIDTH 16 0
BBX 16 16 0 -2
BITMAP
0c00
0600
0670
67c0
3e00
0600
0c00
0df0
0f18
1c0c
180c
000c
0018
0070
07c0
0000
ENDCHAR
STARTCHAR 2442
ENCODING 9282
SWIDTH 960 0
DWIDTH 16 0
BBX 16 16 0 -2
BITMAP
0c0c
0636
066a
67d8
3e00
0600
0c00
0df0
0f18
1c0c
180c
000c
0018
0070
07c0
0000
ENDCHAR
STARTCHAR 2443
ENCODING 9283
SWIDTH 960 0
DWIDTH 16 0
BBX 16 16 0 -2
BITMAP
0000
0000
0000
0000
0000
0000
0000
0000
03f0
1e18
0018
0018
0030
00e0
0380
0000
ENDCHAR
STARTCHAR 2444
ENCODING 9284
SWIDTH 960 0
DWIDTH 16 0
BBX 16 16 0 -2
BITMAP
0000
0000
0000
00f0
0798
dc0c
7006
0006
0006
000c
0018
0070
03c0
0000
0000
0000
ENDCHAR
STARTCHAR 2445
ENCODING 9285
SWIDTH 960 0
DWIDTH 16 0
BBX 16 16 0 -2
BITMAP
0006
001b
000d
00f4
0798
dc0c
7006
0006
0006
000c
0018
0070
03c0
0000
0000
0000
ENDCHAR
STARTCHAR 2446
ENCODING 9286
SWIDTH 960 0
DWIDTH 16 0
BBX 16 16 0 -2
BITMAP
0000
003e
c7f0
7c60
00c0
0180
0180
0300
0300
0300
0300
0180
00c0
0078
0000
0000
ENDCHAR
STARTCHAR 2447
ENCODING 9287
SWIDTH 960 0
DWIDTH 16 0
BBX 16 16 0 -2
BITMAP
0000
001e
c7f0
7c66
00db
018d
018c
0300
0300
0300
0300
0180
00c0
0078
0000
0000
ENDCHAR
STARTCHAR 2448
ENCODING 9288
SWIDTH 960 0
DWIDTH 16 0
BBX 16 16 0 -2
BITMAP
0000
0c00
0600
0600
0618
031c
0370
0340
0380
0600
0c00
1800
1800
0c00
07fc
0000
ENDCHAR
STARTCHAR 2449
ENCODING 9289
SWIDTH 960 0
DWIDTH 16 0
BBX 16 16 0 -2
BITMAP
0000
180c
0c36
0c1a
0c18
0638
06e0
0680
0700
0c00
1800
3000
3000
1800
0ff8
0000
ENDCHAR
STARTCHAR 244a
ENCODING 9290
SWIDTH 960 0
DWIDTH 16 0
BBX 16 16 0 -2
BITMAP
0c00
06c0
0780
7e30
0c1c
0c36
1860
1860
3060
3060
6060
07e0
0c78
0c6c
07c0
0000
ENDCHAR
STARTCHAR 244b
ENCODING 9291
SWIDTH 960 0
DWIDTH 16 0
BBX 16 16 0 -2
BITMAP
0000
6000
3000
30f8
339c
3030
6000
6000
6000
6000
6300
6300
6980
30fc
3000
0000
ENDCHAR
STARTCHAR 244c
ENCODING 9292
SWIDTH 960 0
DWIDTH 16 0
BBX 16 16 0 -2
BITMAP
0000
0300
0180
3180
37f0
3598
398c
3306
6b06
6a06
cc06
dc74
d6dc
66da
0070
0000
ENDCHAR
STARTCHAR 244d
ENCODING 9293
SWIDTH 960 0
DWIDTH 16 0
BBX 16 16 0 -2
BITMAP
3000
1800
1800
1af0
dd98
7d0c
1a0c
1c0c
180c
380c
387c
68cc
d8ce
3878
1800
0000
ENDCHAR
STARTCHAR 244e
ENCODING 9294
SWIDTH 960 0
DWIDTH 16 0
BBX 16 16 0 -2
BITMAP
0000
0000
03e0
0eb0
1998
318c
318c
6306
6306
660c
340c
3818
0030
00e0
0000
0000
ENDCHAR
STARTCHAR 244f
ENCODING 9295
SWIDTH 960 0
DWIDTH 16 0
BBX 16 16 0 -2
BITMAP
0060
6030
3030
3030
363e
33f0
3030
6030
6030
6030
6030
6bf0
763c
3636
33e0
0000
ENDCHAR
STARTCHAR 2450
ENCODING 9296
SWIDTH 960 0
DWIDTH 16 0
BBX 16 16 0 -2
BITMAP
0066
603b
3035
3034
363e
33f0
3030
6030
6030
6030
6030
6bf0
763c
3636
33e0
0000
ENDCHAR
STARTCHAR 2451
ENCODING 9297
SWIDTH 960 0
DWIDTH 16 0
BBX 16 16 0 -2
BITMAP
0060
6036
303b
303b
363e
33f0
3030
6030
6030
6030
6030
6bf0
763c
3636
33e0
0000
ENDCHAR
STARTCHAR 2452
ENCODING 9298
SWIDTH 960 0
DWIDTH 16 0
BBX 16 16 0 -2
BITMAP
0000
0060
0660
1e70
f430
1830
1838
3034
3036
6030
6030
6060
3060
19c0
0f00
0000
ENDCHAR
STARTCHAR 2453
ENCODING 9299
SWIDTH 960 0
DWIDTH 16 0
BBX 16 16 0 -2
BITMAP
0006
006b
066d
1e74
f430
1830
1838
3034
3036
6030
6030
6060
3060
19c0
0f00
0000
ENDCHAR
STARTCHAR 2454
ENCODING 9300
SWIDTH 960 0
DWIDTH 16 0
BBX 16 16 0 -2
BITMAP
0000
006e
066b
1e7b
f436
1830
1838
3034
3036
6030
6030
6060
3060
19c0
0f00
0000
ENDCHAR
STARTCHAR 2455
ENCODING 9301
SWIDTH 960 0
DWIDTH 16 0
BBX 16 16 0 -2
BITMAP
0000
0600
03c0
00c0
0180
0300
0300
0180
00d0
0cdc
d866
706f
6c60
06c0
0380
0000
ENDCHAR
STARTCHAR 2456
ENCODING 9302
SWIDTH 960 0
DWIDTH 16 0
BBX 16 16 0 -2
BITMAP
000c
0636
03da
00d8
0180
0300
0300
0180
00d0
0cdc
d866
706f
6c60
06c0
0380
0000
ENDCHAR
STARTCHAR 2457
ENCODING 9303
SWIDTH 960 0
DWIDTH 16 0
BBX 16 16 0 -2
BITMAP
0000
061c
03d6
00d6
019c
0300
0300
0180
00d0
0cdc
d866
706f
6c60
06c0
0380
0000
ENDCHAR
STARTCHAR 2458
ENCODING 9304
SWIDTH 960 0
DWIDTH 16 0
BBX 16 16 0 -2
BITMAP
0000
0000
0000
0000
0700
0d80
0cc0
1860
d030
601c
0007
0000
0000
0000
0000
0000
ENDCHAR
STARTCHAR 2459
ENCODING 9305
SWIDTH 960 0
DWIDTH 16 0
BBX 16 16 0 -2
BITMAP
0000
0018
006c
0034
0730
0d80
0cc0
1860
d030
601c
0007
0000
0000
0000
0000
0000
ENDCHAR
STARTCHAR 245a
ENCODING 9306
SWIDTH 960 0
DWIDTH 16 0
BBX 16 16 0 -2
BITMAP
0000
0000
0038
006c
076c
0db8
0cc0
1860
d030
601c
0007
0000
0000
0000
0000
0000
ENDCHAR
STARTCHAR 245b
ENCODING 9307
SWIDTH 960 0
DWIDTH 16 0
BBX 16 16 0 -2
BITMAP
0000
631c
31f0
3030
3030
303e
37f0
6030
6030
6030
6030
6bf0
763c
3636
33e0
0000
ENDCHAR
STARTCHAR 245c
ENCODING 9308
SWIDTH 960 0
DWIDTH 16 0
BBX 16 16 0 -2
BITMAP
0006
631d
31f5
3030
3030
303e
37f0
6030
6030
6030
6030
6bf0
763c
3636
33e0
0000
ENDCHAR
STARTCHAR 245d
ENCODING 9309
SWIDTH 960 0
DWIDTH 16 0
BBX 16 16 0 -2
BITMAP
000e
631b
31fb
3036
3030
303e
37f0
6030
6030
6030
6030
6bf0
763c
3636
33e0
0000
ENDCHAR
STARTCHAR 245e
ENCODING 9310
SWIDTH 960 0
DWIDTH 16 0
BBX 16 16 0 -2
BITMAP
0180
00c0
30f8
1fc0
00c0
00c0
30f0
1fc0
00c0
00c0
0fc0
18f0
30dc
38c0
0f80
0000
ENDCHAR
STARTCHAR 245f
ENCODING 9311
SWIDTH 960 0
DWIDTH 16 0
BBX 16 16 0 -2
BITMAP
0000
0000
1980
0f80
0300
0330
0318
0fd8
3a78
661c
cc36
cc30
d860
70c0
0180
0000
ENDCHAR
STARTCHAR 2460
ENCODING 9312
SWIDTH 960 0
DWIDTH 16 0
BBX 16 16 0 -2
BITMAP
1800
0c00
6f80
3c38
0c0c
0c0e
3c00
6c00
6c30
6c18
6818
3818
1818
1830
0fe0
0000
ENDCHAR
STARTCHAR 2461
ENCODING 9313
SWIDTH 960 0
DWIDTH 16 0
BBX 16 16 0 -2
BITMAP
0000
0180
00c0
30c0
33e0
36b8
398c
398c
6b06
6d06
c606
ce0c
db0c
7018
0070
0000
ENDCHAR
STARTCHAR 2462
ENCODING 9314
SWIDTH 960 0
DWIDTH 16 0
BBX 16 16 0 -2
BITMAP
0600
0300
1b00
0f00
03c0
1a00
7600
3a30
0f98
0c18
0c18
0c18
0c30
0660
03c0
0000
ENDCHAR
STARTCHAR 2463
ENCODING 9315
SWIDTH 960 0
DWIDTH 16 0
BBX 16 16 0 -2
BITMAP
0000
0000
0000
0000
0180
0ce0
0c00
0df0
0718
6e18
3630
06e0
0300
0300
0300
0000
ENDCHAR
STARTCHAR 2464
ENCODING 9316
SWIDTH 960 0
DWIDTH 16 0
BBX 16 16 0 -2
BITMAP
0000
0180
00e0
1c70
1800
0c7c
0dc6
de06
7606
060c
0378
0300
0300
0180
0180
0180
ENDCHAR
STARTCHAR 2465
ENCODING 9317
SWIDTH 960 0
DWIDTH 16 0
BBX 16 16 0 -2
BITMAP
0000
0000
0000
0000
0300
0180
63e0
36b0
3598
3998
3998
36b0
33e0
0180
0300
0600
ENDCHAR
STARTCHAR 2466
ENCODING 9318
SWIDTH 960 0
DWIDTH 16 0
BBX 16 16 0 -2
BITMAP
0000
0380
00c0
c1f0
6358
66cc
6cc6
68c6
70c6
76cc
6358
61f0
00c0
0180
0300
0000
ENDCHAR
STARTCHAR 2467
ENCODING 9319
SWIDTH 960 0
DWIDTH 16 0
BBX 16 16 0 -2
BITMAP
0000
0000
0000
0000
0600
0300
0360
03c0
0300
0300
0300
1f00
33c0
3370
1e00
0000
ENDCHAR
STARTCHAR 2468
ENCODING 9320
SWIDTH 960 0
DWIDTH 16 0
BBX 16 16 0 -2
BITMAP
0300
0180
0180
019c
01f0
0180
0180
0180
0180
0180
3f80
61e0
61b8
630c
3e00
0000
ENDCHAR
STARTCHAR 2469
ENCODING 9321
SWIDTH 960 0
DWIDTH 16 0
BBX 16 16 0 -2
BITMAP
0300
0180
01e0
0300
0c00
1800
1800
19f0
1b18
1c0c
180c
1818
0030
00e0
0780
0000
ENDCHAR
STARTCHAR 246a
ENCODING 9322
SWIDTH 960 0
DWIDTH 16 0
BBX 16 16 0 -2
BITMAP
3000
1bc0
1a60
1a30
1c30
1c30
1830
1830
1830
1830
0060
0060
00c0
0180
0300
0600
ENDCHAR
STARTCHAR 246b
ENCODING 9323
SWIDTH 960 0
DWIDTH 16 0
BBX 16 16 0 -2
BITMAP
0000
0de0
0760
00c0
0180
0300
07e0
0e30
1818
300c
000c
070c
0d98
0cf0
07c0
0000
ENDCHAR
STARTCHAR 246c
ENCODING 9324
SWIDTH 960 0
DWIDTH 16 0
BBX 16 16 0 -2
BITMAP
1800
0c00
0c00
0ce0
0db0
dd30
7630
0c30
0c30
1c30
1c30
3433
6c36
dc1c
0c00
0000
ENDCHAR
STARTCHAR 246d
ENCODING 9325
SWIDTH 960 0
DWIDTH 16 0
BBX 16 16 0 -2
BITMAP
0000
0de0
0760
00c0
0180
0300
07f0
0e18
180c
300c
000c
0018
0030
00e0
0780
0000
ENDCHAR
STARTCHAR 246e
ENCODING 9326
SWIDTH 960 0
DWIDTH 16 0
BBX 16 16 0 -2
BITMAP
0000
0000
0000
0000
1800
0c00
0c00
0ee0
3d30
0e18
0c18
1c18
3430
0ce0
0c00
0c00
ENDCHAR
STARTCHAR 246f
ENCODING 9327
SWIDTH 960 0
DWIDTH 16 0
BBX 16 16 0 -2
BITMAP
3000
1800
1800
1a00
dc00
79f0
1b18
1c0c
1806
3806
380c
680c
d838
38e0
1800
0000
ENDCHAR
STARTCHAR 2470
ENCODING 9328
SWIDTH 960 0
DWIDTH 16 0
BBX 16 16 0 -2
BITMAP
0000
18c0
0fc0
0180
0180
03e0
0f38
1b0c
3306
6606
c606
ccf6
d99c
719a
00f0
0000
ENDCHAR
STARTCHAR 2471
ENCODING 9329
SWIDTH 960 0
DWIDTH 16 0
BBX 16 16 0 -2
BITMAP
0000
1be0
0e80
0300
07c0
0c60
1830
3630
0d60
0dc0
0780
0c00
1ef0
7398
c03c
0000
ENDCHAR
STARTCHAR 2472
ENCODING 9330
SWIDTH 960 0
DWIDTH 16 0
BBX 16 16 0 -2
BITMAP
0600
0300
33e0
1f00
0618
060e
0fb8
18e0
31c0
6340
06c0
0cc0
0c00
0600
03f8
0000
ENDCHAR
STARTCHAR 2473
ENCODING 9331
SWIDTH 960 0
DWIDTH 16 0
BBX 16 16 0 -2
BITMAP
0300
0180
0180
0300
0300
0600
0600
0d80
0ec0
1cc0
18c0
30c3
30c6
606c
6038
0000
ENDCHAR
STARTCHAR 2521
ENCODING 9505
SWIDTH 960 0
DWIDTH 16 0
BBX 16 16 0 -2
BITMAP
0000
0000
0000
0000
0000
0000
31f0
1f30
0060
03c0
0300
0300
0300
0600
0c00
0000
ENDCHAR
STARTCHAR 2522
ENCODING 9506
SWIDTH 960 0
DWIDTH 16 0
BBX 16 16 0 -2
BITMAP
0000
0000
60fc
3f8c
0018
0630
0360
03c0
0300
0300
0300
0600
0600
0c00
1800
0000
ENDCHAR
STARTCHAR 2523
ENCODING 9507
SWIDTH 960 0
DWIDTH 16 0
BBX 16 16 0 -2
BITMAP
0000
0000
0000
0000
0030
0030
0060
00c0
0180
0740
1cc0
00c0
00c0
00c0
00c0
0000
ENDCHAR
STARTCHAR 2524
ENCODING 9508
SWIDTH 960 0
DWIDTH 16 0
BBX 16 16 0 -2
BITMAP
0000
0030
0030
0060
00c0
0180
0380
06c0
1cc0
70c0
00c0
00c0
00c0
00c0
00c0
0000
ENDCHAR
STARTCHAR 2525
ENCODING 9509
SWIDTH 960 0
DWIDTH 16 0
BBX 16 16 0 -2
BITMAP
0000
0000
0000
0000
0180
0180
0180
19f8
0f98
0c18
0c30
0c30
0060
00c0
0180
0000
ENDCHAR
STARTCHAR 2526
ENCODING 9510
SWIDTH 960 0
DWIDTH 16 0
BBX 16 16 0 -2
BITMAP
0000
0300
0180
0180
31fc
3f0c
180c
1818
1818
1830
0030
0060
00c0
0180
0300
0000
ENDCHAR
STARTCHAR 2527
ENCODING 9511
SWIDTH 960 0
DWIDTH 16 0
BBX 16 16 0 -2
BITMAP
0000
0000
0000
0000
0000
0000
0000
0000
03e0
1f00
0300
0300
0300
07e0
3c30
0000
ENDCHAR
STARTCHAR 2528
ENCODING 9512
SWIDTH 960 0
DWIDTH 16 0
BBX 16 16 0 -2
BITMAP
0000
0000
0000
0078
3fc0
0300
0180
0180
0180
0180
0180
07fc
fc06
0000
0000
0000
ENDCHAR
STARTCHAR 2529
ENCODING 9513
SWIDTH 960 0
DWIDTH 16 0
BBX 16 16 0 -2
BITMAP
0000
0000
0000
0000
0000
00c0
00c0
18f8
0fc0
01c0
0340
06c0
0cc0
18c0
01c0
00c0
ENDCHAR
STARTCHAR 252a
ENCODING 9514
SWIDTH 960 0
DWIDTH 16 0
BBX 16 16 0 -2
BITMAP
0000
0060
0060
307e
1fe0
0060
00e0
00e0
01a0
0360
0660
0c60
3860
00e0
0060
0000
ENDCHAR
STARTCHAR 252b
ENCODING 9515
SWIDTH 960 0
DWIDTH 16 0
BBX 16 16 0 -2
BITMAP
0000
0300
0180
0180
31fc
1f8c
018c
030c
030c
0618
0618
0c18
18d0
3070
6060
0000
ENDCHAR
STARTCHAR 252c
ENCODING 9516
SWIDTH 960 0
DWIDTH 16 0
BBX 16 16 0 -2
BITMAP
0006
031b
018d
018c
31fc
1f8c
018c
030c
030c
0618
0618
0c18
18d0
3070
6060
0000
ENDCHAR
STARTCHAR 252d
ENCODING 9517
SWIDTH 960 0
DWIDTH 16 0
BBX 16 16 0 -2
BITMAP
0000
0600
0300
0338
03e0
3e80
0180
019e
01f0
0740
7cc0
00c0
0060
0060
0060
0000
ENDCHAR
STARTCHAR 252e
ENCODING 9518
SWIDTH 960 0
DWIDTH 16 0
BBX 16 16 0 -2
BITMAP
0000
060c
0336
033a
03e8
3e80
0180
019e
01f0
0740
7cc0
00c0
0060
0060
0060
0000
ENDCHAR
STARTCHAR 252f
ENCODING 9519
SWIDTH 960 0
DWIDTH 16 0
BBX 16 16 0 -2
BITMAP
0000
0600
0338
03e8
0318
0618
0630
0c30
1860
3060
00c0
0180
0300
0600
0c00
0000
ENDCHAR
STARTCHAR 2530
ENCODING 9520
SWIDTH 960 0
DWIDTH 16 0
BBX 16 16 0 -2
BITMAP
0006
0c1b
0675
07d4
0630
0c30
0c60
1860
30c0
60c0
0180
0300
0600
0c00
1800
0000
ENDCHAR
STARTCHAR 2531
ENCODING 9521
SWIDTH 960 0
DWIDTH 16 0
BBX 16 16 0 -2
BITMAP
0000
1800
0c00
0c3e
0fe0
0cc0
1860
1860
3060
60c0
00c0
0180
0300
0600
0c00
0000
ENDCHAR
STARTCHAR 2532
ENCODING 9522
SWIDTH 960 0
DWIDTH 16 0
BBX 16 16 0 -2
BITMAP
0006
181b
0c0d
0c3c
0fe0
0cc0
1860
1860
3060
60c0
00c0
0180
0300
0600
0c00
0000
ENDCHAR
STARTCHAR 2533
ENCODING 9523
SWIDTH 960 0
DWIDTH 16 0
BBX 16 16 0 -2
BITMAP
0000
0000
0000
61f8
3f18
0018
0018
0018
0030
0030
0030
07f0
3c30
0000
0000
0000
ENDCHAR
STARTCHAR 2534
ENCODING 9524
SWIDTH 960 0
DWIDTH 16 0
BBX 16 16 0 -2
BITMAP
0006
001b
000d
61fc
3f18
0018
0018
0018
0030
0030
0030
07f0
3c30
0000
0000
0000
ENDCHAR
STARTCHAR 2535
ENCODING 9525
SWIDTH 960 0
DWIDTH 16 0
BBX 16 16 0 -2
BITMAP
0060
0c30
0630
0630
66fe
3fb0
0630
0630
0630
0630
0060
0060
00c0
0180
0300
0000
ENDCHAR
STARTCHAR 2536
ENCODING 9526
SWIDTH 960 0
DWIDTH 16 0
BBX 16 16 0 -2
BITMAP
0066
0c3b
0635
0634
66fe
3fb0
0630
0630
0630
0630
0060
0060
00c0
0180
0300
0000
ENDCHAR
STARTCHAR 2537
ENCODING 9527
SWIDTH 960 0
DWIDTH 16 0
BBX 16 16 0 -2
BITMAP
0000
0000
1c00
0600
0000
0000
3806
0c0c
0018
0030
0060
00c0
0180
3700
1c00
0000
ENDCHAR
STARTCHAR 2538
ENCODING 9528
SWIDTH 960 0
DWIDTH 16 0
BBX 16 16 0 -2
BITMAP
0006
001b
1c0d
060c
0000
0000
3806
0c0c
0018
0030
0060
00c0
0180
3700
1c00
0000
ENDCHAR
STARTCHAR 2539
ENCODING 9529
SWIDTH 960 0
DWIDTH 16 0
BBX 16 16 0 -2
BITMAP
0000
0000
0000
31e0
1f60
0060
00c0
00c0
0180
01c0
0360
0630
0c18
380c
e00c
0000
ENDCHAR
STARTCHAR 253a
ENCODING 9530
SWIDTH 960 0
DWIDTH 16 0
BBX 16 16 0 -2
BITMAP
0000
000c
0036
31ea
1f68
0060
00c0
00c0
0180
01c0
0360
0630
0c18
380c
e00c
0000
ENDCHAR
STARTCHAR 253b
ENCODING 9531
SWIDTH 960 0
DWIDTH 16 0
BBX 16 16 0 -2
BITMAP
0000
0c00
0600
0600
063e
06e6
670c
3e18
0630
0660
0600
0600
0300
01fc
0000
0000
ENDCHAR
STARTCHAR 253c
ENCODING 9532
SWIDTH 960 0
DWIDTH 16 0
BBX 16 16 0 -2
BITMAP
0006
181b
0c0d
0c0c
0c7c
0dcc
ce18
7c30
0c60
0cc0
0c00
0c00
0600
03f8
0000
0000
ENDCHAR
STARTCHAR 253d
ENCODING 9533
SWIDTH 960 0
DWIDTH 16 0
BBX 16 16 0 -2
BITMAP
0000
0018
300c
180c
0c0c
0c18
0c18
0030
0030
0060
00c0
0180
0300
0600
0c00
0000
ENDCHAR
STARTCHAR 253e
ENCODING 9534
SWIDTH 960 0
DWIDTH 16 0
BBX 16 16 0 -2
BITMAP
0006
006b
6035
3034
1830
1860
1860
0060
00c0
00c0
0180
0300
0600
0c00
1800
0000
ENDCHAR
STARTCHAR 253f
ENCODING 9535
SWIDTH 960 0
DWIDTH 16 0
BBX 16 16 0 -2
BITMAP
0000
0c00
0678
07d8
0618
0c30
0c30
1ba0
30e0
60c0
0180
0300
0600
1c00
7000
0000
ENDCHAR
STARTCHAR 2540
ENCODING 9536
SWIDTH 960 0
DWIDTH 16 0
BBX 16 16 0 -2
BITMAP
0006
0c1b
060d
07f4
0630
0c30
1860
3760
61c0
c180
0300
0600
0c00
3800
e000
0000
ENDCHAR
STARTCHAR 2541
ENCODING 9537
SWIDTH 960 0
DWIDTH 16 0
BBX 16 16 0 -2
BITMAP
0000
0030
00e0
1f80
0180
00c0
00fe
67c0
3cc0
00c0
00c0
0180
0180
0300
0600
0000
ENDCHAR
STARTCHAR 2542
ENCODING 9538
SWIDTH 960 0
DWIDTH 16 0
BBX 16 16 0 -2
BITMAP
0006
003b
00ed
1f8c
0180
00c0
00fe
67c0
3cc0
00c0
00c0
0180
0180
0300
0600
0000
ENDCHAR
STARTCHAR 2543
ENCODING 9539
SWIDTH 960 0
DWIDTH 16 0
BBX 16 16 0 -2
BITMAP
0000
0000
0000
0000
0000
0000
0660
3330
1b30
1860
0060
00c0
0180
0300
0600
0000
ENDCHAR
STARTCHAR 2544
ENCODING 9540
SWIDTH 960 0
DWIDTH 16 0
BBX 16 16 0 -2
BITMAP
0000
0000
0618
630c
318c
198c
1998
1818
0030
0030
0060
00c0
0180
0300
0e00
0000
ENDCHAR
STARTCHAR 2545
ENCODING 9541
SWIDTH 960 0
DWIDTH 16 0
BBX 16 16 0 -2
BITMAP
0006
001b
0c0d
c634
6318
3318
3330
3030
0060
0060
00c0
0180
0300
0600
1c00
0000
ENDCHAR
STARTCHAR 2546
ENCODING 9542
SWIDTH 960 0
DWIDTH 16 0
BBX 16 16 0 -2
BITMAP
0000
0000
18f0
0f80
0000
0000
007e
63c0
3ec0
00c0
0180
0180
0300
0600
0c00
0000
ENDCHAR
STARTCHAR 2547
ENCODING 9543
SWIDTH 960 0
DWIDTH 16 0
BBX 16 16 0 -2
BITMAP
000c
0036
18fa
0f98
0000
0000
007e
63c0
3ec0
00c0
0180
0180
0300
0600
0c00
0000
ENDCHAR
STARTCHAR 2548
ENCODING 9544
SWIDTH 960 0
DWIDTH 16 0
BBX 16 16 0 -2
BITMAP
0000
0c00
0600
0600
0600
0600
0780
06e0
0630
0618
0600
0600
0600
0600
0600
0600
ENDCHAR
STARTCHAR 2549
ENCODING 9545
SWIDTH 960 0
DWIDTH 16 0
BBX 16 16 0 -2
BITMAP
0000
0c0c
0636
061a
0618
0600
0780
06e0
0630
0618
0600
0600
0600
0600
0600
0600
ENDCHAR
STARTCHAR 254a
ENCODING 9546
SWIDTH 960 0
DWIDTH 16 0
BBX 16 16 0 -2
BITMAP
0000
0180
00c0
00c0
00c0
60fe
3fc0
00c0
00c0
00c0
0180
0180
0300
0600
0c00
0000
ENDCHAR
STARTCHAR 254b
ENCODING 9547
SWIDTH 960 0
DWIDTH 16 0
BBX 16 16 0 -2
BITMAP
0000
0000
0000
0000
18f0
0f80
0000
0000
0000
0000
0000
01fc
7f06
0000
0000
0000
ENDCHAR
STARTCHAR 254c
ENCODING 9548
SWIDTH 960 0
DWIDTH 16 0
BBX 16 16 0 -2
BITMAP
0000
0000
18f8
0f98
0018
0030
0e30
03a0
00c0
00e0
01b0
0318
060c
1c00
7000
0000
ENDCHAR
STARTCHAR 254d
ENCODING 9549
SWIDTH 960 0
DWIDTH 16 0
BBX 16 16 0 -2
BITMAP
0300
0180
0180
31f8
1f18
0030
0060
00c0
03b0
0e9c
7986
0180
0180
0180
0180
0000
ENDCHAR
STARTCHAR 254e
ENCODING 9550
SWIDTH 960 0
DWIDTH 16 0
BBX 16 16 0 -2
BITMAP
0000
0030
0018
0018
0018
0030
0030
0060
0060
00c0
0180
0300
0600
0c00
1800
0000
ENDCHAR
STARTCHAR 254f
ENCODING 9551
SWIDTH 960 0
DWIDTH 16 0
BBX 16 16 0 -2
BITMAP
0000
0000
0000
0000
00c0
0c60
0630
0618
0c18
0c0c
180c
3006
6006
c006
0000
0000
ENDCHAR
STARTCHAR 2550
ENCODING 9552
SWIDTH 960 0
DWIDTH 16 0
BBX 16 16 0 -2
BITMAP
0000
000c
0036
001a
0cd8
0660
0630
0c18
0c18
180c
180c
3006
6006
c006
0000
0000
ENDCHAR
STARTCHAR 2551
ENCODING 9553
SWIDTH 960 0
DWIDTH 16 0
BBX 16 16 0 -2
BITMAP
0000
001c
0036
0036
0cdc
0660
0630
0c18
0c18
180c
180c
3006
6006
c006
0000
0000
ENDCHAR
STARTCHAR 2552
ENCODING 9554
SWIDTH 960 0
DWIDTH 16 0
BBX 16 16 0 -2
BITMAP
0000
6000
3000
3000
3000
3070
33c0
3e00
3000
3000
3000
3000
1800
0ff8
0000
0000
ENDCHAR
STARTCHAR 2553
ENCODING 9555
SWIDTH 960 0
DWIDTH 16 0
BBX 16 16 0 -2
BITMAP
0000
600c
3036
301a
3018
30e0
3380
3e00
3000
3000
3000
3000
1800
0ff8
0000
0000
ENDCHAR
STARTCHAR 2554
ENCODING 9556
SWIDTH 960 0
DWIDTH 16 0
BBX 16 16 0 -2
BITMAP
0000
c038
606c
606c
6038
61c0
6700
7c00
6000
6000
6000
6000
3000
1ff0
0000
0000
ENDCHAR
STARTCHAR 2555
ENCODING 9557
SWIDTH 960 0
DWIDTH 16 0
BBX 16 16 0 -2
BITMAP
0000
0000
60fc
3f8c
000c
0018
0018
0030
0030
0060
00c0
0180
0300
0600
1c00
0000
ENDCHAR
STARTCHAR 2556
ENCODING 9558
SWIDTH 960 0
DWIDTH 16 0
BBX 16 16 0 -2
BITMAP
0006
001b
c1f5
7f34
0030
0060
0060
00c0
00c0
0180
0300
0600
0c00
1800
7000
0000
ENDCHAR
STARTCHAR 2557
ENCODING 9559
SWIDTH 960 0
DWIDTH 16 0
BBX 16 16 0 -2
BITMAP
000e
001b
60fb
3f9e
0018
0030
0030
0060
0060
00c0
0180
0300
0600
0c00
3800
0000
ENDCHAR
STARTCHAR 2558
ENCODING 9560
SWIDTH 960 0
DWIDTH 16 0
BBX 16 16 0 -2
BITMAP
0000
0000
0000
0000
0300
0680
0cc0
1860
d030
6018
000c
0007
0000
0000
0000
0000
ENDCHAR
STARTCHAR 2559
ENCODING 9561
SWIDTH 960 0
DWIDTH 16 0
BBX 16 16 0 -2
BITMAP
0000
0000
000c
0036
031a
0698
0cc0
1860
d030
6018
000c
0007
0000
0000
0000
0000
ENDCHAR
STARTCHAR 255a
ENCODING 9562
SWIDTH 960 0
DWIDTH 16 0
BBX 16 16 0 -2
BITMAP
0000
0000
001c
0036
0336
069c
0cc0
1860
d030
6018
000c
0007
0000
0000
0000
0000
ENDCHAR
STARTCHAR 255b
ENCODING 9563
SWIDTH 960 0
DWIDTH 16 0
BBX 16 16 0 -2
BITMAP
0000
0300
0180
0180
61fc
3f80
0180
01b0
0d98
0d8c
1986
1986
3180
6380
0180
0000
ENDCHAR
STARTCHAR 255c
ENCODING 9564
SWIDTH 960 0
DWIDTH 16 0
BBX 16 16 0 -2
BITMAP
0006
031b
018d
018c
61fc
3f80
0180
01b0
0d98
0d8c
1986
1986
3180
6380
0180
0000
ENDCHAR
STARTCHAR 255d
ENCODING 9565
SWIDTH 960 0
DWIDTH 16 0
BBX 16 16 0 -2
BITMAP
030e
019b
019b
61fe
3f80
0180
01b0
0d98
0d8c
1986
1986
3180
6380
0180
0000
0000
ENDCHAR
STARTCHAR 255e
ENCODING 9566
SWIDTH 960 0
DWIDTH 16 0
BBX 16 16 0 -2
BITMAP
0000
0000
0000
60fc
3f8c
0018
0018
0030
1c60
0740
0180
00c0
0060
0060
0000
0000
ENDCHAR
STARTCHAR 255f
ENCODING 9567
SWIDTH 960 0
DWIDTH 16 0
BBX 16 16 0 -2
BITMAP
0000
0e00
0380
00e0
0030
0000
0e00
0380
00c0
0060
3000
1c00
0700
01c0
0060
0030
ENDCHAR
STARTCHAR 2560
ENCODING 9568
SWIDTH 960 0
DWIDTH 16 0
BBX 16 16 0 -2
BITMAP
0000
0300
0180
0180
0180
0180
0360
0330
0318
0618
067c
6dcc
3e06
0006
0006
0000
ENDCHAR
STARTCHAR 2561
ENCODING 9569
SWIDTH 960 0
DWIDTH 16 0
BBX 16 16 0 -2
BITMAP
0000
0030
0018
0018
0018
0e30
03b0
00e0
0070
0068
00cc
0180
0300
0e00
3800
0000
ENDCHAR
STARTCHAR 2562
ENCODING 9570
SWIDTH 960 0
DWIDTH 16 0
BBX 16 16 0 -2
BITMAP
0000
0000
31f0
1f00
0600
0600
0600
c7fc
7e00
0600
0600
0600
0300
01f8
0000
0000
ENDCHAR
STARTCHAR 2563
ENCODING 9571
SWIDTH 960 0
DWIDTH 16 0
BBX 16 16 0 -2
BITMAP
0000
0000
0000
0000
0000
1800
0c00
0cf8
0798
6e30
3a60
0300
0300
0180
0180
0180
ENDCHAR
STARTCHAR 2564
ENCODING 9572
SWIDTH 960 0
DWIDTH 16 0
BBX 16 16 0 -2
BITMAP
0000
1800
0c00
0c1e
06f6
6f0c
3a18
0330
0360
0180
0180
0180
00c0
00c0
00c0
0000
ENDCHAR
STARTCHAR 2565
ENCODING 9573
SWIDTH 960 0
DWIDTH 16 0
BBX 16 16 0 -2
BITMAP
0000
0000
0000
0000
0000
0000
0000
0000
03c0
1ec0
00c0
0180
03f0
7e18
0000
0000
ENDCHAR
STARTCHAR 2566
ENCODING 9574
SWIDTH 960 0
DWIDTH 16 0
BBX 16 16 0 -2
BITMAP
0000
0000
0000
0000
18f0
0fb0
0030
0030
0060
0060
0060
07fc
7c06
0000
0000
0000
ENDCHAR
STARTCHAR 2567
ENCODING 9575
SWIDTH 960 0
DWIDTH 16 0
BBX 16 16 0 -2
BITMAP
0000
0000
0000
0000
0000
0000
01f0
1f30
0030
0030
01e0
0f60
0060
01e0
1f30
0000
ENDCHAR
STARTCHAR 2568
ENCODING 9576
SWIDTH 960 0
DWIDTH 16 0
BBX 16 16 0 -2
BITMAP
0000
0000
03f8
3e18
0018
0018
0018
01f0
1f30
0030
0030
0030
01f0
3f18
0000
0000
ENDCHAR
STARTCHAR 2569
ENCODING 9577
SWIDTH 960 0
DWIDTH 16 0
BBX 16 16 0 -2
BITMAP
0000
31f0
1f00
0000
0000
007c
67cc
3c0c
0018
0018
0030
0060
00c0
0380
0e00
0000
ENDCHAR
STARTCHAR 256a
ENCODING 9578
SWIDTH 960 0
DWIDTH 16 0
BBX 16 16 0 -2
BITMAP
0060
1830
0c30
0c30
0c30
0c30
0c30
0c30
0c30
0c30
0060
0060
00c0
0180
0300
0000
ENDCHAR
STARTCHAR 256b
ENCODING 9579
SWIDTH 960 0
DWIDTH 16 0
BBX 16 16 0 -2
BITMAP
0000
0180
00c0
18c0
0cc0
0cc3
0cc3
0cc6
0cc6
0ccc
0cd8
18d0
18e0
30c0
6000
0000
ENDCHAR
STARTCHAR 256c
ENCODING 9580
SWIDTH 960 0
DWIDTH 16 0
BBX 16 16 0 -2
BITMAP
0000
1800
0c00
0c00
0c00
0c00
0c00
0c00
0c0c
0c18
0c30
0c60
0dc0
0f00
0c00
0000
ENDCHAR
STARTCHAR 256d
ENCODING 9581
SWIDTH 960 0
DWIDTH 16 0
BBX 16 16 0 -2
BITMAP
0000
0000
6000
31fc
3f0c
300c
180c
180c
1818
1818
1818
19f8
1f0c
1800
0000
0000
ENDCHAR
STARTCHAR 256e
ENCODING 9582
SWIDTH 960 0
DWIDTH 16 0
BBX 16 16 0 -2
BITMAP
0000
0000
0000
0000
0000
0000
18f8
0f98
0c18
0c30
0c30
0060
00c0
0180
0300
0000
ENDCHAR
STARTCHAR 256f
ENCODING 9583
SWIDTH 960 0
DWIDTH 16 0
BBX 16 16 0 -2
BITMAP
0000
0000
0000
60fc
3f8c
300c
180c
1818
1818
1830
0030
0060
00c0
0180
0300
0000
ENDCHAR
STARTCHAR 2570
ENCODING 9584
SWIDTH 960 0
DWIDTH 16 0
BBX 16 16 0 -2
BITMAP
0000
0180
00c0
00c0
61fc
3f40
18c0
18c0
0cc0
0dfc
ff46
00c0
00c0
00c0
00c0
0000
ENDCHAR
STARTCHAR 2571
ENCODING 9585
SWIDTH 960 0
DWIDTH 16 0
BBX 16 16 0 -2
BITMAP
0000
0000
0000
31f8
1f30
0060
0340
0300
0300
0300
0300
03f8
fe0c
0000
0000
0000
ENDCHAR
STARTCHAR 2572
ENCODING 9586
SWIDTH 960 0
DWIDTH 16 0
BBX 16 16 0 -2
BITMAP
0000
0000
187c
0fcc
000c
000c
00f8
0f98
0030
0030
0060
00c0
0380
1e00
0000
0000
ENDCHAR
STARTCHAR 2573
ENCODING 9587
SWIDTH 960 0
DWIDTH 16 0
BBX 16 16 0 -2
BITMAP
0000
0000
0000
3800
0c06
0606
000c
000c
0018
0030
0060
00c0
0180
3700
1c00
0000
ENDCHAR
STARTCHAR 2574
ENCODING 9588
SWIDTH 960 0
DWIDTH 16 0
BBX 16 16 0 -2
BITMAP
0006
031b
018d
018c
31fc
3f0c
180c
1818
1818
1830
0030
0060
00c0
0180
0300
0000
ENDCHAR
STARTCHAR 2575
ENCODING 9589
SWIDTH 960 0
DWIDTH 16 0
BBX 16 16 0 -2
BITMAP
0000
0000
0000
0000
0300
0300
0300
33f0
1f30
0330
0630
0660
0c60
19a0
30c0
0000
ENDCHAR
STARTCHAR 2576
ENCODING 9590
SWIDTH 960 0
DWIDTH 16 0
BBX 16 16 0 -2
BITMAP
0000
0000
0000
0000
0c00
0600
0678
07c0
0660
0c60
18c0
00c0
0180
0300
0600
0000
ENDCHAR
STARTCHAR 2621
ENCODING 9761
SWIDTH 960 0
DWIDTH 16 0
BBX 16 16 0 -2
BITMAP
0000
0180
0180
0340
0340
0660
0660
0c30
0ff0
0c30
1818
1818
300c
781e
0000
0000
ENDCHAR
STARTCHAR 2622
ENCODING 9762
SWIDTH 960 0
DWIDTH 16 0
BBX 16 16 0 -2
BITMAP
0000
7fe0
1830
1818
1818
1830
1fe0
1830
1818
180c
180c
1818
1870
7fc0
0000
0000
ENDCHAR
STARTCHAR 2623
ENCODING 9763
SWIDTH 960 0
DWIDTH 16 0
BBX 16 16 0 -2
BITMAP
0000
3ff8
0c18
0c0c
0c00
0c00
0c00
0c00
0c00
0c00
0c00
0c00
0c00
1e00
0000
0000
ENDCHAR
STARTCHAR 2624
ENCODING 9764
SWIDTH 960 0
DWIDTH 16 0
BBX 16 16 0 -2
BITMAP
0000
0300
0300
0680
0680
0cc0
0cc0
1860
1860
1830
3030
3030
6018
fffc
0000
0000
ENDCHAR
STARTCHAR 2625
ENCODING 9765
SWIDTH 960 0
DWIDTH 16 0
BBX 16 16 0 -2
BITMAP
0000
7ff8
1818
180c
1800
1800
18c0
1fc0
18c0
1800
1800
180c
1818
7ff8
0000
0000
ENDCHAR
STARTCHAR 2626
ENCODING 9766
SWIDTH 960 0
DWIDTH 16 0
BBX 16 16 0 -2
BITMAP
0000
1ff8
1830
3060
00c0
00c0
0180
0300
0300
0600
0c00
0c18
1818
3ff8
0000
0000
ENDCHAR
STARTCHAR 2627
ENCODING 9767
SWIDTH 960 0
DWIDTH 16 0
BBX 16 16 0 -2
BITMAP
0000
783c
3018
3018
3018
3018
3018
3ff8
3018
3018
3018
3018
3018
783c
0000
0000
ENDCHAR
STARTCHAR 2628
ENCODING 9768
SWIDTH 960 0
DWIDTH 16 0
BBX 16 16 0 -2
BITMAP
0000
07c0
1c70
3838
3018
600c
6c6c
6fec
6c6c
600c
3018
3838
1c70
07c0
0000
0000
ENDCHAR
STARTCHAR 2629
ENCODING 9769
SWIDTH 960 0
DWIDTH 16 0
BBX 16 16 0 -2
BITMAP
0000
0780
0300
0300
0300
0300
0300
0300
0300
0300
0300
0300
0300
0780
0000
0000
ENDCHAR
STARTCHAR 262a
ENCODING 9770
SWIDTH 960 0
DWIDTH 16 0
BBX 16 16 0 -2
BITMAP
0000
3c3c
1830
1860
18c0
1980
1b00
1b00
1d80
18c0
1860
1830
1818
3c1e
0000
0000
ENDCHAR
STARTCHAR 262b
ENCODING 9771
SWIDTH 960 0
DWIDTH 16 0
BBX 16 16 0 -2
BITMAP
0000
0180
0180
0340
0340
0660
0660
0c30
0c30
0c30
1818
1818
300c
781e
0000
0000
ENDCHAR
STARTCHAR 262c
ENCODING 9772
SWIDTH 960 0
DWIDTH 16 0
BBX 16 16 0 -2
BITMAP
0000
e01c
6018
7038
7038
6868
6868
6cd8
6cd8
6cd8
6698
6698
6318
f33c
0000
0000
ENDCHAR
STARTCHAR 262d
ENCODING 9773
SWIDTH 960 0
DWIDTH 16 0
BBX 16 16 0 -2
BITMAP
0000
783c
3818
3418
3418
3618
3318
3318
3198
30d8
30d8
3068
3038
7818
0000
0000
ENDCHAR
STARTCHAR 262e
ENCODING 9774
SWIDTH 960 0
DWIDTH 16 0
BBX 16 16 0 -2
BITMAP
0000
7ffc
600c
0000
0000
0000
3018
3ff8
3018
0000
0000
0000
600c
7ffc
0000
0000
ENDCHAR
STARTCHAR 262f
ENCODING 9775
SWIDTH 960 0
DWIDTH 16 0
BBX 16 16 0 -2
BITMAP
0000
07c0
1c70
3838
3018
600c
600c
600c
600c
600c
3018
3838
1c70
07c0
0000
0000
ENDCHAR
STARTCHAR 2630
ENCODING 9776
SWIDTH 960 0
DWIDTH 16 0
BBX 16 16 0 -2
BITMAP
0000
3ff8
1830
1830
1830
1830
1830
1830
1830
1830
1830
1830
1830
3c78
0000
0000
ENDCHAR
STARTCHAR 2631
ENCODING 9777
SWIDTH 960 0
DWIDTH 16 0
BBX 16 16 0 -2
BITMAP
0000
3fe0
0c38
0c0c
0c0c
0c0c
0c38
0fe0
0c00
0c00
0c00
0c00
0c00
1e00
0000
0000
ENDCHAR
STARTCHAR 2632
ENCODING 9778
SWIDTH 960 0
DWIDTH 16 0
BBX 16 16 0 -2
BITMAP
0000
3ff0
1830
0c18
0600
0300
0180
01c0
0180
0300
0600
0c18
1818
3ff8
0000
0000
ENDCHAR
STARTCHAR 2633
ENCODING 9779
SWIDTH 960 0
DWIDTH 16 0
BBX 16 16 0 -2
BITMAP
0000
7ff8
6318
c30c
0300
0300
0300
0300
0300
0300
0300
0300
0300
0780
0000
0000
ENDCHAR
STARTCHAR 2634
ENCODING 9780
SWIDTH 960 0
DWIDTH 16 0
BBX 16 16 0 -2
BITMAP
0000
1e78
334c
6186
0180
0180
0180
0180
0180
0180
0180
0180
0180
03c0
0000
0000
ENDCHAR
STARTCHAR 2635
ENCODING 9781
SWIDTH 960 0
DWIDTH 16 0
BBX 16 16 0 -2
BITMAP
0000
03c0
0180
07e0
1db8
1998
318c
318c
318c
1998
1db8
07e0
0180
03c0
0000
0000
ENDCHAR
STARTCHAR 2636
ENCODING 9782
SWIDTH 960 0
DWIDTH 16 0
BBX 16 16 0 -2
BITMAP
0000
7878
3030
1860
0cc0
0cc0
0680
0300
0680
0cc0
0cc0
1860
3030
7878
0000
0000
ENDCHAR
STARTCHAR 2637
ENCODING 9783
SWIDTH 960 0
DWIDTH 16 0
BBX 16 16 0 -2
BITMAP
0000
0780
e31c
b336
3330
3330
3330
3330
3b70
1b60
0fc0
0300
0300
0780
0000
0000
ENDCHAR
STARTCHAR 2638
ENCODING 9784
SWIDTH 960 0
DWIDTH 16 0
BBX 16 16 0 -2
BITMAP
0000
03c0
0e70
1c38
1818
300c
300c
300c
1818
1c38
0e70
334c
334c
3f7c
0000
0000
ENDCHAR
STARTCHAR 2641
ENCODING 9793
SWIDTH 960 0
DWIDTH 16 0
BBX 16 16 0 -2
BITMAP
0000
0000
0000
0000
0000
0018
0798
0cd0
18d0
18e0
30c0
31c0
3358
1e70
0000
0000
ENDCHAR
STARTCHAR 2642
ENCODING 9794
SWIDTH 960 0
DWIDTH 16 0
BBX 16 16 0 -2
BITMAP
0000
00f0
0198
0318
0318
0618
0630
0de0
0c60
0c30
1830
1830
1a60
1bc0
3000
3000
ENDCHAR
STARTCHAR 2643
ENCODING 9795
SWIDTH 960 0
DWIDTH 16 0
BBX 16 16 0 -2
BITMAP
0000
0000
0000
0000
0000
0000
1e38
3360
6340
0380
0380
0300
0600
0600
0c00
0c00
ENDCHAR
STARTCHAR 2644
ENCODING 9796
SWIDTH 960 0
DWIDTH 16 0
BBX 16 16 0 -2
BITMAP
0000
0380
06e0
0630
0318
0180
0740
0cc0
1860
3060
30c0
30c0
1980
0f00
0000
0000
ENDCHAR
STARTCHAR 2645
ENCODING 9797
SWIDTH 960 0
DWIDTH 16 0
BBX 16 16 0 -2
BITMAP
0000
0000
0000
0000
0000
0000
03e0
0630
0600
03c0
0600
0c00
0c60
07c0
0000
0000
ENDCHAR
STARTCHAR 2646
ENCODING 9798
SWIDTH 960 0
DWIDTH 16 0
BBX 16 16 0 -2
BITMAP
0600
0c30
0c60
07c0
0180
0300
0600
0c00
1800
1800
0c00
0700
0180
00c0
00c0
0380
ENDCHAR
STARTCHAR 2647
ENCODING 9799
SWIDTH 960 0
DWIDTH 16 0
BBX 16 16 0 -2
BITMAP
0000
0000
0000
0000
0000
0000
1de0
3730
0630
0c30
0c30
0c60
1860
1860
00c0
00c0
ENDCHAR
STARTCHAR 2648
ENCODING 9800
SWIDTH 960 0
DWIDTH 16 0
BBX 16 16 0 -2
BITMAP
0000
00e0
01b0
0318
0618
0618
0ff8
0c30
1830
1860
1860
18c0
0d80
0700
0000
0000
ENDCHAR
STARTCHAR 2649
ENCODING 9801
SWIDTH 960 0
DWIDTH 16 0
BBX 16 16 0 -2
BITMAP
0000
0000
0000
0000
0000
0000
0600
0600
0c00
0c00
1800
1860
19c0
0f00
0000
0000
ENDCHAR
STARTCHAR 264a
ENCODING 9802
SWIDTH 960 0
DWIDTH 16 0
BBX 16 16 0 -2
BITMAP
0000
0000
0000
0000
0000
0000
0c70
0cd8
0d80
0e00
1b00
1b00
3330
31e0
0000
0000
ENDCHAR
STARTCHAR 264b
ENCODING 9803
SWIDTH 960 0
DWIDTH 16 0
BBX 16 16 0 -2
BITMAP
0000
0180
00c0
00c0
00c0
00c0
00c0
01c0
0340
0340
0660
0c60
1830
3018
0000
0000
ENDCHAR
STARTCHAR 264c
ENCODING 9804
SWIDTH 960 0
DWIDTH 16 0
BBX 16 16 0 -2
BITMAP
0000
0000
0000
0000
0000
0000
0c60
0c60
0c60
0cc0
18c0
18c0
1dd8
3770
3000
6000
ENDCHAR
STARTCHAR 264d
ENCODING 9805
SWIDTH 960 0
DWIDTH 16 0
BBX 16 16 0 -2
BITMAP
0000
0000
0000
0000
0000
0000
3830
0c30
0c60
0c60
0cc0
1980
1b00
3c00
0000
0000
ENDCHAR
STARTCHAR 264e
ENCODING 9806
SWIDTH 960 0
DWIDTH 16 0
BBX 16 16 0 -2
BITMAP
0030
01e0
0300
0180
07e0
0c00
0c00
0600
1fc0
3000
3000
1e00
0380
00c0
00c0
1f80
ENDCHAR
STARTCHAR 264f
ENCODING 9807
SWIDTH 960 0
DWIDTH 16 0
BBX 16 16 0 -2
BITMAP
0000
0000
0000
0000
0000
0000
03c0
0660
0c30
1830
1830
1860
0cc0
0780
0000
0000
ENDCHAR
STARTCHAR 2650
ENCODING 9808
SWIDTH 960 0
DWIDTH 16 0
BBX 16 16 0 -2
BITMAP
0000
0000
0000
0000
0000
0018
1ff0
36c0
06c0
06c0
0d80
0d80
19b0
30e0
0000
0000
ENDCHAR
STARTCHAR 2651
ENCODING 9809
SWIDTH 960 0
DWIDTH 16 0
BBX 16 16 0 -2
BITMAP
0000
0000
0000
0000
0000
0000
03c0
0660
0c30
0c30
0c30
1830
1a60
1bc0
3000
3000
ENDCHAR
STARTCHAR 2652
ENCODING 9810
SWIDTH 960 0
DWIDTH 16 0
BBX 16 16 0 -2
BITMAP
0000
0000
0000
0000
0000
0018
01f0
0360
0630
0c30
0c30
0c60
06c0
0380
0000
0000
ENDCHAR
STARTCHAR 2653
ENCODING 9811
SWIDTH 960 0
DWIDTH 16 0
BBX 16 16 0 -2
BITMAP
0000
0000
0000
0000
0000
0018
1ff0
3300
0300
0600
0600
0c60
0cc0
0780
0000
0000
ENDCHAR
STARTCHAR 2654
ENCODING 9812
SWIDTH 960 0
DWIDTH 16 0
BBX 16 16 0 -2
BITMAP
0000
0000
0000
0000
0000
0000
0330
0318
0318
0330
0630
0660
06c0
0380
0000
0000
ENDCHAR
STARTCHAR 2655
ENCODING 9813
SWIDTH 960 0
DWIDTH 16 0
BBX 16 16 0 -2
BITMAP
0000
0060
0060
0060
00c0
00c0
03e0
0eb0
19b0
19b0
1b30
1b60
0f80
0600
0600
0600
ENDCHAR
STARTCHAR 2656
ENCODING 9814
SWIDTH 960 0
DWIDTH 16 0
BBX 16 16 0 -2
BITMAP
0000
0000
0000
0000
0000
0000
0e30
1b60
0340
0380
0300
0700
0d00
1b00
31b0
60e0
ENDCHAR
STARTCHAR 2657
ENCODING 9815
SWIDTH 960 0
DWIDTH 16 0
BBX 16 16 0 -2
BITMAP
0000
0060
0060
00c0
00c0
00c0
1998
3598
0db0
0d30
1b60
1b40
0f80
0600
0600
0600
ENDCHAR
STARTCHAR 2658
ENCODING 9816
SWIDTH 960 0
DWIDTH 16 0
BBX 16 16 0 -2
BITMAP
0000
0000
0000
0000
0000
0000
0c30
19b0
3198
3198
6318
6318
66b0
3ce0
0000
0000
ENDCHAR
STARTCHAR 2721
ENCODING 10017
SWIDTH 960 0
DWIDTH 16 0
BBX 16 16 0 -2
BITMAP
0000
0180
0180
0340
0340
0660
0660
0c30
0ff0
0c30
1818
1818
300c
781e
0000
0000
ENDCHAR
STARTCHAR 2722
ENCODING 10018
SWIDTH 960 0
DWIDTH 16 0
BBX 16 16 0 -2
BITMAP
0000
7ff0
1830
1818
1800
1800
1fe0
1830
1818
180c
180c
1818
1870
7fc0
0000
0000
ENDCHAR
STARTCHAR 2723
ENCODING 10019
SWIDTH 960 0
DWIDTH 16 0
BBX 16 16 0 -2
BITMAP
0000
7fe0
1830
1818
1818
1830
1fe0
1830
1818
180c
180c
1818
1870
7fc0
0000
0000
ENDCHAR
STARTCHAR 2724
ENCODING 10020
SWIDTH 960 0
DWIDTH 16 0
BBX 16 16 0 -2
BITMAP
0000
3ff8
0c18
0c0c
0c00
0c00
0c00
0c00
0c00
0c00
0c00
0c00
0c00
1e00
0000
0000
ENDCHAR
STARTCHAR 2725
ENCODING 10021
SWIDTH 960 0
DWIDTH 16 0
BBX 16 16 0 -2
BITMAP
0000
1ffc
0630
0630
0630
0630
0630
0630
0630
0630
0c30
0c30
1830
7ffc
600c
600c
ENDCHAR
STARTCHAR 2726
ENCODING 10022
SWIDTH 960 0
DWIDTH 16 0
BBX 16 16 0 -2
BITMAP
0000
7ff8
1818
180c
1800
1800
18c0
1fc0
18c0
1800
1800
180c
1818
7ff8
0000
0000
ENDCHAR
STARTCHAR 2727
ENCODING 10023
SWIDTH 960 0
DWIDTH 16 0
BBX 16 16 0 -2
BITMAP
0c30
0c30
0000
7ff0
1830
1818
1800
18c0
1fc0
18c0
1800
1818
1830
7ff0
0000
0000
ENDCHAR
STARTCHAR 2728
ENCODING 10024
SWIDTH 960 0
DWIDTH 16 0
BBX 16 16 0 -2
BITMAP
0000
73ce
d99b
1998
1998
1998
0db0
0ff0
1998
318c
318c
6186
6186
f3cf
0000
0000
ENDCHAR
STARTCHAR 2729
ENCODING 10025
SWIDTH 960 0
DWIDTH 16 0
BBX 16 16 0 -2
BITMAP
0000
07c0
1c70
3038
0018
0018
0030
07e0
0030
0018
0018
3030
1c70
07c0
0000
0000
ENDCHAR
STARTCHAR 272a
ENCODING 10026
SWIDTH 960 0
DWIDTH 16 0
BBX 16 16 0 -2
BITMAP
0000
783c
3038
3068
3068
30d8
3198
3198
3318
3618
3618
3418
3818
303c
0000
0000
ENDCHAR
STARTCHAR 272b
ENCODING 10027
SWIDTH 960 0
DWIDTH 16 0
BBX 16 16 0 -2
BITMAP
0ee0
0c60
7bdc
3038
3038
3068
30d8
3198
3198
3318
3618
3418
3818
303c
0000
0000
ENDCHAR
STARTCHAR 272c
ENCODING 10028
SWIDTH 960 0
DWIDTH 16 0
BBX 16 16 0 -2
BITMAP
0000
3c78
18cc
18c0
1980
1980
1b00
1f00
1980
18c0
1860
1830
1818
3c3c
0000
0000
ENDCHAR
STARTCHAR 272d
ENCODING 10029
SWIDTH 960 0
DWIDTH 16 0
BBX 16 16 0 -2
BITMAP
0000
1ff8
0630
0630
0630
0630
0630
0630
0630
0c30
0c30
1830
d030
e078
0000
0000
ENDCHAR
STARTCHAR 272e
ENCODING 10030
SWIDTH 960 0
DWIDTH 16 0
BBX 16 16 0 -2
BITMAP
0000
701c
3018
3838
3838
3468
3468
3668
36d8
66cc
634c
638c
618c
f99e
0000
0000
ENDCHAR
STARTCHAR 272f
ENCODING 10031
SWIDTH 960 0
DWIDTH 16 0
BBX 16 16 0 -2
BITMAP
0000
783c
3018
3018
3018
3018
3018
3ff8
3018
3018
3018
3018
3018
783c
0000
0000
ENDCHAR
STARTCHAR 2730
ENCODING 10032
SWIDTH 960 0
DWIDTH 16 0
BBX 16 16 0 -2
BITMAP
0000
07c0
1c70
3838
3018
600c
600c
600c
600c
600c
3018
3838
1c70
07c0
0000
0000
ENDCHAR
STARTCHAR 2731
ENCODING 10033
SWIDTH 960 0
DWIDTH 16 0
BBX 16 16 0 -2
BITMAP
0000
3ffc
1818
1818
1818
1818
1818
1818
1818
1818
1818
1818
1818
3c3c
0000
0000
ENDCHAR
STARTCHAR 2732
ENCODING 10034
SWIDTH 960 0
DWIDTH 16 0
BBX 16 16 0 -2
BITMAP
0000
3fe0
0c38
0c0c
0c0c
0c0c
0c38
0fe0
0c00
0c00
0c00
0c00
0c00
1e00
0000
0000
ENDCHAR
STARTCHAR 2733
ENCODING 10035
SWIDTH 960 0
DWIDTH 16 0
BBX 16 16 0 -2
BITMAP
0000
07c0
1c68
3838
3018
6000
6000
6000
6000
6000
3018
3838
1c70
07c0
0000
0000
ENDCHAR
STARTCHAR 2734
ENCODING 10036
SWIDTH 960 0
DWIDTH 16 0
BBX 16 16 0 -2
BITMAP
0000
7ff8
6318
c30c
0300
0300
0300
0300
0300
0300
0300
0300
0300
0780
0000
0000
ENDCHAR
STARTCHAR 2735
ENCODING 10037
SWIDTH 960 0
DWIDTH 16 0
BBX 16 16 0 -2
BITMAP
0000
3c3c
1818
0c30
0c30
0660
0660
0340
0340
0180
0180
0300
3600
1c00
0000
0000
ENDCHAR
STARTCHAR 2736
ENCODING 10038
SWIDTH 960 0
DWIDTH 16 0
BBX 16 16 0 -2
BITMAP
0000
03c0
0180
07e0
1db8
1998
318c
318c
318c
1998
1db8
07e0
0180
03c0
0000
0000
ENDCHAR
STARTCHAR 2737
ENCODING 10039
SWIDTH 960 0
DWIDTH 16 0
BBX 16 16 0 -2
BITMAP
0000
7878
3030
1860
0cc0
0cc0
0680
0300
0680
0cc0
0cc0
1860
3030
7878
0000
0000
ENDCHAR
STARTCHAR 2738
ENCODING 10040
SWIDTH 960 0
DWIDTH 16 0
BBX 16 16 0 -2
BITMAP
0000
7878
3030
3030
3030
3030
3030
3030
3030
3030
3030
3030
3030
7ffc
000c
000c
ENDCHAR
STARTCHAR 2739
ENCODING 10041
SWIDTH 960 0
DWIDTH 16 0
BBX 16 16 0 -2
BITMAP
0000
3c78
1830
1830
1830
1830
1830
0c70
07d0
0030
0030
0030
0030
0078
0000
0000
ENDCHAR
STARTCHAR 273a
ENCODING 10042
SWIDTH 960 0
DWIDTH 16 0
BBX 16 16 0 -2
BITMAP
0000
7bde
318c
318c
318c
318c
318c
318c
318c
318c
318c
318c
318c
7ffe
0000
0000
ENDCHAR
STARTCHAR 273b
ENCODING 10043
SWIDTH 960 0
DWIDTH 16 0
BBX 16 16 0 -2
BITMAP
0000
7bde
318c
318c
318c
318c
318c
318c
318c
318c
318c
318c
318c
7fff
0003
0003
ENDCHAR
STARTCHAR 273c
ENCODING 10044
SWIDTH 960 0
DWIDTH 16 0
BBX 16 16 0 -2
BITMAP
0000
7f00
6600
c600
0600
0600
07f0
061c
060e
0606
0606
060e
061c
0ff0
0000
0000
ENDCHAR
STARTCHAR 273d
ENCODING 10045
SWIDTH 960 0
DWIDTH 16 0
BBX 16 16 0 -2
BITMAP
0000
783c
3018
3018
3018
3018
3e18
3398
31d8
30d8
30d8
31d8
3398
7e3c
0000
0000
ENDCHAR
STARTCHAR 273e
ENCODING 10046
SWIDTH 960 0
DWIDTH 16 0
BBX 16 16 0 -2
BITMAP
0000
3c00
1800
1800
1800
1800
1fc0
1870
1838
1818
1818
1838
1870
3fc0
0000
0000
ENDCHAR
STARTCHAR 273f
ENCODING 10047
SWIDTH 960 0
DWIDTH 16 0
BBX 16 16 0 -2
BITMAP
0000
07c0
1c70
1838
3018
001c
0f34
19ec
000c
000c
3018
1838
1c70
07c0
0000
0000
ENDCHAR
STARTCHAR 2740
ENCODING 10048
SWIDTH 960 0
DWIDTH 16 0
BBX 16 16 0 -2
BITMAP
0000
78f0
3198
330c
330c
3606
3606
3e06
3606
3606
330c
330c
3198
78f0
0000
0000
ENDCHAR
STARTCHAR 2741
ENCODING 10049
SWIDTH 960 0
DWIDTH 16 0
BBX 16 16 0 -2
BITMAP
0000
07f8
1c30
3030
3030
3030
1c30
07f0
0330
0630
0c30
0c30
3830
e078
0000
0000
ENDCHAR
STARTCHAR 2751
ENCODING 10065
SWIDTH 960 0
DWIDTH 16 0
BBX 16 16 0 -2
BITMAP
0000
0000
0000
0000
0000
07c0
0c60
0060
07a0
0ce0
1860
18e0
19a8
0f38
0000
0000
ENDCHAR
STARTCHAR 2752
ENCODING 10066
SWIDTH 960 0
DWIDTH 16 0
BBX 16 16 0 -2
BITMAP
0000
0030
03e0
0600
0c00
0c00
1bc0
1c60
1830
1830
1830
1830
0c60
07c0
0000
0000
ENDCHAR
STARTCHAR 2753
ENCODING 10067
SWIDTH 960 0
DWIDTH 16 0
BBX 16 16 0 -2
BITMAP
0000
0000
0000
0000
0000
1fe0
0c30
0c30
0c60
0fe0
0c30
0c30
0c30
1fe0
0000
0000
ENDCHAR
STARTCHAR 2754
ENCODING 10068
SWIDTH 960 0
DWIDTH 16 0
BBX 16 16 0 -2
BITMAP
0000
0000
0000
0000
0000
1ff0
0c30
0c30
0c00
0c00
0c00
0c00
0c00
1e00
0000
0000
ENDCHAR
STARTCHAR 2755
ENCODING 10069
SWIDTH 960 0
DWIDTH 16 0
BBX 16 16 0 -2
BITMAP
0000
0000
0000
0000
0000
0ff0
0660
0660
0660
0660
0660
0c60
0c60
3ff8
3018
3018
ENDCHAR
STARTCHAR 2756
ENCODING 10070
SWIDTH 960 0
DWIDTH 16 0
BBX 16 16 0 -2
BITMAP
0000
0000
0000
0000
0000
0780
0cc0
1860
1860
1fe0
1800
1800
0c60
07c0
0000
0000
ENDCHAR
STARTCHAR 2757
ENCODING 10071
SWIDTH 960 0
DWIDTH 16 0
BBX 16 16 0 -2
BITMAP
0000
0000
0cc0
0cc0
0000
0780
0cc0
1860
1860
1fe0
1800
1800
0c60
07c0
0000
0000
ENDCHAR
STARTCHAR 2758
ENCODING 10072
SWIDTH 960 0
DWIDTH 16 0
BBX 16 16 0 -2
BITMAP
0000
0000
0000
0000
0000
3bdc
1998
0db0
07e0
06a0
0db0
0db0
1998
33cc
0000
0000
ENDCHAR
STARTCHAR 2759
ENCODING 10073
SWIDTH 960 0
DWIDTH 16 0
BBX 16 16 0 -2
BITMAP
0000
0000
0000
0000
0000
07e0
0e30
0030
0060
03e0
0030
0030
0e30
07e0
0000
0000
ENDCHAR
STARTCHAR 275a
ENCODING 10074
SWIDTH 960 0
DWIDTH 16 0
BBX 16 16 0 -2
BITMAP
0000
0000
0000
0000
0000
1e3c
0c18
0c38
0c68
0cd8
0d98
0e18
0c18
1e3c
0000
0000
ENDCHAR
STARTCHAR 275b
ENCODING 10075
SWIDTH 960 0
DWIDTH 16 0
BBX 16 16 0 -2
BITMAP
0000
0000
0770
0630
03e0
1e3c
0c18
0c38
0c68
0cd8
0d98
0e18
0c18
1e3c
0000
0000
ENDCHAR
STARTCHAR 275c
ENCODING 10076
SWIDTH 960 0
DWIDTH 16 0
BBX 16 16 0 -2
BITMAP
0000
0000
0000
0000
0000
1e70
0cd0
0d80
0d00
0f00
0d80
0cc0
0c60
1e78
0000
0000
ENDCHAR
STARTCHAR 275d
ENCODING 10077
SWIDTH 960 0
DWIDTH 16 0
BBX 16 16 0 -2
BITMAP
0000
0000
0000
0000
0000
07f8
0330
0330
0330
0330
0330
3330
3630
1c78
0000
0000
ENDCHAR
STARTCHAR 275e
ENCODING 10078
SWIDTH 960 0
DWIDTH 16 0
BBX 16 16 0 -2
BITMAP
0000
0000
0000
0000
0000
3c3c
1c38
1a68
1a68
1b58
1b58
1998
1998
3c3c
0000
0000
ENDCHAR
STARTCHAR 275f
ENCODING 10079
SWIDTH 960 0
DWIDTH 16 0
BBX 16 16 0 -2
BITMAP
0000
0000
0000
0000
0000
1e78
0c30
0c30
0c30
0ff0
0c30
0c30
0c30
1e78
0000
0000
ENDCHAR
STARTCHAR 2760
ENCODING 10080
SWIDTH 960 0
DWIDTH 16 0
BBX 16 16 0 -2
BITMAP
0000
0000
0000
0000
0000
07c0
0c60
1830
1830
1830
1830
1830
0c60
07c0
0000
0000
ENDCHAR
STARTCHAR 2761
ENCODING 10081
SWIDTH 960 0
DWIDTH 16 0
BBX 16 16 0 -2
BITMAP
0000
0000
0000
0000
0000
3ff0
1860
1860
1860
1860
1860
1860
1860
3cf0
0000
0000
ENDCHAR
STARTCHAR 2762
ENCODING 10082
SWIDTH 960 0
DWIDTH 16 0
BBX 16 16 0 -2
BITMAP
0000
0000
0000
0000
0000
1dc0
0e60
0c30
0c30
0c30
0c30
0e60
0dc0
0c00
0c00
1e00
ENDCHAR
STARTCHAR 2763
ENCODING 10083
SWIDTH 960 0
DWIDTH 16 0
BBX 16 16 0 -2
BITMAP
0000
0000
0000
0000
0000
0780
0cc0
1860
1800
1800
1800
1860
0cc0
0780
0000
0000
ENDCHAR
STARTCHAR 2764
ENCODING 10084
SWIDTH 960 0
DWIDTH 16 0
BBX 16 16 0 -2
BITMAP
0000
0000
0000
0000
0000
3ff0
3330
3330
0300
0300
0300
0300
0300
0780
0000
0000
ENDCHAR
STARTCHAR 2765
ENCODING 10085
SWIDTH 960 0
DWIDTH 16 0
BBX 16 16 0 -2
BITMAP
0000
0000
0000
0000
0000
1e78
0c30
0c30
0660
0660
0340
0340
0180
0300
1b00
0e00
ENDCHAR
STARTCHAR 2766
ENCODING 10086
SWIDTH 960 0
DWIDTH 16 0
BBX 16 16 0 -2
BITMAP
0000
0380
0180
0180
0180
0180
0eb0
1bd8
318c
318c
318c
318c
1bd8
0eb0
0180
03c0
ENDCHAR
STARTCHAR 2767
ENCODING 10087
SWIDTH 960 0
DWIDTH 16 0
BBX 16 16 0 -2
BITMAP
0000
0000
0000
0000
0000
1e78
0c30
0660
0340
0180
0340
0660
0c30
1e78
0000
0000
ENDCHAR
STARTCHAR 2768
ENCODING 10088
SWIDTH 960 0
DWIDTH 16 0
BBX 16 16 0 -2
BITMAP
0000
0000
0000
0000
0000
3cf0
1860
1860
1860
1860
1860
1860
1860
3ff8
0018
0018
ENDCHAR
STARTCHAR 2769
ENCODING 10089
SWIDTH 960 0
DWIDTH 16 0
BBX 16 16 0 -2
BITMAP
0000
0000
0000
0000
0000
1e78
0c30
0c30
0c30
0c30
07f0
0030
0030
0078
0000
0000
ENDCHAR
STARTCHAR 276a
ENCODING 10090
SWIDTH 960 0
DWIDTH 16 0
BBX 16 16 0 -2
BITMAP
0000
0000
0000
0000
0000
7bde
318c
318c
318c
318c
318c
318c
318c
7ffe
0000
0000
ENDCHAR
STARTCHAR 276b
ENCODING 10091
SWIDTH 960 0
DWIDTH 16 0
BBX 16 16 0 -2
BITMAP
0000
0000
0000
0000
0000
7bde
318c
318c
318c
318c
318c
318c
318c
7fff
0003
0003
ENDCHAR
STARTCHAR 276c
ENCODING 10092
SWIDTH 960 0
DWIDTH 16 0
BBX 16 16 0 -2
BITMAP
0000
0000
0000
0000
0000
3f80
3300
3300
0300
03f0
031c
030c
031c
07f0
0000
0000
ENDCHAR
STARTCHAR 276d
ENCODING 10093
SWIDTH 960 0
DWIDTH 16 0
BBX 16 16 0 -2
BITMAP
0000
0000
0000
0000
0000
3c3c
1818
1818
1818
1f18
19d8
18d8
19d8
3f3c
0000
0000
ENDCHAR
STARTCHAR 276e
ENCODING 10094
SWIDTH 960 0
DWIDTH 16 0
BBX 16 16 0 -2
BITMAP
0000
0000
0000
0000
0000
0f00
0600
0600
0600
07e0
0638
0618
0638
0fe0
0000
0000
ENDCHAR
STARTCHAR 276f
ENCODING 10095
SWIDTH 960 0
DWIDTH 16 0
BBX 16 16 0 -2
BITMAP
0000
0000
0000
0000
0000
07c0
0c60
1830
0770
0dd0
0030
1830
0c60
07c0
0000
0000
ENDCHAR
STARTCHAR 2770
ENCODING 10096
SWIDTH 960 0
DWIDTH 16 0
BBX 16 16 0 -2
BITMAP
0000
0000
0000
0000
0000
3cf0
1998
1b0c
1b0c
1f0c
1b0c
1b0c
1998
3cf0
0000
0000
ENDCHAR
STARTCHAR 2771
ENCODING 10097
SWIDTH 960 0
DWIDTH 16 0
BBX 16 16 0 -2
BITMAP
0000
0000
0000
0000
0000
0ff0
1860
1860
1860
0fe0
0660
0c60
0c60
38f0
0000
0000
ENDCHAR
STARTCHAR 2821
ENCODING 10273
SWIDTH 960 0
DWIDTH 16 0
BBX 16 16 0 -2
BITMAP
0000
0000
0000
0000
0000
0000
0000
ffff
0000
0000
0000
0000
0000
0000
0000
0000
ENDCHAR
STARTCHAR 2822
ENCODING 10274
SWIDTH 960 0
DWIDTH 16 0
BBX 16 16 0 -2
BITMAP
0300
0300
0300
0300
0300
0300
0300
0300
0300
0300
0300
0300
0300
0300
0300
0300
ENDCHAR
STARTCHAR 2823
ENCODING 10275
SWIDTH 960 0
DWIDTH 16 0
BBX 16 16 0 -2
BITMAP
0000
0000
0000
0000
0000
0000
0000
03ff
0300
0300
0300
0300
0300
0300
0300
0300
ENDCHAR
STARTCHAR 2824
ENCODING 10276
SWIDTH 960 0
DWIDTH 16 0
BBX 16 16 0 -2
BITMAP
0000
0000
0000
0000
0000
0000
0000
ff00
0300
0300
0300
0300
0300
0300
0300
0300
ENDCHAR
STARTCHAR 2825
ENCODING 10277
SWIDTH 960 0
DWIDTH 16 0
BBX 16 16 0 -2
BITMAP
0300
0300
0300
0300
0300
0300
0300
ff00
0000
0000
0000
0000
0000
0000
0000
0000
ENDCHAR
STARTCHAR 2826
ENCODING 10278
SWIDTH 960 0
DWIDTH 16 0
BBX 16 16 0 -2
BITMAP
0300
0300
0300
0300
0300
0300
0300
03ff
0000
0000
0000
0000
0000
0000
0000
0000
ENDCHAR
STARTCHAR 2827
ENCODING 10279
SWIDTH 960 0
DWIDTH 16 0
BBX 16 16 0 -2
BITMAP
0300
0300
0300
0300
0300
0300
0300
03ff
0300
0300
0300
0300
0300
0300
0300
0300
ENDCHAR
STARTCHAR 2828
ENCODING 10280
SWIDTH 960 0
DWIDTH 16 0
BBX 16 16 0 -2
BITMAP
0000
0000
0000
0000
0000
0000
0000
ffff
0300
0300
0300
0300
0300
0300
0300
0300
ENDCHAR
STARTCHAR 2829
ENCODING 10281
SWIDTH 960 0
DWIDTH 16 0
BBX 16 16 0 -2
BITMAP
0300
0300
0300
0300
0300
0300
0300
ff00
0300
0300
0300
0300
0300
0300
0300
0300
ENDCHAR
STARTCHAR 282a
ENCODING 10282
SWIDTH 960 0
DWIDTH 16 0
BBX 16 16 0 -2
BITMAP
0300
0300
0300
0300
0300
0300
0300
ffff
0000
0000
0000
0000
0000
0000
0000
0000
ENDCHAR
STARTCHAR 282b
ENCODING 10283
SWIDTH 960 0
DWIDTH 16 0
BBX 16 16 0 -2
BITMAP
0300
0300
0300
0300
0300
0300
0300
ffff
0300
0300
0300
0300
0300
0300
0300
0300
ENDCHAR
STARTCHAR 282c
ENCODING 10284
SWIDTH 960 0
DWIDTH 16 0
BBX 16 16 0 -2
BITMAP
0000
0000
0000
0000
0000
0000
0000
ffff
ffff
0000
0000
0000
0000
0000
0000
0000
ENDCHAR
STARTCHAR 282d
ENCODING 10285
SWIDTH 960 0
DWIDTH 16 0
BBX 16 16 0 -2
BITMAP
0380
0380
0380
0380
0380
0380
0380
0380
0380
0380
0380
0380
0380
0380
0380
0380
ENDCHAR
STARTCHAR 282e
ENCODING 10286
SWIDTH 960 0
DWIDTH 16 0
BBX 16 16 0 -2
BITMAP
0000
0000
0000
0000
0000
0000
0000
03ff
03ff
0380
0380
0380
0380
0380
0380
0380
ENDCHAR
STARTCHAR 282f
ENCODING 10287
SWIDTH 960 0
DWIDTH 16 0
BBX 16 16 0 -2
BITMAP
0000
0000
0000
0000
0000
0000
0000
ff80
ff80
0380
0380
0380
0380
0380
0380
0380
ENDCHAR
STARTCHAR 2830
ENCODING 10288
SWIDTH 960 0
DWIDTH 16 0
BBX 16 16 0 -2
BITMAP
0380
0380
0380
0380
0380
0380
0380
ff80
ff80
0000
0000
0000
0000
0000
0000
0000
ENDCHAR
STARTCHAR 2831
ENCODING 10289
SWIDTH 960 0
DWIDTH 16 0
BBX 16 16 0 -2
BITMAP
0380
0380
0380
0380
0380
0380
0380
03ff
03ff
0000
0000
0000
0000
0000
0000
0000
ENDCHAR
STARTCHAR 2832
ENCODING 10290
SWIDTH 960 0
DWIDTH 16 0
BBX 16 16 0 -2
BITMAP
0380
0380
0380
0380
0380
0380
0380
03ff
03ff
0380
0380
0380
0380
0380
0380
0380
ENDCHAR
STARTCHAR 2833
ENCODING 10291
SWIDTH 960 0
DWIDTH 16 0
BBX 16 16 0 -2
BITMAP
0000
0000
0000
0000
0000
0000
0000
ffff
ffff
0380
0380
0380
0380
0380
0380
0380
ENDCHAR
STARTCHAR 2834
ENCODING 10292
SWIDTH 960 0
DWIDTH 16 0
BBX 16 16 0 -2
BITMAP
0380
0380
0380
0380
0380
0380
0380
ff80
ff80
0380
0380
0380
0380
0380
0380
0380
ENDCHAR
STARTCHAR 2835
ENCODING 10293
SWIDTH 960 0
DWIDTH 16 0
BBX 16 16 0 -2
BITMAP
0380
0380
0380
0380
0380
0380
0380
ffff
ffff
0000
0000
0000
0000
0000
0000
0000
ENDCHAR
STARTCHAR 2836
ENCODING 10294
SWIDTH 960 0
DWIDTH 16 0
BBX 16 16 0 -2
BITMAP
0380
0380
0380
0380
0380
0380
0380
ffff
ffff
0380
0380
0380
0380
0380
0380
0380
ENDCHAR
STARTCHAR 2837
ENCODING 10295
SWIDTH 960 0
DWIDTH 16 0
BBX 16 16 0 -2
BITMAP
0380
0380
0380
0380
0380
0380
0380
03ff
0380
0380
0380
0380
0380
0380
0380
0380
ENDCHAR
STARTCHAR 2838
ENCODING 10296
SWIDTH 960 0
DWIDTH 16 0
BBX 16 16 0 -2
BITMAP
0000
0000
0000
0000
0000
0000
0000
ffff
ffff
0300
0300
0300
0300
0300
0300
0300
ENDCHAR
STARTCHAR 2839
ENCODING 10297
SWIDTH 960 0
DWIDTH 16 0
BBX 16 16 0 -2
BITMAP
0380
0380
0380
0380
0380
0380
0380
ff80
0380
0380
0380
0380
0380
0380
0380
0380
ENDCHAR
STARTCHAR 283a
ENCODING 10298
SWIDTH 960 0
DWIDTH 16 0
BBX 16 16 0 -2
BITMAP
0300
0300
0300
0300
0300
0300
0300
ffff
ffff
0000
0000
0000
0000
0000
0000
0000
ENDCHAR
STARTCHAR 283b
ENCODING 10299
SWIDTH 960 0
DWIDTH 16 0
BBX 16 16 0 -2
BITMAP
0300
0300
0300
0300
0300
0300
0300
ffff
ffff
0300
0300
0300
0300
0300
0300
0300
ENDCHAR
STARTCHAR 283c
ENCODING 10300
SWIDTH 960 0
DWIDTH 16 0
BBX 16 16 0 -2
BITMAP
0300
0300
0300
0300
0300
0300
0300
03ff
03ff
0300
0300
0300
0300
0300
0300
0300
ENDCHAR
STARTCHAR 283d
ENCODING 10301
SWIDTH 960 0
DWIDTH 16 0
BBX 16 16 0 -2
BITMAP
0000
0000
0000
0000
0000
0000
0000
ffff
0380
0380
0380
0380
0380
0380
0380
0380
ENDCHAR
STARTCHAR 283e
ENCODING 10302
SWIDTH 960 0
DWIDTH 16 0
BBX 16 16 0 -2
BITMAP
0300
0300
0300
0300
0300
0300
0300
ff00
ff00
0300
0300
0300
0300
0300
0300
0300
ENDCHAR
STARTCHAR 283f
ENCODING 10303
SWIDTH 960 0
DWIDTH 16 0
BBX 16 16 0 -2
BITMAP
0380
0380
0380
0380
0380
0380
0380
ffff
0000
0000
0000
0000
0000
0000
0000
0000
ENDCHAR
STARTCHAR 2840
ENCODING 10304
SWIDTH 960 0
DWIDTH 16 0
BBX 16 16 0 -2
BITMAP
0380
0380
0380
0380
0380
0380
0380
ffff
0380
0380
0380
0380
0380
0380
0380
0380
ENDCHAR
STARTCHAR 3021
ENCODING 12321
SWIDTH 960 0
DWIDTH 16 0
BBX 16 16 0 -2
BITMAP
0000
7fff
0660
0660
0660
3ffc
366c
366c
366c
366c
3ffc
0660
0660
0660
ffff
0000
ENDCHAR
STARTCHAR 3022
ENCODING 12322
SWIDTH 960 0
DWIDTH 16 0
BBX 16 16 0 -2
BITMAP
0000
0fff
f8d8
d8d8
d8d8
dbfe
dada
dada
dada
dbfe
d8d8
f8d8
d8d8
00d8
0fff
0000
ENDCHAR
STARTCHAR 3023
ENCODING 12323
SWIDTH 960 0
DWIDTH 16 0
BBX 16 16 0 -2
BITMAP
1830
1830
1830
19fe
ff30
3630
3630
37ff
6630
fc30
cdfe
0e30
1a30
3030
e3ff
0000
ENDCHAR
STARTCHAR 3024
ENCODING 12324
SWIDTH 960 0
DWIDTH 16 0
BBX 16 16 0 -2
BITMAP
0000
7fff
6c0c
6c0c
6bec
736c
6b6c
6d6c
6d6c
6d6c
6dec
6d6c
780c
600c
601c
600c
ENDCHAR
STARTCHAR 3025
ENCODING 12325
SWIDTH 960 0
DWIDTH 16 0
BBX 16 16 0 -2
BITMAP
0180
0180
ffff
0000
1ff8
1818
1818
1818
1ffa
0386
1e8c
f6d8
0670
07b0
1e1c
7007
ENDCHAR
STARTCHAR 3026
ENCODING 12326
SWIDTH 960 0
DWIDTH 16 0
BBX 16 16 0 -2
BITMAP
007c
3fd8
3318
19b0
fffe
cd86
d4d8
3434
67f6
c606
0fe0
1c60
7740
0380
0ef0
f81e
ENDCHAR
STARTCHAR 3027
ENCODING 12327
SWIDTH 960 0
DWIDTH 16 0
BBX 16 16 0 -2
BITMAP
30c0
30d0
30d8
fd8c
37fa
3186
3180
33fe
3560
3a60
f7ff
30d0
30d0
3198
330c
7606
ENDCHAR
STARTCHAR 3028
ENCODING 12328
SWIDTH 960 0
DWIDTH 16 0
BBX 16 16 0 -2
BITMAP
1830
1830
1868
1868
fecc
3686
3703
36fc
6600
6c00
fdfe
ce86
1a86
3186
e1fe
0186
ENDCHAR
STARTCHAR 3029
ENCODING 12329
SWIDTH 960 0
DWIDTH 16 0
BBX 16 16 0 -2
BITMAP
0180
61fc
3318
36b0
00e0
01d8
0f0f
f860
1bfc
1860
1bfc
1860
1ffe
3460
6760
c1ff
ENDCHAR
STARTCHAR 302a
ENCODING 12330
SWIDTH 960 0
DWIDTH 16 0
BBX 16 16 0 -2
BITMAP
0660
0660
ffff
0660
1f58
6356
366c
1c38
37fc
e187
0180
7ffe
0340
0660
1c38
700e
ENDCHAR
STARTCHAR 302b
ENCODING 12331
SWIDTH 960 0
DWIDTH 16 0
BBX 16 16 0 -2
BITMAP
0c60
0c60
fffe
0c60
0000
fffe
06c0
06c0
7ffc
66cc
66cc
6c7c
680c
700c
7ffc
600c
ENDCHAR
STARTCHAR 302c
ENCODING 12332
SWIDTH 960 0
DWIDTH 16 0
BBX 16 16 0 -2
BITMAP
06c0
1cf8
79b0
1bfc
1aac
19fc
ffac
1dfc
3a60
3bfe
6b66
6bfe
db66
1bfe
1863
183f
ENDCHAR
STARTCHAR 302d
ENCODING 12333
SWIDTH 960 0
DWIDTH 16 0
BBX 16 16 0 -2
BITMAP
0000
7ffe
06c0
06c0
3ff8
36d8
36d8
3ff8
06c0
fffe
0180
36d8
36cc
6636
c636
03f0
ENDCHAR
STARTCHAR 302e
ENCODING 12334
SWIDTH 960 0
DWIDTH 16 0
BBX 16 16 0 -2
BITMAP
3000
37fe
3606
3606
fffe
3600
37fe
3668
36cc
3bfa
f666
35fc
3460
3860
37ff
7000
ENDCHAR
STARTCHAR 302f
ENCODING 12335
SWIDTH 960 0
DWIDTH 16 0
BBX 16 16 0 -2
BITMAP
3000
37fe
1a06
da06
c7fe
6600
67fe
0668
1acc
1bfa
3666
35fc
6c60
6860
d7ff
c000
ENDCHAR
STARTCHAR 3030
ENCODING 12336
SWIDTH 960 0
DWIDTH 16 0
BBX 16 16 0 -2
BITMAP
1800
18fc
18cc
18cc
ff4c
1b4c
1b7c
1b4c
1b4c
1b4c
1b4c
1b7c
334c
3303
6183
c0ff
ENDCHAR
STARTCHAR 3031
ENCODING 12337
SWIDTH 960 0
DWIDTH 16 0
BBX 16 16 0 -2
BITMAP
0630
ffff
0630
0300
1ff8
0618
ffff
0000
0ff8
0c18
0ff8
00c0
1ffc
18c0
ffff
00c0
ENDCHAR
STARTCHAR 3032
ENCODING 12338
SWIDTH 960 0
DWIDTH 16 0
BBX 16 16 0 -2
BITMAP
0630
0630
ffff
0630
0000
7ffe
0000
1ffc
180c
180c
1ffc
180c
3000
3000
6000
c000
ENDCHAR
STARTCHAR 3033
ENCODING 12339
SWIDTH 960 0
DWIDTH 16 0
BBX 16 16 0 -2
BITMAP
1830
1e38
366c
6dfa
ff30
6bff
6b68
7f5c
6bb7
6b6c
7f18
0d76
76cc
6a18
6870
c1c0
ENDCHAR
STARTCHAR 3034
ENCODING 12340
SWIDTH 960 0
DWIDTH 16 0
BBX 16 16 0 -2
BITMAP
1860
1860
1bfe
fe18
1998
18d8
3cd0
3bff
3a60
6860
6860
dbfe
1860
1860
1860
1860
ENDCHAR
STARTCHAR 3035
ENCODING 12341
SWIDTH 960 0
DWIDTH 16 0
BBX 16 16 0 -2
BITMAP
0000
3ffe
3000
30c0
30c0
30c0
30c0
37fe
30c0
30c0
30c0
60c0
60c0
dfff
0000
0000
ENDCHAR
STARTCHAR 3036
ENCODING 12342
SWIDTH 960 0
DWIDTH 16 0
BBX 16 16 0 -2
BITMAP
1830
1830
ff68
1868
7ecc
66da
676b
7e68
6698
66d8
7ed8
181f
ff78
1bd8
1818
1818
ENDCHAR
STARTCHAR 3037
ENCODING 12343
SWIDTH 960 0
DWIDTH 16 0
BBX 16 16 0 -2
BITMAP
3000
37f8
3198
3198
feb0
31b0
31bc
31cc
334c
3d6c
f368
3330
3638
366c
75c6
3b03
ENDCHAR
STARTCHAR 3038
ENCODING 12344
SWIDTH 960 0
DWIDTH 16 0
BBX 16 16 0 -2
BITMAP
0180
0180
7ffe
680c
6800
d800
1f7c
334c
36cc
6acc
cecc
0cd8
0cc0
18c6
30c6
e07e
ENDCHAR
STARTCHAR 3039
ENCODING 12345
SWIDTH 960 0
DWIDTH 16 0
BBX 16 16 0 -2
BITMAP
1800
19fc
198c
198c
ff8c
36fc
368c
368c
668c
6d8c
fdfc
0e8c
1a8c
318c
efff
0000
ENDCHAR
STARTCHAR 303a
ENCODING 12346
SWIDTH 960 0
DWIDTH 16 0
BBX 16 16 0 -2
BITMAP
1818
1818
1818
7f18
6bff
6b60
6b60
6b60
7f60
1860
1860
1a60
1b60
1f60
f9be
0180
ENDCHAR
STARTCHAR 303b
ENCODING 12347
SWIDTH 960 0
DWIDTH 16 0
BBX 16 16 0 -2
BITMAP
1860
1860
3460
36d8
6b4c
fe9e
67f6
7e06
6600
66fc
7ecc
6ccc
66cc
6ecc
7b7c
e0cc
ENDCHAR
STARTCHAR 303c
ENCODING 12348
SWIDTH 960 0
DWIDTH 16 0
BBX 16 16 0 -2
BITMAP
18c0
18c0
1ac0
f6fe
3686
1986
1b7a
36da
ff7a
1b5a
68da
6afa
6b5a
6b06
d80c
1838
ENDCHAR
STARTCHAR 303d
ENCODING 12349
SWIDTH 960 0
DWIDTH 16 0
BBX 16 16 0 -2
BITMAP
1860
1860
1bfc
f660
37ff
18d0
1ad6
369e
ff40
1afc
6d98
6b50
6a60
6ad0
db9c
1a07
ENDCHAR
STARTCHAR 303e
ENCODING 12350
SWIDTH 960 0
DWIDTH 16 0
BBX 16 16 0 -2
BITMAP
1830
1e30
3630
6c30
ff3f
6b30
6b30
7f30
6b30
6b7e
7f46
06c6
3546
6ac6
6afe
c0c6
ENDCHAR
STARTCHAR 303f
ENCODING 12351
SWIDTH 960 0
DWIDTH 16 0
BBX 16 16 0 -2
BITMAP
00d8
00cc
00cc
ffff
00c0
00cc
3f4c
334c
3368
3368
3f68
31b6
0776
1cda
f38e
0e06
ENDCHAR
STARTCHAR 3040
ENCODING 12352
SWIDTH 960 0
DWIDTH 16 0
BBX 16 16 0 -2
BITMAP
0000
ffff
0660
3ffc
366c
366c
3ffc
1998
0d98
06b0
ffff
03c0
06a0
1db8
f18e
0180
ENDCHAR
STARTCHAR 3041
ENCODING 12353
SWIDTH 960 0
DWIDTH 16 0
BBX 16 16 0 -2
BITMAP
1830
1830
1870
fe68
06d8
0ccc
0d8c
1afa
3b03
6c00
dafc
1b8c
198c
198c
19fc
198c
ENDCHAR
STARTCHAR 3042
ENCODING 12354
SWIDTH 960 0
DWIDTH 16 0
BBX 16 16 0 -2
BITMAP
0300
0300
7ffe
660c
c600
0600
0600
fffe
0cc0
0cc0
18c0
1ec0
0380
06e0
1c30
7018
ENDCHAR
STARTCHAR 3043
ENCODING 12355
SWIDTH 960 0
DWIDTH 16 0
BBX 16 16 0 -2
BITMAP
0180
0180
3ffe
30c0
3ffe
31a0
3330
37fc
3edb
36d8
37f8
36d8
66d8
67fa
c6c6
007e
ENDCHAR
STARTCHAR 3044
ENCODING 12356
SWIDTH 960 0
DWIDTH 16 0
BBX 16 16 0 -2
BITMAP
30c0
30c0
37fe
360c
fcc0
30c0
30c0
37ff
3d98
f198
3330
37d0
3060
30d0
7398
360c
ENDCHAR
STARTCHAR 3045
ENCODING 12357
SWIDTH 960 0
DWIDTH 16 0
BBX 16 16 0 -2
BITMAP
0060
0060
fffe
cd98
ccd8
ccd0
cfff
fc00
cdfc
cd8c
cd8c
cdfc
fd8c
cd8c
01fc
018c
ENDCHAR
STARTCHAR 3046
ENCODING 12358
SWIDTH 960 0
DWIDTH 16 0
BBX 16 16 0 -2
BITMAP
0180
0180
7ffe
630c
dff8
0660
1e60
03c0
0e78
398c
ffff
03c0
06a0
1db8
f18e
0180
ENDCHAR
STARTCHAR 3047
ENCODING 12359
SWIDTH 960 0
DWIDTH 16 0
BBX 16 16 0 -2
BITMAP
0000
fefe
c6c6
fefe
c6c6
c6c6
fefe
c306
dff6
c6c6
dffa
cc66
cfe6
cc66
cfe6
c00e
ENDCHAR
STARTCHAR 3048
ENCODING 12360
SWIDTH 960 0
DWIDTH 16 0
BBX 16 16 0 -2
BITMAP
3630
3630
ffff
36c6
36a0
3e60
1860
7fff
6b6c
6b6c
7f4c
18e8
ffb8
186c
18c6
1b86
ENDCHAR
STARTCHAR 3049
ENCODING 12361
SWIDTH 960 0
DWIDTH 16 0
BBX 16 16 0 -2
BITMAP
0180
0180
0180
ffff
03c0
06a0
0db0
399c
e187
1ff8
1818
1818
1818
1818
1ff8
1818
ENDCHAR
STARTCHAR 304a
ENCODING 12362
SWIDTH 960 0
DWIDTH 16 0
BBX 16 16 0 -2
BITMAP
0000
3018
3018
3018
3618
3318
3198
3198
3018
3018
3038
3334
3666
38c6
e183
0703
ENDCHAR
STARTCHAR 304b
ENCODING 12363
SWIDTH 960 0
DWIDTH 16 0
BBX 16 16 0 -2
BITMAP
0c00
0dfc
0c6c
186c
186c
3fff
386c
686c
d86c
1bfc
186c
1860
18c0
18c0
1980
1b00
ENDCHAR
STARTCHAR 304c
ENCODING 12364
SWIDTH 960 0
DWIDTH 16 0
BBX 16 16 0 -2
BITMAP
0c60
0c60
0c60
1860
1bfe
380c
380c
6b0c
d998
1998
1998
19b0
19b0
1860
1fff
1800
ENDCHAR
STARTCHAR 304d
ENCODING 12365
SWIDTH 960 0
DWIDTH 16 0
BBX 16 16 0 -2
BITMAP
0c60
0c60
0c60
1fff
19c0
31a6
31a6
736c
d76c
3538
3b30
3318
3318
336c
3386
3603
ENDCHAR
STARTCHAR 304e
ENCODING 12366
SWIDTH 960 0
DWIDTH 16 0
BBX 16 16 0 -2
BITMAP
0c60
0dfc
0ccc
18cc
1fff
3000
33fc
730c
d3fc
3030
33fe
3330
3330
37ff
3030
3030
ENDCHAR
STARTCHAR 304f
ENCODING 12367
SWIDTH 960 0
DWIDTH 16 0
BBX 16 16 0 -2
BITMAP
0000
7ffe
6006
6666
6666
6ffa
6666
6666
6666
7ffe
6666
6666
6c66
6866
7ffe
6006
ENDCHAR
STARTCHAR 3050
ENCODING 12368
SWIDTH 960 0
DWIDTH 16 0
BBX 16 16 0 -2
BITMAP
0180
0180
ffff
0180
7ffc
018c
3ffc
3180
3180
3ffe
3346
0346
066c
0c30
381c
e007
ENDCHAR
STARTCHAR 3051
ENCODING 12369
SWIDTH 960 0
DWIDTH 16 0
BBX 16 16 0 -2
BITMAP
0038
3fe0
0180
ffff
03c0
06a0
1db8
f18f
0300
ffff
0630
0630
0fa0
18c0
03b0
7e1c
ENDCHAR
STARTCHAR 3052
ENCODING 12370
SWIDTH 960 0
DWIDTH 16 0
BBX 16 16 0 -2
BITMAP
0068
006c
006c
3fff
3060
3fa0
3666
3666
3fd4
35b4
35b8
3f18
33ba
66ae
6cc6
c186
ENDCHAR
STARTCHAR 3053
ENCODING 12371
SWIDTH 960 0
DWIDTH 16 0
BBX 16 16 0 -2
BITMAP
000c
7f8c
618c
618c
7f8c
60ff
6f0c
600c
606c
7fb4
6634
6b0c
6a8c
6a8c
d60c
0e1c
ENDCHAR
STARTCHAR 3054
ENCODING 12372
SWIDTH 960 0
DWIDTH 16 0
BBX 16 16 0 -2
BITMAP
18c0
18d8
18d8
19b0
1dfe
6ab0
6bb0
69fe
d9b0
19b0
19fe
19b0
19b0
19b0
19ff
1980
ENDCHAR
STARTCHAR 3055
ENCODING 12373
SWIDTH 960 0
DWIDTH 16 0
BBX 16 16 0 -2
BITMAP
0180
7ffe
0c30
0660
ffff
0000
0ff8
0c18
0ff8
0c18
0ff8
3680
36c6
66db
c61b
03f8
ENDCHAR
STARTCHAR 3056
ENCODING 12374
SWIDTH 960 0
DWIDTH 16 0
BBX 16 16 0 -2
BITMAP
000c
7f8c
618c
7f8c
60ff
6f0c
606c
7fb4
6634
6a8c
d68c
0d1c
3580
35b6
6c33
c7f3
ENDCHAR
STARTCHAR 3057
ENCODING 12375
SWIDTH 960 0
DWIDTH 16 0
BBX 16 16 0 -2
BITMAP
0000
1ff0
1830
1830
1ff0
1830
1830
1ff0
0600
0ffc
39b4
e334
0e6c
38cc
0398
0070
ENDCHAR
STARTCHAR 3058
ENCODING 12376
SWIDTH 960 0
DWIDTH 16 0
BBX 16 16 0 -2
BITMAP
1860
1860
1bfe
fe60
18d0
18d8
3d8c
3bff
3a0c
6bec
6b6c
db6c
1bec
1b6c
180c
181c
ENDCHAR
STARTCHAR 3059
ENCODING 12377
SWIDTH 960 0
DWIDTH 16 0
BBX 16 16 0 -2
BITMAP
3180
1980
1980
7ff8
0318
0330
07fc
060c
0c0c
1fff
1803
35b3
76db
db6b
1b63
180e
ENDCHAR
STARTCHAR 305a
ENCODING 12378
SWIDTH 960 0
DWIDTH 16 0
BBX 16 16 0 -2
BITMAP
0000
3ff8
3198
3198
3ff8
3198
3198
3ff8
0000
ffff
1b0c
1998
18d0
1b60
1c38
700f
ENDCHAR
STARTCHAR 305b
ENCODING 12379
SWIDTH 960 0
DWIDTH 16 0
BBX 16 16 0 -2
BITMAP
0000
3ffc
318c
318c
3ffc
318c
318c
3ffc
0660
3ffc
0660
0660
ffff
0670
1c1c
7006
ENDCHAR
STARTCHAR 305c
ENCODING 12380
SWIDTH 960 0
DWIDTH 16 0
BBX 16 16 0 -2
BITMAP
0360
0e7e
78cc
198c
1b68
fe30
1860
19d8
3c1f
3a33
6b66
69da
d80c
1818
1870
1bc0
ENDCHAR
STARTCHAR 305d
ENCODING 12381
SWIDTH 960 0
DWIDTH 16 0
BBX 16 16 0 -2
BITMAP
1860
186c
1a6c
f6d8
34ff
19d8
1b58
36fe
ff58
1b58
6cfe
6ad8
6b58
6b58
d8ff
18c0
ENDCHAR
STARTCHAR 305e
ENCODING 12382
SWIDTH 960 0
DWIDTH 16 0
BBX 16 16 0 -2
BITMAP
1830
19fc
1a6c
f66c
37ff
1800
1afe
36c6
ff7e
1b18
6cfe
6ad8
6ad8
6bff
d818
1818
ENDCHAR
STARTCHAR 305f
ENCODING 12383
SWIDTH 960 0
DWIDTH 16 0
BBX 16 16 0 -2
BITMAP
0000
7ffc
630c
630c
7ffc
630c
7ffc
0000
3ff8
3018
3ff8
3018
3ff8
3018
3018
3038
ENDCHAR
STARTCHAR 3060
ENCODING 12384
SWIDTH 960 0
DWIDTH 16 0
BBX 16 16 0 -2
BITMAP
0630
ffff
0630
0078
3fc0
0180
ffff
06a0
1db8
718e
ffff
0660
0c60
3fc0
0770
7c1c
ENDCHAR
STARTCHAR 3061
ENCODING 12385
SWIDTH 960 0
DWIDTH 16 0
BBX 16 16 0 -2
BITMAP
0180
0180
0180
0180
ffff
0380
068c
06cc
0cd8
3c70
ec60
0c30
0c18
0dcc
1e06
7003
ENDCHAR
STARTCHAR 3062
ENCODING 12386
SWIDTH 960 0
DWIDTH 16 0
BBX 16 16 0 -2
BITMAP
0000
7efe
01b6
fffe
01b6
7eb6
01fe
0000
7efe
00c6
7efe
66c6
66fe
66c6
7ec6
66ce
ENDCHAR
STARTCHAR 3063
ENCODING 12387
SWIDTH 960 0
DWIDTH 16 0
BBX 16 16 0 -2
BITMAP
0060
67fc
30cc
30cc
0fff
0000
03fc
fb0c
1bfc
1830
1bfe
1b30
1fff
3430
6730
c1ff
ENDCHAR
STARTCHAR 3064
ENCODING 12388
SWIDTH 960 0
DWIDTH 16 0
BBX 16 16 0 -2
BITMAP
0060
63f8
3368
33f8
0060
0ffe
0000
fbf8
1b18
1bf8
1b18
1bf8
1d18
35f8
670c
c1ff
ENDCHAR
STARTCHAR 3065
ENCODING 12389
SWIDTH 960 0
DWIDTH 16 0
BBX 16 16 0 -2
BITMAP
0000
7ffe
6300
6300
67fc
6cc0
68c0
7ffe
61a0
61b0
6318
660c
6c0c
6800
7ffe
6000
ENDCHAR
STARTCHAR 3066
ENCODING 12390
SWIDTH 960 0
DWIDTH 16 0
BBX 16 16 0 -2
BITMAP
0c60
0c60
0c60
0c60
7ffc
0c60
0c60
0c60
0c60
fffe
0c60
0c60
0c60
1860
1860
3060
ENDCHAR
STARTCHAR 3067
ENCODING 12391
SWIDTH 960 0
DWIDTH 16 0
BBX 16 16 0 -2
BITMAP
0180
0180
0180
ffff
0300
0330
3a60
0cc0
0698
0330
0e60
38e0
01b0
0718
1c0c
f00c
ENDCHAR
STARTCHAR 3068
ENCODING 12392
SWIDTH 960 0
DWIDTH 16 0
BBX 16 16 0 -2
BITMAP
3030
3034
3036
37ff
3030
ffd6
36d6
36d6
36d4
37dc
36dc
3668
39dd
e735
1c67
00c3
ENDCHAR
STARTCHAR 3069
ENCODING 12393
SWIDTH 960 0
DWIDTH 16 0
BBX 16 16 0 -2
BITMAP
0180
0180
ffff
0660
0c38
1fec
f006
1ff8
1818
1818
1ff8
1818
1ff8
1818
1838
1818
ENDCHAR
STARTCHAR 306a
ENCODING 12394
SWIDTH 960 0
DWIDTH 16 0
BBX 16 16 0 -2
BITMAP
0c00
0c3e
fff6
0c36
1834
1fb8
39b4
39b6
6fb3
d9b3
19b3
1fbb
19b6
19b0
1bb0
19b0
ENDCHAR
STARTCHAR 306b
ENCODING 12395
SWIDTH 960 0
DWIDTH 16 0
BBX 16 16 0 -2
BITMAP
01ac
feac
3778
31ac
31aa
337d
6fec
7c66
6fff
edb4
6db4
6dd8
7d6b
6d35
6667
1cc3
ENDCHAR
STARTCHAR 306c
ENCODING 12396
SWIDTH 960 0
DWIDTH 16 0
BBX 16 16 0 -2
BITMAP
0000
0000
0000
0000
0000
0000
0006
ffff
0000
0000
0000
0000
0000
0000
0000
0000
ENDCHAR
STARTCHAR 306d
ENCODING 12397
SWIDTH 960 0
DWIDTH 16 0
BBX 16 16 0 -2
BITMAP
0300
0300
fffe
0300
0300
3ff8
0000
7ffe
600c
d860
19c0
1f00
1800
1818
0c18
07f8
ENDCHAR
STARTCHAR 306e
ENCODING 12398
SWIDTH 960 0
DWIDTH 16 0
BBX 16 16 0 -2
BITMAP
360c
1b18
1b18
1fff
c1b0
6318
6318
060c
0c06
3bfd
36ac
36ac
66ac
66ac
dfff
c000
ENDCHAR
STARTCHAR 306f
ENCODING 12399
SWIDTH 960 0
DWIDTH 16 0
BBX 16 16 0 -2
BITMAP
00c0
60f8
3198
3330
0ffc
036c
036c
fb6c
1bfc
18d0
18d0
19b3
3533
361f
6380
c0ff
ENDCHAR
STARTCHAR 3070
ENCODING 12400
SWIDTH 960 0
DWIDTH 16 0
BBX 16 16 0 -2
BITMAP
060c
1c38
79e0
1806
19a6
ff54
18d4
1818
3dbe
3aa6
6aa6
69be
d9a6
19a6
19be
19a6
ENDCHAR
STARTCHAR 3071
ENCODING 12401
SWIDTH 960 0
DWIDTH 16 0
BBX 16 16 0 -2
BITMAP
0630
0630
ffff
0630
06b0
3180
19fe
19a6
036c
0360
1a70
1868
30d8
618c
c706
1c03
ENDCHAR
STARTCHAR 3072
ENCODING 12402
SWIDTH 960 0
DWIDTH 16 0
BBX 16 16 0 -2
BITMAP
0630
0630
ffff
0630
0630
0000
3ffc
0180
0180
ffff
0180
0180
0180
0180
0780
0180
ENDCHAR
STARTCHAR 3073
ENCODING 12403
SWIDTH 960 0
DWIDTH 16 0
BBX 16 16 0 -2
BITMAP
1800
1ffe
3666
6c66
feee
6a98
6a98
7eee
6a76
6aaa
7eaa
06ee
75aa
6b76
6a66
c1dc
ENDCHAR
STARTCHAR 3074
ENCODING 12404
SWIDTH 960 0
DWIDTH 16 0
BBX 16 16 0 -2
BITMAP
0300
0300
0340
0660
0638
0df4
ff46
06c0
06c0
06c0
0cc0
0cc0
18c0
18c6
3066
603e
ENDCHAR
STARTCHAR 3075
ENCODING 12405
SWIDTH 960 0
DWIDTH 16 0
BBX 16 16 0 -2
BITMAP
0300
0e00
78fe
60c6
60c6
60c6
7f46
60c6
60c6
60c6
7f46
60dc
60c0
00c0
00c0
00c0
ENDCHAR
STARTCHAR 3076
ENCODING 12406
SWIDTH 960 0
DWIDTH 16 0
BBX 16 16 0 -2
BITMAP
0000
07fe
fa66
da66
da66
da66
dbfe
da66
da66
dad6
dad6
fa9a
db0e
0606
07fe
0606
ENDCHAR
STARTCHAR 3077
ENCODING 12407
SWIDTH 960 0
DWIDTH 16 0
BBX 16 16 0 -2
BITMAP
0000
1ff8
1818
1818
1ff8
0000
3ffc
300c
3ffc
300c
3ffc
300c
3ffc
0670
1c1c
7006
ENDCHAR
STARTCHAR 3078
ENCODING 12408
SWIDTH 960 0
DWIDTH 16 0
BBX 16 16 0 -2
BITMAP
0000
7ffe
6006
6186
6186
6186
7ffe
6346
6346
6666
6666
6c36
681a
6006
7ffe
6006
ENDCHAR
STARTCHAR 3079
ENCODING 12409
SWIDTH 960 0
DWIDTH 16 0
BBX 16 16 0 -2
BITMAP
1800
19fe
1986
19b6
feb6
36fe
36b6
36b6
66aa
6daa
fdaa
0ece
1a86
3186
e1fe
0186
ENDCHAR
STARTCHAR 307a
ENCODING 12410
SWIDTH 960 0
DWIDTH 16 0
BBX 16 16 0 -2
BITMAP
000c
ff8c
018c
018c
018c
7f8c
600c
600c
600c
7f8c
618c
018c
018c
018c
030c
1e0c
ENDCHAR
STARTCHAR 307b
ENCODING 12411
SWIDTH 960 0
DWIDTH 16 0
BBX 16 16 0 -2
BITMAP
1860
1860
3460
3a60
6b7f
fed3
66d6
7eb4
6730
6630
7e68
6868
6ccc
6ecc
7a86
e303
ENDCHAR
STARTCHAR 307c
ENCODING 12412
SWIDTH 960 0
DWIDTH 16 0
BBX 16 16 0 -2
BITMAP
300c
1838
1be6
c6c6
636c
6368
001c
03f0
1860
1860
37ff
3060
6060
6060
c7fe
c000
ENDCHAR
STARTCHAR 307d
ENCODING 12413
SWIDTH 960 0
DWIDTH 16 0
BBX 16 16 0 -2
BITMAP
318c
318c
376c
334c
318c
3374
3fec
300c
37ec
366c
37ec
366c
37ec
666d
666d
c6e7
ENDCHAR
STARTCHAR 307e
ENCODING 12414
SWIDTH 960 0
DWIDTH 16 0
BBX 16 16 0 -2
BITMAP
0630
ffff
0630
0660
7c70
6cd8
69f4
7707
69f8
6c30
6dfc
6c00
7bfe
60d8
61b4
63e6
ENDCHAR
STARTCHAR 3121
ENCODING 12577
SWIDTH 960 0
DWIDTH 16 0
BBX 16 16 0 -2
BITMAP
0030
7c30
6dff
6d03
6b03
71fe
6800
6c00
6fff
6cd8
6cd8
74d8
6998
619b
631b
660f
ENDCHAR
STARTCHAR 3122
ENCODING 12578
SWIDTH 960 0
DWIDTH 16 0
BBX 16 16 0 -2
BITMAP
0060
7c60
6cd0
6d98
6b74
7607
6bf8
6c30
6c60
6dfc
6c00
6fff
78d0
6198
6ffc
600c
ENDCHAR
STARTCHAR 3123
ENCODING 12579
SWIDTH 960 0
DWIDTH 16 0
BBX 16 16 0 -2
BITMAP
000e
7c3a
6fe6
6d6c
69b8
73fe
6806
6dfe
6c06
6dfe
6c30
6d5a
7b5b
6343
666d
603c
ENDCHAR
STARTCHAR 3124
ENCODING 12580
SWIDTH 960 0
DWIDTH 16 0
BBX 16 16 0 -2
BITMAP
1800
19fc
ff8c
668c
36fc
3400
fffc
018c
7efc
668c
66fc
7e8c
66fc
66d8
7e8c
6706
ENDCHAR
STARTCHAR 3125
ENCODING 12581
SWIDTH 960 0
DWIDTH 16 0
BBX 16 16 0 -2
BITMAP
0018
0018
fc18
cc18
cfff
cc18
cd18
cd98
ccd8
ccd8
cc18
fc18
cc18
c018
0038
0018
ENDCHAR
STARTCHAR 3126
ENCODING 12582
SWIDTH 960 0
DWIDTH 16 0
BBX 16 16 0 -2
BITMAP
0300
0300
0300
fffe
0600
0600
0600
0c00
0ff8
1c18
3418
6c18
cc18
0c18
0ff8
0c18
ENDCHAR
STARTCHAR 3127
ENCODING 12583
SWIDTH 960 0
DWIDTH 16 0
BBX 16 16 0 -2
BITMAP
0300
0300
7ffe
600c
6000
dff0
0300
0300
0300
fffe
0300
0300
0300
0300
0f00
0300
ENDCHAR
STARTCHAR 3128
ENCODING 12584
SWIDTH 960 0
DWIDTH 16 0
BBX 16 16 0 -2
BITMAP
0180
0300
3ff0
3030
3030
3030
3ff0
3000
3fff
3000
3ffe
0066
6b36
6db6
6d8c
c038
ENDCHAR
STARTCHAR 3129
ENCODING 12585
SWIDTH 960 0
DWIDTH 16 0
BBX 16 16 0 -2
BITMAP
0000
7f7e
0306
0306
3366
1b36
1b36
0306
070e
0d1a
3b76
e3c6
0306
0306
0306
070e
ENDCHAR
STARTCHAR 312a
ENCODING 12586
SWIDTH 960 0
DWIDTH 16 0
BBX 16 16 0 -2
BITMAP
0000
67fc
3060
3060
0060
0060
0ffe
f860
1860
1860
1860
1860
35e0
3660
6380
c0ff
ENDCHAR
STARTCHAR 312b
ENCODING 12587
SWIDTH 960 0
DWIDTH 16 0
BBX 16 16 0 -2
BITMAP
0000
ffff
0180
0180
7ffe
6186
69a6
6db6
6db6
6186
69a6
6db6
6db6
6186
619e
6006
ENDCHAR
STARTCHAR 312c
ENCODING 12588
SWIDTH 960 0
DWIDTH 16 0
BBX 16 16 0 -2
BITMAP
0600
1c00
70fc
66cc
66cc
66cc
66cc
66cc
66cc
66cc
7ecc
e6cc
0cd8
0cc0
18c0
30c0
ENDCHAR
STARTCHAR 312d
ENCODING 12589
SWIDTH 960 0
DWIDTH 16 0
BBX 16 16 0 -2
BITMAP
6630
3660
34fc
ff4c
1b7c
7f4c
68fc
68c0
7f7f
1b40
3b7e
3b56
6eaa
d9aa
1b06
181c
ENDCHAR
STARTCHAR 312e
ENCODING 12590
SWIDTH 960 0
DWIDTH 16 0
BBX 16 16 0 -2
BITMAP
0300
0300
7ffe
66cc
dcfe
7000
19fc
7e8c
19fc
198c
fffc
198c
35fc
366b
61db
c70f
ENDCHAR
STARTCHAR 312f
ENCODING 12591
SWIDTH 960 0
DWIDTH 16 0
BBX 16 16 0 -2
BITMAP
0000
3ff0
0630
0630
0630
0630
0630
fffe
0c30
0c30
0c30
0c30
0c30
0c30
ffff
0000
ENDCHAR
STARTCHAR 3130
ENCODING 12592
SWIDTH 960 0
DWIDTH 16 0
BBX 16 16 0 -2
BITMAP
006c
ff6c
18d8
19ff
1998
3398
3e98
76fe
7698
d698
36fe
3698
3e98
3698
31ff
0180
ENDCHAR
STARTCHAR 3131
ENCODING 12593
SWIDTH 960 0
DWIDTH 16 0
BBX 16 16 0 -2
BITMAP
0180
0700
3cfc
300c
300c
300c
300c
300c
3efc
300c
300c
300c
300c
300c
3ffc
300c
ENDCHAR
STARTCHAR 3132
ENCODING 12594
SWIDTH 960 0
DWIDTH 16 0
BBX 16 16 0 -2
BITMAP
3000
1bf8
1b18
0318
0378
c358
6358
67fe
1a06
1af6
36b6
36b6
66f6
66b6
c606
c60e
ENDCHAR
STARTCHAR 3133
ENCODING 12595
SWIDTH 960 0
DWIDTH 16 0
BBX 16 16 0 -2
BITMAP
0060
007e
f860
dbff
dac6
dafc
dbc0
dac6
da7e
da68
fb6a
cdaa
0dac
1868
37ff
0000
ENDCHAR
STARTCHAR 3134
ENCODING 12596
SWIDTH 960 0
DWIDTH 16 0
BBX 16 16 0 -2
BITMAP
0000
00fe
7ec6
66c6
66c6
66fe
66c6
66c6
66fe
66c6
66c6
7ec6
66fe
006c
01c6
0703
ENDCHAR
STARTCHAR 3135
ENCODING 12597
SWIDTH 960 0
DWIDTH 16 0
BBX 16 16 0 -2
BITMAP
36d8
fdbf
36dc
7bba
d6eb
7ffc
6ccc
7ffc
3e18
36ff
3e18
3698
3ed8
3418
3a18
e338
ENDCHAR
STARTCHAR 3136
ENCODING 12598
SWIDTH 960 0
DWIDTH 16 0
BBX 16 16 0 -2
BITMAP
0c60
0c60
ffff
0c60
000c
7f8c
618c
7fff
600c
6f4c
606c
7fac
6b0c
6a8c
d69c
0e0c
ENDCHAR
STARTCHAR 3137
ENCODING 12599
SWIDTH 960 0
DWIDTH 16 0
BBX 16 16 0 -2
BITMAP
1800
1efc
36cc
6cfc
ff4c
6b7c
6b00
7ffe
6baa
6bfe
7f00
0dfc
76d8
6a70
68ec
c387
ENDCHAR
STARTCHAR 3138
ENCODING 12600
SWIDTH 960 0
DWIDTH 16 0
BBX 16 16 0 -2
BITMAP
1860
186c
1bfc
1868
fe68
3670
37ff
3660
66c0
6dcc
fd58
cee0
1ac0
30c6
e0c6
007e
ENDCHAR
STARTCHAR 3139
ENCODING 12601
SWIDTH 960 0
DWIDTH 16 0
BBX 16 16 0 -2
BITMAP
0000
3fff
3000
37be
35a8
35a8
37a8
35a8
35ff
3798
3438
3538
6da8
6dab
cedb
398f
ENDCHAR
STARTCHAR 313a
ENCODING 12602
SWIDTH 960 0
DWIDTH 16 0
BBX 16 16 0 -2
BITMAP
306c
1866
1fff
0060
c060
67fe
6666
0666
1bfe
1a66
3666
37fe
6666
6666
c66e
c666
ENDCHAR
STARTCHAR 313b
ENCODING 12603
SWIDTH 960 0
DWIDTH 16 0
BBX 16 16 0 -2
BITMAP
0018
00f0
3f80
3030
3330
3330
3330
3330
3330
3318
3358
3368
3368
63f4
6e34
c036
ENDCHAR
STARTCHAR 313c
ENCODING 12604
SWIDTH 960 0
DWIDTH 16 0
BBX 16 16 0 -2
BITMAP
0000
fefe
c6c6
fefe
c6c6
fefe
c006
dff6
c306
c306
cfe6
c306
c306
dffa
c00e
c006
ENDCHAR
STARTCHAR 313d
ENCODING 12605
SWIDTH 960 0
DWIDTH 16 0
BBX 16 16 0 -2
BITMAP
0318
01b0
ffff
d9a0
dbfc
daac
db3c
dbfc
da0c
dbfc
f830
dfff
0630
0330
0330
0070
ENDCHAR
STARTCHAR 313e
ENCODING 12606
SWIDTH 960 0
DWIDTH 16 0
BBX 16 16 0 -2
BITMAP
0000
0000
3ff8
0000
0000
0000
fffe
0300
0300
0660
0630
0c18
19f8
ff0c
000c
000c
ENDCHAR
STARTCHAR 313f
ENCODING 12607
SWIDTH 960 0
DWIDTH 16 0
BBX 16 16 0 -2
BITMAP
0000
67ff
3666
3460
07fe
0060
07fc
fa6c
1bfc
1a6c
1bfc
1860
37fe
3660
6380
c0ff
ENDCHAR
STARTCHAR 3140
ENCODING 12608
SWIDTH 960 0
DWIDTH 16 0
BBX 16 16 0 -2
BITMAP
0000
7ffc
0180
7ffe
6186
7ebc
c180
3ebc
0000
3ff8
0000
fffe
06c0
0c70
7fd8
000c
ENDCHAR
STARTCHAR 3141
ENCODING 12609
SWIDTH 960 0
DWIDTH 16 0
BBX 16 16 0 -2
BITMAP
0660
0660
ffff
0660
0660
0c0c
0c38
1bf0
1830
3830
6bff
d830
1830
1830
1bfe
1800
ENDCHAR
STARTCHAR 3142
ENCODING 12610
SWIDTH 960 0
DWIDTH 16 0
BBX 16 16 0 -2
BITMAP
1800
1bff
34cc
36cc
6b4c
fefc
66cc
7ecc
66fc
66cc
7ecc
6ccf
66fc
6ecc
7b0c
e30c
ENDCHAR
STARTCHAR 3143
ENCODING 12611
SWIDTH 960 0
DWIDTH 16 0
BBX 16 16 0 -2
BITMAP
1800
1f7c
180c
ffac
c1ac
7f6c
0d6c
6dac
da34
3fb8
7358
df38
3334
3f6c
33c6
3f03
ENDCHAR
STARTCHAR 3144
ENCODING 12612
SWIDTH 960 0
DWIDTH 16 0
BBX 16 16 0 -2
BITMAP
3618
1b18
1b30
7ffe
600c
dff0
1830
1830
1ff0
0300
0600
3ff8
3018
3018
3ff8
3018
ENDCHAR
STARTCHAR 3145
ENCODING 12613
SWIDTH 960 0
DWIDTH 16 0
BBX 16 16 0 -2
BITMAP
0000
7efc
66cc
7efc
66cc
7efc
66cc
7efc
376c
6346
ffff
0660
0cc0
1fc0
0760
7c38
ENDCHAR
STARTCHAR 3146
ENCODING 12614
SWIDTH 960 0
DWIDTH 16 0
BBX 16 16 0 -2
BITMAP
000c
3f8c
3198
3f98
31b6
3fa6
0c0c
ffcc
001b
3fb3
3186
3f86
0c0c
6d8c
ccd8
1c30
ENDCHAR
STARTCHAR 3147
ENCODING 12615
SWIDTH 960 0
DWIDTH 16 0
BBX 16 16 0 -2
BITMAP
0060
0060
f860
dbfc
db6c
db6c
fb6c
db6c
dfff
d860
d8d0
f8d0
d998
030c
0606
1c03
ENDCHAR
STARTCHAR 3148
ENCODING 12616
SWIDTH 960 0
DWIDTH 16 0
BBX 16 16 0 -2
BITMAP
0300
0300
3ff8
3318
3318
3ff8
3318
3318
3ffc
3318
0330
01e0
0386
1ec6
f076
001e
ENDCHAR
STARTCHAR 3149
ENCODING 12617
SWIDTH 960 0
DWIDTH 16 0
BBX 16 16 0 -2
BITMAP
6618
3318
19b0
19a0
7ffe
600c
c300
0300
fffe
0780
0d40
1b60
3338
e30e
0300
0300
ENDCHAR
STARTCHAR 314a
ENCODING 12618
SWIDTH 960 0
DWIDTH 16 0
BBX 16 16 0 -2
BITMAP
0700
0180
00c0
0f80
018c
018c
7ed8
06d0
06a0
0da0
0db0
1998
318c
e187
0780
0180
ENDCHAR
STARTCHAR 314b
ENCODING 12619
SWIDTH 960 0
DWIDTH 16 0
BBX 16 16 0 -2
BITMAP
31c0
1860
1830
0000
c3e6
6066
606c
0fb4
01b8
01b0
3368
3368
666c
6c66
d9e3
c060
ENDCHAR
STARTCHAR 314c
ENCODING 12620
SWIDTH 960 0
DWIDTH 16 0
BBX 16 16 0 -2
BITMAP
30c0
18c0
1bfc
1acc
c6cc
67fc
66cc
66cc
1bfe
18cc
30d8
3070
6060
61d3
df1d
c007
ENDCHAR
STARTCHAR 314d
ENCODING 12621
SWIDTH 960 0
DWIDTH 16 0
BBX 16 16 0 -2
BITMAP
0198
0198
ffff
3198
31a8
3060
33fc
fd6c
336c
336c
37ff
3070
3cd8
f18c
0706
1c03
ENDCHAR
STARTCHAR 314e
ENCODING 12622
SWIDTH 960 0
DWIDTH 16 0
BBX 16 16 0 -2
BITMAP
0000
7ff8
0c18
0c18
0fee
1a66
1b46
3186
675c
dc70
3ffc
366c
366c
366c
ffff
0000
ENDCHAR
STARTCHAR 314f
ENCODING 12623
SWIDTH 960 0
DWIDTH 16 0
BBX 16 16 0 -2
BITMAP
6000
66ff
7c30
6060
637e
3f46
00c6
077e
7cc6
0cfe
ffc6
1ec6
357e
6dac
ccc6
0d83
ENDCHAR
STARTCHAR 3150
ENCODING 12624
SWIDTH 960 0
DWIDTH 16 0
BBX 16 16 0 -2
BITMAP
6000
66ff
7c30
6060
637e
3f46
00c6
3efe
00c6
fffe
0cc6
36c6
357e
6d6c
ccc6
1d83
ENDCHAR
STARTCHAR 3151
ENCODING 12625
SWIDTH 960 0
DWIDTH 16 0
BBX 16 16 0 -2
BITMAP
0c30
0c30
ffff
0c30
0db0
0180
3ffc
318c
318c
318c
ffff
0340
0660
0c30
381c
e007
ENDCHAR
STARTCHAR 3152
ENCODING 12626
SWIDTH 960 0
DWIDTH 16 0
BBX 16 16 0 -2
BITMAP
1b00
1bee
3360
3360
6ff0
cc00
1bff
1a6c
37ec
70cc
d7f4
334c
334c
37f4
30dc
30cc
ENDCHAR
STARTCHAR 3153
ENCODING 12627
SWIDTH 960 0
DWIDTH 16 0
BBX 16 16 0 -2
BITMAP
00c0
7c60
0030
fe06
01e6
7c66
0074
07f4
7ce8
00e8
7dac
6dac
6d66
6e63
7ce0
6c60
ENDCHAR
STARTCHAR 3154
ENCODING 12628
SWIDTH 960 0
DWIDTH 16 0
BBX 16 16 0 -2
BITMAP
18cc
186c
3468
36fe
6346
fec6
18c6
18c6
ff7e
1868
da68
6a68
6cd8
1b5b
3d9b
e30f
ENDCHAR
STARTCHAR 3155
ENCODING 12629
SWIDTH 960 0
DWIDTH 16 0
BBX 16 16 0 -2
BITMAP
3060
1860
1fff
01b0
c1b0
633c
636c
0774
1d6c
1b54
3398
3338
6334
636c
c346
c383
ENDCHAR
STARTCHAR 3156
ENCODING 12630
SWIDTH 960 0
DWIDTH 16 0
BBX 16 16 0 -2
BITMAP
00c0
00c0
1fff
d800
6bf0
6b36
1b36
1b1e
3a00
6ff8
d998
31b0
30e0
60d0
c398
1e0e
ENDCHAR
STARTCHAR 3157
ENCODING 12631
SWIDTH 960 0
DWIDTH 16 0
BBX 16 16 0 -2
BITMAP
1830
0c30
0660
06c0
ffff
0c30
0c30
1818
300c
6ffa
db58
1b58
1b58
1b58
fffe
0000
ENDCHAR
STARTCHAR 3158
ENCODING 12632
SWIDTH 960 0
DWIDTH 16 0
BBX 16 16 0 -2
BITMAP
0000
7fbe
6c66
6c66
7f66
6c66
7f7e
6c76
6c68
7fa8
35a8
6aa8
6aac
69cc
c346
0e83
ENDCHAR
STARTCHAR 3159
ENCODING 12633
SWIDTH 960 0
DWIDTH 16 0
BBX 16 16 0 -2
BITMAP
198c
18cc
18d8
19fc
6d8c
6a8c
6a8c
698c
d9fc
18d0
18d0
18d0
19b0
19b6
1b36
1a1e
ENDCHAR
STARTCHAR 315a
ENCODING 12634
SWIDTH 960 0
DWIDTH 16 0
BBX 16 16 0 -2
BITMAP
0000
7dfc
018c
fffc
018c
7e8c
01fc
00c0
7efe
01da
7ed6
6766
66da
667a
7e06
661c
ENDCHAR
STARTCHAR 315b
ENCODING 12635
SWIDTH 960 0
DWIDTH 16 0
BBX 16 16 0 -2
BITMAP
0c34
0c36
0c30
3f7f
0cd0
0cd6
7fd6
0cd6
34d4
375c
34eb
35b5
3c67
6dc3
6700
c1ff
ENDCHAR
STARTCHAR 315c
ENCODING 12636
SWIDTH 960 0
DWIDTH 16 0
BBX 16 16 0 -2
BITMAP
0000
fefe
c6c6
fefe
c6c6
fefe
ccc6
c686
dfe6
d866
d866
dfe6
c686
c6b6
ccf6
d80e
ENDCHAR
STARTCHAR 315d
ENCODING 12637
SWIDTH 960 0
DWIDTH 16 0
BBX 16 16 0 -2
BITMAP
1800
1bff
1860
fefc
198c
19fc
3d8c
3afc
3a8c
6bfc
6860
d8fc
1bd8
1870
19dc
1b07
ENDCHAR
STARTCHAR 315e
ENCODING 12638
SWIDTH 960 0
DWIDTH 16 0
BBX 16 16 0 -2
BITMAP
0000
7fff
6000
6f9a
699b
6f98
69ff
6f98
6018
6f9c
69b4
6fb4
69b4
6fa6
d9c6
db83
ENDCHAR
STARTCHAR 315f
ENCODING 12639
SWIDTH 960 0
DWIDTH 16 0
BBX 16 16 0 -2
BITMAP
0000
7ffc
630c
630c
630c
630c
630c
7ffc
600c
600c
600c
600c
600c
600c
601c
600c
ENDCHAR
STARTCHAR 3160
ENCODING 12640
SWIDTH 960 0
DWIDTH 16 0
BBX 16 16 0 -2
BITMAP
0000
7ffe
6186
6ff6
6186
7ffe
6006
6ff6
6c36
6ff6
675a
6d76
7b3e
6306
7ffe
6006
ENDCHAR
STARTCHAR 3161
ENCODING 12641
SWIDTH 960 0
DWIDTH 16 0
BBX 16 16 0 -2
BITMAP
3000
37ff
3600
36fc
368c
fefc
368c
36fc
3660
37ff
36d8
3ad0
e678
06cc
07ff
0600
ENDCHAR
STARTCHAR 3162
ENCODING 12642
SWIDTH 960 0
DWIDTH 16 0
BBX 16 16 0 -2
BITMAP
0180
0180
ffff
0340
0660
0db0
3ffc
e9b7
19b0
1ff0
19b0
19b0
1ff0
19b6
0186
00fe
ENDCHAR
STARTCHAR 3163
ENCODING 12643
SWIDTH 960 0
DWIDTH 16 0
BBX 16 16 0 -2
BITMAP
0300
0300
7ffe
600c
6ff0
d830
1ff0
1830
1ff0
0300
fffe
0660
0c60
1fc0
0770
7c18
ENDCHAR
STARTCHAR 3164
ENCODING 12644
SWIDTH 960 0
DWIDTH 16 0
BBX 16 16 0 -2
BITMAP
000c
fc38
0df0
1830
1830
31b0
7dbe
0db0
6db0
35b0
35b0
19b0
1fff
3600
6380
c0ff
ENDCHAR
STARTCHAR 3165
ENCODING 12645
SWIDTH 960 0
DWIDTH 16 0
BBX 16 16 0 -2
BITMAP
1800
1f7e
1b46
3346
76dc
dac0
0cc3
1863
303f
e300
0d80
34cc
34c6
6c1b
c61b
03f8
ENDCHAR
STARTCHAR 3166
ENCODING 12646
SWIDTH 960 0
DWIDTH 16 0
BBX 16 16 0 -2
BITMAP
3060
3060
37ff
30d0
fda8
336c
37fe
356d
336c
3dfc
f36c
336c
33fc
3063
3063
703f
ENDCHAR
STARTCHAR 3167
ENCODING 12647
SWIDTH 960 0
DWIDTH 16 0
BBX 16 16 0 -2
BITMAP
301c
37f0
334c
fdac
31a8
37fe
30c0
37ff
3cc0
f1fc
338c
36d8
3070
30d0
339c
7607
ENDCHAR
STARTCHAR 3168
ENCODING 12648
SWIDTH 960 0
DWIDTH 16 0
BBX 16 16 0 -2
BITMAP
30f8
1818
1998
0198
c18c
630c
6306
6603
1dfc
1b0c
330c
330c
630c
630c
c3fc
c30c
ENDCHAR
STARTCHAR 3169
ENCODING 12649
SWIDTH 960 0
DWIDTH 16 0
BBX 16 16 0 -2
BITMAP
3060
1860
1bff
0606
cffe
6060
67fe
0666
0666
37fe
3666
6666
67fe
619c
c306
ce03
ENDCHAR
STARTCHAR 316a
ENCODING 12650
SWIDTH 960 0
DWIDTH 16 0
BBX 16 16 0 -2
BITMAP
0300
1b30
1b30
3360
6680
0cc0
3870
e31c
0330
1b30
1b60
3680
66c0
0c60
3838
e00e
ENDCHAR
STARTCHAR 316b
ENCODING 12651
SWIDTH 960 0
DWIDTH 16 0
BBX 16 16 0 -2
BITMAP
1860
1860
187c
1acc
6ad8
6a98
6c30
6b7e
db66
1d66
3566
377e
3766
6366
637e
c366
ENDCHAR
STARTCHAR 316c
ENCODING 12652
SWIDTH 960 0
DWIDTH 16 0
BBX 16 16 0 -2
BITMAP
1800
1bfe
18d0
1ad0
6bfc
6b54
6d54
6b54
dbfc
1860
1c60
35fc
3660
3660
67ff
c000
ENDCHAR
STARTCHAR 316d
ENCODING 12653
SWIDTH 960 0
DWIDTH 16 0
BBX 16 16 0 -2
BITMAP
0660
0660
ffff
0660
1be8
181a
fbea
1a6c
1a68
3a6b
ebeb
1a6f
0000
366c
6336
c333
ENDCHAR
STARTCHAR 316e
ENCODING 12654
SWIDTH 960 0
DWIDTH 16 0
BBX 16 16 0 -2
BITMAP
1860
d860
6bfc
3060
37ff
6800
dbfc
1b0c
3b0c
3bfc
69a6
dbb6
1eb4
1998
e9ec
3707
ENDCHAR
STARTCHAR 316f
ENCODING 12655
SWIDTH 960 0
DWIDTH 16 0
BBX 16 16 0 -2
BITMAP
1800
19f8
1a18
f6f8
3418
1bff
1a60
36d6
ffb4
1b78
6cd8
6ab4
6ad6
6bb3
d830
18e0
ENDCHAR
STARTCHAR 3170
ENCODING 12656
SWIDTH 960 0
DWIDTH 16 0
BBX 16 16 0 -2
BITMAP
1a30
7fbe
6aac
7fac
6ad8
7ffe
00da
ffda
00da
7f7e
6346
7f40
36c0
1cc3
ffa3
003f
ENDCHAR
STARTCHAR 3171
ENCODING 12657
SWIDTH 960 0
DWIDTH 16 0
BBX 16 16 0 -2
BITMAP
0630
0630
ffff
0630
0630
1800
1fbe
19a6
31a6
3b66
6d66
c66c
0660
0c63
1833
701f
ENDCHAR
STARTCHAR 3172
ENCODING 12658
SWIDTH 960 0
DWIDTH 16 0
BBX 16 16 0 -2
BITMAP
0c30
ffff
0c30
7ffe
6186
6ff6
6186
7ffe
6c66
6fe6
67b6
6d66
7b76
631e
7ffe
6006
ENDCHAR
STARTCHAR 3173
ENCODING 12659
SWIDTH 960 0
DWIDTH 16 0
BBX 16 16 0 -2
BITMAP
00c0
60c0
37fc
30c0
0ffe
0000
07fc
fa0c
1bfc
19cc
1b68
1ad0
1cdc
34c7
6700
c1ff
ENDCHAR
STARTCHAR 3174
ENCODING 12660
SWIDTH 960 0
DWIDTH 16 0
BBX 16 16 0 -2
BITMAP
187c
180c
346c
366c
66cc
ff46
1986
1b03
fefc
18cc
dacc
6ccc
6b4c
1ecc
38fc
e0cc
ENDCHAR
STARTCHAR 3175
ENCODING 12661
SWIDTH 960 0
DWIDTH 16 0
BBX 16 16 0 -2
BITMAP
1800
1ffc
734c
1ad8
1d46
f67e
1ff0
1830
1ff0
1830
1fff
1800
1ffe
6b66
6db6
c01c
ENDCHAR
STARTCHAR 3176
ENCODING 12662
SWIDTH 960 0
DWIDTH 16 0
BBX 16 16 0 -2
BITMAP
0300
3300
33fe
3600
37f8
fd18
3518
33f8
3000
37fc
36b4
3ab4
e6b4
06b4
1fff
0000
ENDCHAR
STARTCHAR 3177
ENCODING 12663
SWIDTH 960 0
DWIDTH 16 0
BBX 16 16 0 -2
BITMAP
3030
3030
3030
ff68
3068
30cc
3eec
36a6
3733
3630
36c0
3660
6630
6630
c618
1c18
ENDCHAR
STARTCHAR 3178
ENCODING 12664
SWIDTH 960 0
DWIDTH 16 0
BBX 16 16 0 -2
BITMAP
3000
1bfc
18c0
00c0
00c0
dfff
6180
6180
1980
1bfc
330c
300c
600c
600c
c018
c070
ENDCHAR
STARTCHAR 3179
ENCODING 12665
SWIDTH 960 0
DWIDTH 16 0
BBX 16 16 0 -2
BITMAP
1800
1bfc
6b6c
6b6c
7ffc
6b6c
db6c
1bfc
7e60
1bfe
1866
18c6
1ec6
f186
0306
0e1c
ENDCHAR
STARTCHAR 317a
ENCODING 12666
SWIDTH 960 0
DWIDTH 16 0
BBX 16 16 0 -2
BITMAP
0000
7e7e
6666
6666
6666
6666
6666
6666
67e6
6006
6006
6006
6006
7ffe
6006
0000
ENDCHAR
STARTCHAR 317b
ENCODING 12667
SWIDTH 960 0
DWIDTH 16 0
BBX 16 16 0 -2
BITMAP
0180
0180
0180
3ffc
318c
318c
318c
318c
ffff
0180
0340
0340
0660
0c30
381c
e007
ENDCHAR
STARTCHAR 317c
ENCODING 12668
SWIDTH 960 0
DWIDTH 16 0
BBX 16 16 0 -2
BITMAP
0300
0600
3ffc
318c
35b4
36ac
3ffc
33cc
36ac
35bc
398c
330c
ffff
0340
0e70
f81e
ENDCHAR
STARTCHAR 317d
ENCODING 12669
SWIDTH 960 0
DWIDTH 16 0
BBX 16 16 0 -2
BITMAP
18c0
1860
3060
37fe
6c60
cc60
1860
1860
33fc
7060
d060
3060
3060
3060
37ff
3000
ENDCHAR
STARTCHAR 317e
ENCODING 12670
SWIDTH 960 0
DWIDTH 16 0
BBX 16 16 0 -2
BITMAP
00c0
00c0
3fff
3180
30c0
3060
31b0
31b0
358c
3586
3583
6d83
6983
698c
d0cc
007c
ENDCHAR
STARTCHAR 3221
ENCODING 12833
SWIDTH 960 0
DWIDTH 16 0
BBX 16 16 0 -2
BITMAP
3000
33fe
3366
3366
fd66
33fe
3366
3366
3366
3dfe
f060
3060
3060
3060
7060
3060
ENDCHAR
STARTCHAR 3222
ENCODING 12834
SWIDTH 960 0
DWIDTH 16 0
BBX 16 16 0 -2
BITMAP
0000
fdfe
cc60
cc60
cc60
cc60
fc60
cdfe
cc60
cc60
cc60
cc60
fc60
cc60
0fff
0000
ENDCHAR
STARTCHAR 3223
ENCODING 12835
SWIDTH 960 0
DWIDTH 16 0
BBX 16 16 0 -2
BITMAP
1998
1998
1bfe
fe98
1998
1bff
3c60
3bfc
3b6c
6bfc
6b6c
db6c
1bfc
19b0
1b1c
1e06
ENDCHAR
STARTCHAR 3224
ENCODING 12836
SWIDTH 960 0
DWIDTH 16 0
BBX 16 16 0 -2
BITMAP
0060
7fa0
6360
637f
7353
6ad6
6eb4
6630
6e30
6d70
6b68
6b68
70cc
7fcc
6186
6303
ENDCHAR
STARTCHAR 3225
ENCODING 12837
SWIDTH 960 0
DWIDTH 16 0
BBX 16 16 0 -2
BITMAP
0000
7fbc
636c
636c
766d
6acd
6e87
66fc
6ecc
6d4c
6b68
6b68
7030
7fa8
61cc
6707
ENDCHAR
STARTCHAR 3226
ENCODING 12838
SWIDTH 960 0
DWIDTH 16 0
BBX 16 16 0 -2
BITMAP
0000
7ffe
0180
0180
0180
0180
0180
3ffc
0180
0180
0180
0180
0180
0180
ffff
0000
ENDCHAR
STARTCHAR 3227
ENCODING 12839
SWIDTH 960 0
DWIDTH 16 0
BBX 16 16 0 -2
BITMAP
0df0
0c30
1998
318c
e367
0638
7fec
0000
7ffc
336c
1b34
071c
1d74
73cc
030c
071c
ENDCHAR
STARTCHAR 3228
ENCODING 12840
SWIDTH 960 0
DWIDTH 16 0
BBX 16 16 0 -2
BITMAP
3060
30c0
33fc
fd6c
0dac
1b74
1bfc
356c
3574
7bac
d56c
37ff
3060
30d0
3398
360e
ENDCHAR
STARTCHAR 3229
ENCODING 12841
SWIDTH 960 0
DWIDTH 16 0
BBX 16 16 0 -2
BITMAP
3318
19b0
7ffe
660c
dff0
1830
1ff0
1830
1ff0
1800
1ffe
1800
1ffc
6b6c
6db4
c038
ENDCHAR
STARTCHAR 322a
ENCODING 12842
SWIDTH 960 0
DWIDTH 16 0
BBX 16 16 0 -2
BITMAP
0060
ff40
c6fc
c68c
e6fc
d58c
ddfc
cd80
ddff
da80
d6fe
d66a
e3b6
ff56
c346
c61c
ENDCHAR
STARTCHAR 322b
ENCODING 12843
SWIDTH 960 0
DWIDTH 16 0
BBX 16 16 0 -2
BITMAP
0660
0660
3ffc
0660
0660
ffff
0180
1ff8
1998
1998
1ff8
1998
1998
1ff8
0c38
780e
ENDCHAR
STARTCHAR 322c
ENCODING 12844
SWIDTH 960 0
DWIDTH 16 0
BBX 16 16 0 -2
BITMAP
0000
7ffe
6066
6c66
6666
66c6
7ffe
6186
6db6
6db6
6db6
6db6
6ff6
6c36
6006
600e
ENDCHAR
STARTCHAR 322d
ENCODING 12845
SWIDTH 960 0
DWIDTH 16 0
BBX 16 16 0 -2
BITMAP
3060
1860
1860
07fe
c666
6666
6666
0666
1bfe
1a66
3060
3060
6060
6060
c060
c060
ENDCHAR
STARTCHAR 322e
ENCODING 12846
SWIDTH 960 0
DWIDTH 16 0
BBX 16 16 0 -2
BITMAP
0630
0630
ffff
0630
0c00
6c30
3836
19b6
35b4
6db0
1d30
3468
6c68
0ccc
0d86
3e03
ENDCHAR
STARTCHAR 322f
ENCODING 12847
SWIDTH 960 0
DWIDTH 16 0
BBX 16 16 0 -2
BITMAP
0c60
0c60
0ffe
1b0c
1998
37ff
3000
73fc
d30c
33fc
330c
33fc
36a6
36b3
358d
30fc
ENDCHAR
STARTCHAR 3230
ENCODING 12848
SWIDTH 960 0
DWIDTH 16 0
BBX 16 16 0 -2
BITMAP
0000
3ffc
300c
300c
3ffc
3000
3ffe
31b0
371c
3ffa
30c0
37fc
60c0
60c0
dfff
0000
ENDCHAR
STARTCHAR 3231
ENCODING 12849
SWIDTH 960 0
DWIDTH 16 0
BBX 16 16 0 -2
BITMAP
30c0
30c0
37fc
3318
71b0
77ff
7800
d5fc
d30c
33fc
330c
33fc
36a0
36b6
359b
30f8
ENDCHAR
STARTCHAR 3232
ENCODING 12850
SWIDTH 960 0
DWIDTH 16 0
BBX 16 16 0 -2
BITMAP
0060
7c60
6ffe
6d8c
6cd8
7fff
6c00
6dfc
6d8c
7dfc
6d8c
6dfc
6d60
6d56
6ecd
cc7c
ENDCHAR
STARTCHAR 3233
ENCODING 12851
SWIDTH 960 0
DWIDTH 16 0
BBX 16 16 0 -2
BITMAP
1800
1bfc
1818
fed0
1860
1bfe
3d66
3b66
6bfe
6b66
db66
1bfe
1b66
1b66
1b66
1b0e
ENDCHAR
STARTCHAR 3234
ENCODING 12852
SWIDTH 960 0
DWIDTH 16 0
BBX 16 16 0 -2
BITMAP
0c30
3430
3430
3430
3f30
35fe
6c30
cc30
0c30
0f30
7c30
0c30
0c30
0c30
0dff
0c00
ENDCHAR
STARTCHAR 3235
ENCODING 12853
SWIDTH 960 0
DWIDTH 16 0
BBX 16 16 0 -2
BITMAP
0000
3ff8
0030
00e0
0180
0300
0600
0c00
1800
3000
3000
600c
600c
600c
3ffc
0000
ENDCHAR
STARTCHAR 3236
ENCODING 12854
SWIDTH 960 0
DWIDTH 16 0
BBX 16 16 0 -2
BITMAP
0cc0
0cc0
0fff
19a0
19d0
3358
37fc
76da
dadb
37f8
36d8
36d8
37f8
36da
30c6
307e
ENDCHAR
STARTCHAR 3237
ENCODING 12855
SWIDTH 960 0
DWIDTH 16 0
BBX 16 16 0 -2
BITMAP
3000
307e
3fa6
3466
6c66
cc66
ffe6
0c66
6c66
6fa6
6c66
6c66
6fbc
7c60
e060
0060
ENDCHAR
STARTCHAR 3238
ENCODING 12856
SWIDTH 960 0
DWIDTH 16 0
BBX 16 16 0 -2
BITMAP
0000
3ffc
318c
318c
3ffc
334c
3674
3c1c
3ffc
0180
36c0
366c
3666
661b
c31b
01f8
ENDCHAR
STARTCHAR 3239
ENCODING 12857
SWIDTH 960 0
DWIDTH 16 0
BBX 16 16 0 -2
BITMAP
3000
1bfc
1b0c
03fc
c30c
630c
63fc
0000
1800
1bfe
36d6
36d6
66d6
66d6
dfff
c000
ENDCHAR
STARTCHAR 323a
ENCODING 12858
SWIDTH 960 0
DWIDTH 16 0
BBX 16 16 0 -2
BITMAP
0c0c
1878
fbc6
1b66
19ac
1bfc
fe0c
19fc
3c0c
3afc
3a60
6b54
6b56
db55
1acd
187c
ENDCHAR
STARTCHAR 323b
ENCODING 12859
SWIDTH 960 0
DWIDTH 16 0
BBX 16 16 0 -2
BITMAP
0180
0180
7ffe
0c30
0630
0660
ffff
0000
0ff0
0c30
0c30
0ff0
0c30
0c30
0ff0
0c30
ENDCHAR
STARTCHAR 323c
ENCODING 12860
SWIDTH 960 0
DWIDTH 16 0
BBX 16 16 0 -2
BITMAP
0000
ffff
0180
0180
0180
01c0
01a0
01b0
0198
0198
0180
0180
0180
0180
0180
0180
ENDCHAR
STARTCHAR 323d
ENCODING 12861
SWIDTH 960 0
DWIDTH 16 0
BBX 16 16 0 -2
BITMAP
06c0
06c0
06c6
0cc6
0ccc
18cc
18d8
38d0
68e0
d8c0
18c0
18c0
18c3
18c3
1863
183f
ENDCHAR
STARTCHAR 323e
ENCODING 12862
SWIDTH 960 0
DWIDTH 16 0
BBX 16 16 0 -2
BITMAP
0c00
0dff
0d00
1b00
1b00
33fc
338c
734c
d358
3368
3670
3630
3468
34cc
3b86
3603
ENDCHAR
STARTCHAR 323f
ENCODING 12863
SWIDTH 960 0
DWIDTH 16 0
BBX 16 16 0 -2
BITMAP
0c00
0c00
0fff
180c
180c
37ec
366c
766c
d66c
366c
37ec
366c
300c
300c
303c
300c
ENDCHAR
STARTCHAR 3240
ENCODING 12864
SWIDTH 960 0
DWIDTH 16 0
BBX 16 16 0 -2
BITMAP
1a00
1a00
1a3e
3636
3fd6
36d6
76d6
76d6
d6d6
36d6
36d6
36d6
34de
34d6
3b80
3000
ENDCHAR
STARTCHAR 3241
ENCODING 12865
SWIDTH 960 0
DWIDTH 16 0
BBX 16 16 0 -2
BITMAP
0c00
0c00
0fff
18d0
18d0
30d0
37fe
76d6
d6d6
36d6
36d6
36d6
36d6
37fe
3606
3000
ENDCHAR
STARTCHAR 3242
ENCODING 12866
SWIDTH 960 0
DWIDTH 16 0
BBX 16 16 0 -2
BITMAP
0c60
0c60
0dfc
1860
1860
3860
6bfe
6860
d860
1860
1bfc
1860
1860
1860
1bfe
1800
ENDCHAR
STARTCHAR 3243
ENCODING 12867
SWIDTH 960 0
DWIDTH 16 0
BBX 16 16 0 -2
BITMAP
1800
1800
187e
1866
ffa6
19a6
19a6
19a6
19a6
19a6
19a6
19a6
31a6
31be
61a6
c700
ENDCHAR
STARTCHAR 3244
ENCODING 12868
SWIDTH 960 0
DWIDTH 16 0
BBX 16 16 0 -2
BITMAP
0000
0000
ffff
0018
0018
1fd8
18d8
18d8
18d8
18d8
1fd8
18d8
0018
0018
0078
0018
ENDCHAR
STARTCHAR 3245
ENCODING 12869
SWIDTH 960 0
DWIDTH 16 0
BBX 16 16 0 -2
BITMAP
0180
0180
ffff
0180
3ffc
0000
1ff8
1818
1ff8
0660
ffff
1800
7f7c
1b4c
337c
eecc
ENDCHAR
STARTCHAR 3246
ENCODING 12870
SWIDTH 960 0
DWIDTH 16 0
BBX 16 16 0 -2
BITMAP
0000
7ffe
0180
1ff8
1818
1ff8
1818
1ff8
1818
1ff8
0600
0ff8
1a60
73c0
0ef0
f81e
ENDCHAR
STARTCHAR 3247
ENCODING 12871
SWIDTH 960 0
DWIDTH 16 0
BBX 16 16 0 -2
BITMAP
1860
1860
1bfe
1b0c
fe00
37fc
36c0
36a6
6d6a
6cdc
f9b4
1d74
34d6
61b3
c730
00e0
ENDCHAR
STARTCHAR 3248
ENCODING 12872
SWIDTH 960 0
DWIDTH 16 0
BBX 16 16 0 -2
BITMAP
0300
0300
7ffe
600c
c000
3ff0
060c
1d4c
73d8
06b0
1da0
73b0
0698
1d8c
f186
0700
ENDCHAR
STARTCHAR 3249
ENCODING 12873
SWIDTH 960 0
DWIDTH 16 0
BBX 16 16 0 -2
BITMAP
0300
0300
7ffe
600c
dff8
0300
1ff0
1830
1ff0
1830
fffe
0c30
3ffc
e337
0e30
38e0
ENDCHAR
STARTCHAR 324a
ENCODING 12874
SWIDTH 960 0
DWIDTH 16 0
BBX 16 16 0 -2
BITMAP
030c
0ecc
7c6c
0c34
0c34
0d8c
ff4c
0c6c
1e6c
1d0f
35bc
35cc
6c0c
cc0c
0c0c
0c0c
ENDCHAR
STARTCHAR 324b
ENCODING 12875
SWIDTH 960 0
DWIDTH 16 0
BBX 16 16 0 -2
BITMAP
0000
07de
fac6
dac6
dac6
dbde
da00
fa7e
dbe6
da34
da34
da18
fbd8
da34
0666
06c3
ENDCHAR
STARTCHAR 324c
ENCODING 12876
SWIDTH 960 0
DWIDTH 16 0
BBX 16 16 0 -2
BITMAP
0000
3ff8
3318
3318
3ff8
3318
3318
3ff8
0300
fffe
0780
0d40
1b60
3338
e30e
0300
ENDCHAR
STARTCHAR 324d
ENCODING 12877
SWIDTH 960 0
DWIDTH 16 0
BBX 16 16 0 -2
BITMAP
1800
18fc
ff4c
1b4c
1b4c
334c
337c
6ecc
c300
0300
fffe
0740
0d60
3b38
e30e
0300
ENDCHAR
STARTCHAR 324e
ENCODING 12878
SWIDTH 960 0
DWIDTH 16 0
BBX 16 16 0 -2
BITMAP
00c0
ffc0
06c0
7aff
6ad6
7ad4
6ab0
0eb0
ff30
0630
7a68
6a68
7acc
6acc
0686
0f03
ENDCHAR
STARTCHAR 324f
ENCODING 12879
SWIDTH 960 0
DWIDTH 16 0
BBX 16 16 0 -2
BITMAP
3000
1bff
180c
000c
c7ec
666c
666c
066c
1a6c
1bec
366c
300c
600c
600c
c03c
c00c
ENDCHAR
STARTCHAR 3250
ENCODING 12880
SWIDTH 960 0
DWIDTH 16 0
BBX 16 16 0 -2
BITMAP
0180
0180
018c
018c
198c
1998
1998
19b0
3180
6340
0340
0660
0630
0c18
380c
e007
ENDCHAR
STARTCHAR 3251
ENCODING 12881
SWIDTH 960 0
DWIDTH 16 0
BBX 16 16 0 -2
BITMAP
0000
ffff
300c
300c
33ec
336c
fd6c
336c
336c
336c
33ec
336c
3c0c
f00c
001c
000c
ENDCHAR
STARTCHAR 3252
ENCODING 12882
SWIDTH 960 0
DWIDTH 16 0
BBX 16 16 0 -2
BITMAP
1800
19fc
198c
febc
06ac
0dac
0dac
1bfe
3d06
6b7a
db5a
1b5a
1b7a
1b5a
1b0e
1b06
ENDCHAR
STARTCHAR 3253
ENCODING 12883
SWIDTH 960 0
DWIDTH 16 0
BBX 16 16 0 -2
BITMAP
0018
00f0
3f80
0180
0180
0180
ffff
0180
03c0
06a0
0db0
399c
e187
0180
0180
0180
ENDCHAR
STARTCHAR 3254
ENCODING 12884
SWIDTH 960 0
DWIDTH 16 0
BBX 16 16 0 -2
BITMAP
0660
1c60
fbfe
1b0c
1a00
fffe
18cc
18ec
3da8
3ad8
69b4
6b74
d8d6
1bb3
1830
18e0
ENDCHAR
STARTCHAR 3255
ENCODING 12885
SWIDTH 960 0
DWIDTH 16 0
BBX 16 16 0 -2
BITMAP
3060
3060
7fbf
6cd0
c698
7ffc
630c
630c
7ffc
630c
6fec
6c6c
6fec
600c
7ffc
600c
ENDCHAR
STARTCHAR 3256
ENCODING 12886
SWIDTH 960 0
DWIDTH 16 0
BBX 16 16 0 -2
BITMAP
0c60
0c60
fffe
0c60
0e60
06c0
0ccc
0ccc
18d8
38d0
68e0
d8c0
18c0
18c3
18c3
187f
ENDCHAR
STARTCHAR 3257
ENCODING 12887
SWIDTH 960 0
DWIDTH 16 0
BBX 16 16 0 -2
BITMAP
0630
0630
ffff
0630
0630
0000
fffe
0018
1fd8
18d8
18d8
18d8
1fd8
18d8
0038
0018
ENDCHAR
STARTCHAR 3258
ENCODING 12888
SWIDTH 960 0
DWIDTH 16 0
BBX 16 16 0 -2
BITMAP
0c60
0c60
fffe
0c60
0c60
1800
18fc
ff4c
1b4c
1b4c
1b4c
1b4c
334c
337c
634c
ce00
ENDCHAR
STARTCHAR 3259
ENCODING 12889
SWIDTH 960 0
DWIDTH 16 0
BBX 16 16 0 -2
BITMAP
0630
0630
ffff
0630
0630
0c00
0fff
180c
1bec
3b6c
6b6c
db6c
1bec
180c
180c
181c
ENDCHAR
STARTCHAR 325a
ENCODING 12890
SWIDTH 960 0
DWIDTH 16 0
BBX 16 16 0 -2
BITMAP
0c30
0c30
ffff
0c30
3ffc
1998
1998
ffff
1998
1998
3ffc
0180
0180
7ffe
0180
0180
ENDCHAR
STARTCHAR 325b
ENCODING 12891
SWIDTH 960 0
DWIDTH 16 0
BBX 16 16 0 -2
BITMAP
0660
0660
ffff
0660
1ff8
1998
1ff8
1998
1ff8
0180
ffff
06a0
0db0
399c
e187
0180
ENDCHAR
STARTCHAR 325c
ENCODING 12892
SWIDTH 960 0
DWIDTH 16 0
BBX 16 16 0 -2
BITMAP
1800
19ee
19a6
19a6
7ea6
6aee
6a80
6abe
7eea
199a
199a
1dec
1a8c
1e9a
f6b6
03a3
ENDCHAR
STARTCHAR 325d
ENCODING 12893
SWIDTH 960 0
DWIDTH 16 0
BBX 16 16 0 -2
BITMAP
0000
7efe
01b6
ffb6
01fe
7eb6
01b6
01fe
7e30
03ff
7e78
66d4
66d4
66b6
7f33
6630
ENDCHAR
STARTCHAR 325e
ENCODING 12894
SWIDTH 960 0
DWIDTH 16 0
BBX 16 16 0 -2
BITMAP
0198
0198
ffff
d998
dbfe
db6c
db6c
dfff
db6c
db6c
dbfe
f860
d860
0fff
0060
0060
ENDCHAR
STARTCHAR 325f
ENCODING 12895
SWIDTH 960 0
DWIDTH 16 0
BBX 16 16 0 -2
BITMAP
06c0
0ccc
1cf8
34c0
ecc6
0c7e
1ff8
1818
1ff8
1818
1ff8
1818
1818
1ff8
1c38
700c
ENDCHAR
STARTCHAR 3260
ENCODING 12896
SWIDTH 960 0
DWIDTH 16 0
BBX 16 16 0 -2
BITMAP
0300
6300
333e
37d6
0356
0356
0356
fb56
1b56
1ad6
1ad6
1cde
35b6
3600
6380
c0ff
ENDCHAR
STARTCHAR 3261
ENCODING 12897
SWIDTH 960 0
DWIDTH 16 0
BBX 16 16 0 -2
BITMAP
0000
63fc
330c
337c
036c
036c
07fe
fa06
1afa
1a9a
1a9a
1afa
369a
360e
6380
c0ff
ENDCHAR
STARTCHAR 3262
ENCODING 12898
SWIDTH 960 0
DWIDTH 16 0
BBX 16 16 0 -2
BITMAP
0000
7ffc
0180
7ffe
6186
7ef4
dfbc
0180
7efc
660c
7efc
6000
7ef8
60d8
7e70
63de
ENDCHAR
STARTCHAR 3263
ENCODING 12899
SWIDTH 960 0
DWIDTH 16 0
BBX 16 16 0 -2
BITMAP
1830
1830
1830
7fff
6b4c
6b4c
6b4c
6b4c
7f68
1868
1c30
1a30
1a68
1d58
f18c
0306
ENDCHAR
STARTCHAR 3264
ENCODING 12900
SWIDTH 960 0
DWIDTH 16 0
BBX 16 16 0 -2
BITMAP
0cd0
0db4
0f36
1b36
1b30
3fff
3330
7336
d356
33b4
3718
333a
336a
334e
338e
3706
ENDCHAR
STARTCHAR 3265
ENCODING 12901
SWIDTH 960 0
DWIDTH 16 0
BBX 16 16 0 -2
BITMAP
30d0
31b4
37b6
d5b6
d5b0
d7ff
d5b0
d5b6
d5d6
d5b4
d698
fdba
cdaa
c1ce
018e
0706
ENDCHAR
STARTCHAR 3266
ENCODING 12902
SWIDTH 960 0
DWIDTH 16 0
BBX 16 16 0 -2
BITMAP
0340
06d0
1cd8
74cc
0cc0
0cc0
ffff
0c6c
0c6c
0f68
1c38
f430
0c6b
0ccd
0d87
1c03
ENDCHAR
STARTCHAR 3267
ENCODING 12903
SWIDTH 960 0
DWIDTH 16 0
BBX 16 16 0 -2
BITMAP
0000
0ffc
0c30
0c30
0c30
0c30
0c30
ffff
00d0
01b0
0330
0630
0c30
3830
e0f0
0030
ENDCHAR
STARTCHAR 3268
ENCODING 12904
SWIDTH 960 0
DWIDTH 16 0
BBX 16 16 0 -2
BITMAP
0000
ffff
0180
0180
6ff6
6db6
6db6
6db6
6ff6
6db6
6db6
6db6
6ff6
6006
7ffe
6006
ENDCHAR
STARTCHAR 3269
ENCODING 12905
SWIDTH 960 0
DWIDTH 16 0
BBX 16 16 0 -2
BITMAP
0030
7fb0
6c30
6c30
6c30
7f30
6330
6368
6368
7f68
6c68
6ccc
6ccc
7f8c
6306
0603
ENDCHAR
STARTCHAR 326a
ENCODING 12906
SWIDTH 960 0
DWIDTH 16 0
BBX 16 16 0 -2
BITMAP
0660
0660
ffff
0660
0000
3ffc
0c60
0c60
0c60
ffff
00e0
01a0
0760
1c60
f1e0
0060
ENDCHAR
STARTCHAR 326b
ENCODING 12907
SWIDTH 960 0
DWIDTH 16 0
BBX 16 16 0 -2
BITMAP
1868
18d8
1bdc
7eda
6ada
6bff
6ad8
6ada
7eda
18ec
1dcc
1adc
1add
3f57
e367
01c3
ENDCHAR
STARTCHAR 326c
ENCODING 12908
SWIDTH 960 0
DWIDTH 16 0
BBX 16 16 0 -2
BITMAP
1800
18fe
ff46
1b46
1b46
337e
6ec6
dff8
1818
1ff8
1818
1ff8
1818
1ff8
0e38
780e
ENDCHAR
STARTCHAR 326d
ENCODING 12909
SWIDTH 960 0
DWIDTH 16 0
BBX 16 16 0 -2
BITMAP
006c
7f6c
36d8
36ff
36d8
36d8
ffd8
1afe
1ad8
1ad8
1afe
36d8
36d8
66d8
c6ff
0ec0
ENDCHAR
STARTCHAR 326e
ENCODING 12910
SWIDTH 960 0
DWIDTH 16 0
BBX 16 16 0 -2
BITMAP
1868
18dc
35da
3ada
68d8
ffff
66d8
7eda
66ea
66da
7ecc
6b4c
6cdd
6cdb
76d7
e6e3
ENDCHAR
STARTCHAR 326f
ENCODING 12911
SWIDTH 960 0
DWIDTH 16 0
BBX 16 16 0 -2
BITMAP
1800
ff7e
1b46
1b46
337e
6ec6
dff8
1980
1ff0
1980
1ff0
1980
1ffe
6b66
6db6
c01c
ENDCHAR
STARTCHAR 3270
ENCODING 12912
SWIDTH 960 0
DWIDTH 16 0
BBX 16 16 0 -2
BITMAP
0180
0180
0340
0660
0c30
381c
ec37
0c30
0c30
0c30
0c30
0c30
1830
1830
3030
6030
ENDCHAR
STARTCHAR 3271
ENCODING 12913
SWIDTH 960 0
DWIDTH 16 0
BBX 16 16 0 -2
BITMAP
0180
0180
0340
0660
0c30
381c
eff7
0000
0000
7ffe
0300
0360
0630
0ce8
7f8c
000c
ENDCHAR
STARTCHAR 3272
ENCODING 12914
SWIDTH 960 0
DWIDTH 16 0
BBX 16 16 0 -2
BITMAP
1800
1efe
3636
6c36
ff66
6b5c
6bb0
7f50
6b7e
6bb0
7f30
63ff
6330
6330
6730
c330
ENDCHAR
STARTCHAR 3273
ENCODING 12915
SWIDTH 960 0
DWIDTH 16 0
BBX 16 16 0 -2
BITMAP
0000
7ffe
6006
6006
6006
67e6
6666
6666
6666
6666
67e6
6006
6006
6006
7ffe
6006
ENDCHAR
STARTCHAR 3274
ENCODING 12916
SWIDTH 960 0
DWIDTH 16 0
BBX 16 16 0 -2
BITMAP
0060
30c0
33fc
336c
336c
fffc
336c
336c
33fc
30d4
36d4
39ba
e1bf
0330
0e33
381f
ENDCHAR
STARTCHAR 3275
ENCODING 12917
SWIDTH 960 0
DWIDTH 16 0
BBX 16 16 0 -2
BITMAP
0060
3060
37fe
3060
33fc
ff54
3354
33fc
3060
37ff
34cc
39a8
e3b0
0e98
01ec
0787
ENDCHAR
STARTCHAR 3276
ENCODING 12918
SWIDTH 960 0
DWIDTH 16 0
BBX 16 16 0 -2
BITMAP
0000
7dfe
0d06
1b06
1b7a
335a
7d5a
0d5a
0d7a
6d5a
3506
1bfe
1d06
3700
61e0
c03f
ENDCHAR
STARTCHAR 3277
ENCODING 12919
SWIDTH 960 0
DWIDTH 16 0
BBX 16 16 0 -2
BITMAP
1860
1860
1860
1bfc
6c6c
6a6c
6a6c
686c
dbff
1860
18d0
18d0
1998
1998
1b0c
1a06
ENDCHAR
STARTCHAR 3278
ENCODING 12920
SWIDTH 960 0
DWIDTH 16 0
BBX 16 16 0 -2
BITMAP
1800
1bfc
1998
18d8
18d0
6c60
6ad0
6a9c
6b67
d860
1bfc
1860
1860
1860
1bfe
1800
ENDCHAR
STARTCHAR 3279
ENCODING 12921
SWIDTH 960 0
DWIDTH 16 0
BBX 16 16 0 -2
BITMAP
1b00
1b00
1bfe
1b00
6a00
6afc
6dac
6dac
dbff
1b6c
1b6c
1b6c
1bff
1a0c
1818
1870
ENDCHAR
STARTCHAR 327a
ENCODING 12922
SWIDTH 960 0
DWIDTH 16 0
BBX 16 16 0 -2
BITMAP
1800
1bff
1b00
1b30
6d36
6b56
6b54
6b54
db50
1bb0
1b38
1b68
1a6c
1acc
1d86
1e03
ENDCHAR
STARTCHAR 327b
ENCODING 12923
SWIDTH 960 0
DWIDTH 16 0
BBX 16 16 0 -2
BITMAP
1860
1860
1bff
1860
6bfc
6d54
6d54
6bfc
d860
1bff
18cc
19ac
1bb8
1a98
19ec
1b87
ENDCHAR
STARTCHAR 327c
ENCODING 12924
SWIDTH 960 0
DWIDTH 16 0
BBX 16 16 0 -2
BITMAP
00d8
00cc
00cc
ffff
00c0
1b4c
1b4c
1b68
ffe8
1b70
1b30
3370
336a
635a
c18e
0306
ENDCHAR
STARTCHAR 327d
ENCODING 12925
SWIDTH 960 0
DWIDTH 16 0
BBX 16 16 0 -2
BITMAP
1800
19fc
198c
198c
fe8c
19fc
198c
1800
1bfe
1e66
f866
1866
18c6
18c6
3986
1b1c
ENDCHAR
STARTCHAR 327e
ENCODING 12926
SWIDTH 960 0
DWIDTH 16 0
BBX 16 16 0 -2
BITMAP
00c0
00c0
fec0
06ff
06cc
06cc
feac
c6ac
c368
c068
c030
c638
c668
7ecc
0186
0703
ENDCHAR
STARTCHAR 3321
ENCODING 13089
SWIDTH 960 0
DWIDTH 16 0
BBX 16 16 0 -2
BITMAP
180c
30cc
7f6c
6d34
6db4
7f4c
6d6c
6d6c
7f0f
1dfc
1d8c
1d4c
37cc
340e
6606
c3fe
ENDCHAR
STARTCHAR 3322
ENCODING 13090
SWIDTH 960 0
DWIDTH 16 0
BBX 16 16 0 -2
BITMAP
0180
0180
f9ff
db00
db00
dafc
ddac
f9ac
dfff
db6c
db6c
db6c
fbff
da0c
0018
0070
ENDCHAR
STARTCHAR 3323
ENCODING 13091
SWIDTH 960 0
DWIDTH 16 0
BBX 16 16 0 -2
BITMAP
1830
1834
1836
ffff
1830
1b56
3b56
3d56
3bf4
6b54
6b5c
db58
1ada
1a6e
1cce
1986
ENDCHAR
STARTCHAR 3324
ENCODING 13092
SWIDTH 960 0
DWIDTH 16 0
BBX 16 16 0 -2
BITMAP
3180
1980
19fe
0300
c300
67fc
6dac
01ac
1fff
1b6c
336c
336c
67ff
660c
c018
c070
ENDCHAR
STARTCHAR 3325
ENCODING 13093
SWIDTH 960 0
DWIDTH 16 0
BBX 16 16 0 -2
BITMAP
0000
3ffe
3000
30c0
30cc
36cc
36cc
36d8
34d0
34c0
31a0
31a0
6330
6618
dc0c
7007
ENDCHAR
STARTCHAR 3326
ENCODING 13094
SWIDTH 960 0
DWIDTH 16 0
BBX 16 16 0 -2
BITMAP
0000
3ffc
318c
318c
3ffc
318c
318c
3ffc
0340
0e70
3a3c
e637
0c30
0c30
1830
3030
ENDCHAR
STARTCHAR 3327
ENCODING 13095
SWIDTH 960 0
DWIDTH 16 0
BBX 16 16 0 -2
BITMAP
3060
306e
3fb8
3060
3063
3763
3dbf
e300
1ff8
1818
1818
1ff8
1818
1818
1ff8
1818
ENDCHAR
STARTCHAR 3328
ENCODING 13096
SWIDTH 960 0
DWIDTH 16 0
BBX 16 16 0 -2
BITMAP
1830
1830
1a68
f668
34cc
1986
1d7d
3600
fe00
1bfe
6c60
6a68
6acc
6adc
dbe6
1806
ENDCHAR
STARTCHAR 3329
ENCODING 13097
SWIDTH 960 0
DWIDTH 16 0
BBX 16 16 0 -2
BITMAP
0c30
0c30
ffff
0c30
0db0
0180
0340
0660
0c30
3a3c
e637
0630
0630
0c30
0c30
1830
ENDCHAR
STARTCHAR 332a
ENCODING 13098
SWIDTH 960 0
DWIDTH 16 0
BBX 16 16 0 -2
BITMAP
3000
3efe
6c66
ff4e
6ba8
7f7e
6b58
7fff
6318
c718
3ff0
3330
3ff0
0318
03fc
fe06
ENDCHAR
STARTCHAR 332b
ENCODING 13099
SWIDTH 960 0
DWIDTH 16 0
BBX 16 16 0 -2
BITMAP
0000
fefe
c6c6
fefe
c6c6
c6c6
fefe
c006
dff6
c6c6
c6c6
fffa
c6c6
ccc6
d8ce
c006
ENDCHAR
STARTCHAR 332c
ENCODING 13100
SWIDTH 960 0
DWIDTH 16 0
BBX 16 16 0 -2
BITMAP
0330
7d36
6dfc
6d30
6b30
7333
6bdf
6f60
6dfe
6d86
6d86
6dfe
7986
6186
61fe
6186
ENDCHAR
STARTCHAR 332d
ENCODING 13101
SWIDTH 960 0
DWIDTH 16 0
BBX 16 16 0 -2
BITMAP
0000
1ff8
1818
1818
1818
1ff8
1818
1818
1818
1ff8
1818
1818
1ff8
0670
1c18
700c
ENDCHAR
STARTCHAR 332e
ENCODING 13102
SWIDTH 960 0
DWIDTH 16 0
BBX 16 16 0 -2
BITMAP
1800
6b7c
6b6c
7f6c
006c
ffac
006c
7f6c
636c
636c
7f6c
666c
366c
35cd
1ecd
f187
ENDCHAR
STARTCHAR 332f
ENCODING 13103
SWIDTH 960 0
DWIDTH 16 0
BBX 16 16 0 -2
BITMAP
0c30
0c30
0c30
fffe
1836
1a36
f636
35b6
1db6
1b36
3366
6666
0d66
19c6
3186
e31c
ENDCHAR
STARTCHAR 3330
ENCODING 13104
SWIDTH 960 0
DWIDTH 16 0
BBX 16 16 0 -2
BITMAP
0c60
0c60
0fa0
19a0
19a0
31a0
3b70
6d6c
c766
0663
0660
0c60
0c60
1860
3060
6060
ENDCHAR
STARTCHAR 3331
ENCODING 13105
SWIDTH 960 0
DWIDTH 16 0
BBX 16 16 0 -2
BITMAP
0060
0060
fc60
cfff
ccc0
ccd8
cdb0
cfb0
ccec
cccc
cd98
ff30
cc68
00cc
0386
0e06
ENDCHAR
STARTCHAR 3332
ENCODING 13106
SWIDTH 960 0
DWIDTH 16 0
BBX 16 16 0 -2
BITMAP
0300
0300
7ffe
630c
c300
7ffc
0300
3ff8
0300
fffe
0000
3ff8
3018
3018
3ff8
3018
ENDCHAR
STARTCHAR 3333
ENCODING 13107
SWIDTH 960 0
DWIDTH 16 0
BBX 16 16 0 -2
BITMAP
318c
318c
3ffc
0000
3fff
30c0
37fc
30c0
30c0
3ffe
30c0
37fc
60c0
60c0
dfff
0000
ENDCHAR
STARTCHAR 3334
ENCODING 13108
SWIDTH 960 0
DWIDTH 16 0
BBX 16 16 0 -2
BITMAP
3000
37ff
36cc
36d4
77d4
7ad4
76d4
77ff
d70c
369c
369c
36dc
36d4
3755
3c6d
30c7
ENDCHAR
STARTCHAR 3335
ENCODING 13109
SWIDTH 960 0
DWIDTH 16 0
BBX 16 16 0 -2
BITMAP
3000
37ff
36cc
36d4
ffd4
36d4
36d4
7bff
770c
769c
d69c
36dc
36d4
3755
3c6d
30c7
ENDCHAR
STARTCHAR 3336
ENCODING 13110
SWIDTH 960 0
DWIDTH 16 0
BBX 16 16 0 -2
BITMAP
3000
1bfe
1a30
0630
c6fe
6630
6630
07ff
1a30
1a30
36fe
3630
6c30
6c30
dbff
c000
ENDCHAR
STARTCHAR 3337
ENCODING 13111
SWIDTH 960 0
DWIDTH 16 0
BBX 16 16 0 -2
BITMAP
0000
ff7c
18cc
18fc
18cc
30cc
3efc
7600
77fe
d60c
37ff
368c
3ecc
36cc
301c
000c
ENDCHAR
STARTCHAR 3338
ENCODING 13112
SWIDTH 960 0
DWIDTH 16 0
BBX 16 16 0 -2
BITMAP
0c30
0c30
ffff
0db0
3ffc
0180
ffff
0660
0c38
7ff4
0006
3ff8
36d8
36d8
ffff
0000
ENDCHAR
STARTCHAR 3339
ENCODING 13113
SWIDTH 960 0
DWIDTH 16 0
BBX 16 16 0 -2
BITMAP
1b00
1b3e
37e0
3300
6300
db00
1fff
330c
330c
77ec
d30c
330c
336c
378c
3c1c
300c
ENDCHAR
STARTCHAR 333a
ENCODING 13114
SWIDTH 960 0
DWIDTH 16 0
BBX 16 16 0 -2
BITMAP
0030
7e30
0030
ffff
0030
7e34
01ec
0068
7e3a
0036
7e6c
66cc
6698
6634
7ee6
6786
ENDCHAR
STARTCHAR 333b
ENCODING 13115
SWIDTH 960 0
DWIDTH 16 0
BBX 16 16 0 -2
BITMAP
1830
19b6
35b6
36fe
6300
feff
1800
18fc
ff4c
18cc
dafc
6ccc
686c
1e68
3bff
e000
ENDCHAR
STARTCHAR 333c
ENCODING 13116
SWIDTH 960 0
DWIDTH 16 0
BBX 16 16 0 -2
BITMAP
0030
7e30
6630
6eff
6a30
6a34
ff6c
c368
ff36
e636
7e6c
66cc
7e18
6634
6666
6ec6
ENDCHAR
STARTCHAR 333d
ENCODING 13117
SWIDTH 960 0
DWIDTH 16 0
BBX 16 16 0 -2
BITMAP
3000
1bfc
1a6c
066c
c7fc
666c
666c
066c
1bfc
1860
3060
37fe
6060
6060
dfff
c000
ENDCHAR
STARTCHAR 333e
ENCODING 13118
SWIDTH 960 0
DWIDTH 16 0
BBX 16 16 0 -2
BITMAP
0c7c
7f6d
0ccf
fffc
6d6c
7f38
60ec
df87
0180
ffff
06a0
0ff0
3c3c
eff7
0c30
0ff0
ENDCHAR
STARTCHAR 333f
ENCODING 13119
SWIDTH 960 0
DWIDTH 16 0
BBX 16 16 0 -2
BITMAP
1830
1830
18fe
7f30
6b30
6b30
6bff
6b00
7f30
1830
1dfe
1a30
1e30
3b30
e3ff
0000
ENDCHAR
STARTCHAR 3340
ENCODING 13120
SWIDTH 960 0
DWIDTH 16 0
BBX 16 16 0 -2
BITMAP
1800
1bfe
1800
1800
fefc
198c
198c
19fc
198c
198c
1e8c
39fc
e18c
0000
0fff
0000
ENDCHAR
STARTCHAR 3341
ENCODING 13121
SWIDTH 960 0
DWIDTH 16 0
BBX 16 16 0 -2
BITMAP
1860
1860
1860
ffff
1860
1860
3bfe
3d66
3b66
6b66
6b66
db66
1b6c
1b60
1860
1860
ENDCHAR
STARTCHAR 3342
ENCODING 13122
SWIDTH 960 0
DWIDTH 16 0
BBX 16 16 0 -2
BITMAP
1800
19ff
1980
7e80
6aff
6ab0
6ab0
6abe
7eb6
19b6
1db6
1ab6
1f66
3b66
e6c6
0d9c
ENDCHAR
STARTCHAR 3343
ENCODING 13123
SWIDTH 960 0
DWIDTH 16 0
BBX 16 16 0 -2
BITMAP
1860
1860
3460
367e
6346
fee6
19a6
1b66
ff76
18da
dafa
6dda
6806
1b06
3c0c
e038
ENDCHAR
STARTCHAR 3344
ENCODING 13124
SWIDTH 960 0
DWIDTH 16 0
BBX 16 16 0 -2
BITMAP
0c06
7fb6
0db6
fff6
0db6
7fb6
0c36
3f36
ffd6
6db6
7fb6
6db6
7f86
0006
ffc6
000e
ENDCHAR
STARTCHAR 3345
ENCODING 13125
SWIDTH 960 0
DWIDTH 16 0
BBX 16 16 0 -2
BITMAP
0318
0318
f7fe
d318
d318
d318
dfff
d6b4
d6b4
dad6
fab5
dab5
36b4
0dac
0dac
1bdc
ENDCHAR
STARTCHAR 3346
ENCODING 13126
SWIDTH 960 0
DWIDTH 16 0
BBX 16 16 0 -2
BITMAP
0600
0600
0ff8
0c30
1a60
3340
61c0
0760
0c30
381c
effb
1818
1818
1818
1ff8
1818
ENDCHAR
STARTCHAR 3347
ENCODING 13127
SWIDTH 960 0
DWIDTH 16 0
BBX 16 16 0 -2
BITMAP
0180
0180
3fff
3300
3ffe
3036
37b4
35b8
37b4
3036
37b6
3336
63d6
6f3c
c330
0730
ENDCHAR
STARTCHAR 3348
ENCODING 13128
SWIDTH 960 0
DWIDTH 16 0
BBX 16 16 0 -2
BITMAP
3030
3030
3030
33ff
fd00
3330
3330
3330
3330
3d30
f36c
366c
36c6
36de
35e3
7803
ENDCHAR
STARTCHAR 3349
ENCODING 13129
SWIDTH 960 0
DWIDTH 16 0
BBX 16 16 0 -2
BITMAP
36cc
336c
3368
37fe
fc06
35fa
3318
33f8
3d18
f3f8
3318
33f8
30d0
31b3
3733
7c1f
ENDCHAR
STARTCHAR 334a
ENCODING 13130
SWIDTH 960 0
DWIDTH 16 0
BBX 16 16 0 -2
BITMAP
18c0
18c0
18fc
ff8c
19d8
19a8
3d70
3a68
3acc
6986
6bfd
da8c
198c
198c
19fc
198c
ENDCHAR
STARTCHAR 334b
ENCODING 13131
SWIDTH 960 0
DWIDTH 16 0
BBX 16 16 0 -2
BITMAP
1860
1860
1860
ffff
1860
1868
3bd8
3cd6
3a6c
686c
68d8
dbb0
1868
18cc
1986
1b06
ENDCHAR
STARTCHAR 334c
ENCODING 13132
SWIDTH 960 0
DWIDTH 16 0
BBX 16 16 0 -2
BITMAP
1800
187c
ff6c
186c
186d
7ecd
0187
fffc
c18c
deac
366c
3638
3698
3734
66e6
c383
ENDCHAR
STARTCHAR 334d
ENCODING 13133
SWIDTH 960 0
DWIDTH 16 0
BBX 16 16 0 -2
BITMAP
0cd8
cfff
68d8
31b0
33fe
6b30
dbfc
3b30
35fc
6d30
cffe
0d98
0cd0
1860
69d8
370e
ENDCHAR
STARTCHAR 334e
ENCODING 13134
SWIDTH 960 0
DWIDTH 16 0
BBX 16 16 0 -2
BITMAP
0060
ff60
19ff
19a6
1b6c
18d8
3eff
36d8
7758
76fe
d6d8
36fe
3ed8
36d8
30ff
00c0
ENDCHAR
STARTCHAR 334f
ENCODING 13135
SWIDTH 960 0
DWIDTH 16 0
BBX 16 16 0 -2
BITMAP
06cc
0dff
f8d8
19fe
19b0
1bfe
feb0
19fe
3db0
3afe
6a00
6bfe
d8d8
1870
18dc
1b87
ENDCHAR
STARTCHAR 3350
ENCODING 13136
SWIDTH 960 0
DWIDTH 16 0
BBX 16 16 0 -2
BITMAP
3318
1998
19b0
7ffe
600c
dff0
1830
1ff0
1830
1ff0
1830
1ff0
06c0
0cc3
38c3
e07f
ENDCHAR
STARTCHAR 3351
ENCODING 13137
SWIDTH 960 0
DWIDTH 16 0
BBX 16 16 0 -2
BITMAP
0600
07f0
0cc0
3980
fffc
318c
318c
3ffc
318c
318c
3ffc
300c
300c
600c
601c
c00c
ENDCHAR
STARTCHAR 3352
ENCODING 13138
SWIDTH 960 0
DWIDTH 16 0
BBX 16 16 0 -2
BITMAP
0c30
0c30
7f7e
0c30
0c30
0c30
ffff
1a68
1b6c
6aac
6aea
6aea
daaa
36d8
36d8
6eb8
ENDCHAR
STARTCHAR 3353
ENCODING 13139
SWIDTH 960 0
DWIDTH 16 0
BBX 16 16 0 -2
BITMAP
1830
1830
ff30
1bff
7ecc
6acc
6a86
7f4d
6acc
6a68
7e68
1830
ff68
18cc
1986
1b03
ENDCHAR
STARTCHAR 3354
ENCODING 13140
SWIDTH 960 0
DWIDTH 16 0
BBX 16 16 0 -2
BITMAP
0c00
0c7e
ffe6
0066
3fac
31ac
3fa8
006c
7fa6
0366
0663
07b3
fe6b
066e
0660
0e60
ENDCHAR
STARTCHAR 3355
ENCODING 13141
SWIDTH 960 0
DWIDTH 16 0
BBX 16 16 0 -2
BITMAP
0000
fefe
c6c6
fefe
c6c6
fefe
c306
c7e6
dec6
c386
cee6
d83a
cfe6
cc66
cfe6
c00e
ENDCHAR
STARTCHAR 3356
ENCODING 13142
SWIDTH 960 0
DWIDTH 16 0
BBX 16 16 0 -2
BITMAP
0000
7dfe
6c00
6dfc
698c
71fc
6800
6dfe
6d6a
6d6a
6d5e
6d86
7bfe
6336
6336
6336
ENDCHAR
STARTCHAR 3357
ENCODING 13143
SWIDTH 960 0
DWIDTH 16 0
BBX 16 16 0 -2
BITMAP
0660
0660
7ffe
0660
0660
07e0
0180
1ff8
1998
1998
1ff8
0180
ffff
0180
0180
0180
ENDCHAR
STARTCHAR 3358
ENCODING 13144
SWIDTH 960 0
DWIDTH 16 0
BBX 16 16 0 -2
BITMAP
3318
1998
19b0
7ffe
600c
6000
dff0
0060
01c0
0300
fffe
0300
0300
0300
0f00
0300
ENDCHAR
STARTCHAR 3359
ENCODING 13145
SWIDTH 960 0
DWIDTH 16 0
BBX 16 16 0 -2
BITMAP
0030
00e0
0f80
0c00
0ffc
0c30
0c30
0c30
ffff
0180
318c
318c
318c
318c
3ffc
300c
ENDCHAR
STARTCHAR 335a
ENCODING 13146
SWIDTH 960 0
DWIDTH 16 0
BBX 16 16 0 -2
BITMAP
00c0
6186
37e6
1a6c
1a68
07e0
0668
1e6e
77e3
0180
ffff
03c0
06a0
1db8
f18f
0180
ENDCHAR
STARTCHAR 335b
ENCODING 13147
SWIDTH 960 0
DWIDTH 16 0
BBX 16 16 0 -2
BITMAP
1800
19ff
7f30
6660
d8fe
3ec6
66c6
d4fe
1cc6
1afe
3346
7ec6
d6fe
366c
3ec6
3703
ENDCHAR
STARTCHAR 335c
ENCODING 13148
SWIDTH 960 0
DWIDTH 16 0
BBX 16 16 0 -2
BITMAP
0000
f7ff
d530
d560
f77e
00c6
7efe
00c6
ff46
30fe
30c6
7ec6
66fe
066c
06e6
1dc3
ENDCHAR
STARTCHAR 335d
ENCODING 13149
SWIDTH 960 0
DWIDTH 16 0
BBX 16 16 0 -2
BITMAP
318c
318c
37ec
318c
fd8c
318c
37f6
318d
3d8d
f7ec
318c
318c
31b4
33cc
360c
700c
ENDCHAR
STARTCHAR 335e
ENCODING 13150
SWIDTH 960 0
DWIDTH 16 0
BBX 16 16 0 -2
BITMAP
1830
1830
3fbf
6c68
c6cc
068c
0180
7ffe
0018
1818
0c30
0630
0660
00c0
ffff
0000
ENDCHAR
STARTCHAR 335f
ENCODING 13151
SWIDTH 960 0
DWIDTH 16 0
BBX 16 16 0 -2
BITMAP
3000
37c0
36be
feb6
37d6
36dc
3bd8
76b4
76a6
77c3
d060
33fc
3060
3060
37ff
3000
ENDCHAR
STARTCHAR 3360
ENCODING 13152
SWIDTH 960 0
DWIDTH 16 0
BBX 16 16 0 -2
BITMAP
1800
1bff
1800
fffc
1b6c
3bfc
3d6c
3bff
6a00
6bfc
db6c
1bfc
1b6c
1bfc
1800
1bff
ENDCHAR
STARTCHAR 3361
ENCODING 13153
SWIDTH 960 0
DWIDTH 16 0
BBX 16 16 0 -2
BITMAP
1800
1bfe
1b06
ff06
1bfe
1b0c
3d38
3be0
3b60
6bfe
6b60
dbff
1a60
1a63
1c63
183f
ENDCHAR
STARTCHAR 3362
ENCODING 13154
SWIDTH 960 0
DWIDTH 16 0
BBX 16 16 0 -2
BITMAP
1868
1ed8
3798
6d9a
feba
6bfa
6abc
7ea8
6ad8
6bd8
7eac
06b4
75b4
6aa6
6ac6
c183
ENDCHAR
STARTCHAR 3363
ENCODING 13155
SWIDTH 960 0
DWIDTH 16 0
BBX 16 16 0 -2
BITMAP
30c0
1980
1b78
0618
c7b8
6618
6618
07f8
1980
19fe
3306
3636
675a
66a6
cd86
d81c
ENDCHAR
STARTCHAR 3364
ENCODING 13156
SWIDTH 960 0
DWIDTH 16 0
BBX 16 16 0 -2
BITMAP
0c06
7fd6
61b6
cc36
7fb6
0c36
7fb6
0c36
ffd6
0036
3fb6
31b6
3186
3186
3f86
318e
ENDCHAR
STARTCHAR 3365
ENCODING 13157
SWIDTH 960 0
DWIDTH 16 0
BBX 16 16 0 -2
BITMAP
0000
03f8
fb18
db18
dbf8
db18
db18
dbf8
d8c0
d9fe
fb36
dbe6
0d06
0336
01f6
001c
ENDCHAR
STARTCHAR 3366
ENCODING 13158
SWIDTH 960 0
DWIDTH 16 0
BBX 16 16 0 -2
BITMAP
1860
1860
18d0
18d0
1d98
6a8c
6b06
6afd
dc00
1800
19fc
198c
198c
198c
19fc
198c
ENDCHAR
STARTCHAR 3367
ENCODING 13159
SWIDTH 960 0
DWIDTH 16 0
BBX 16 16 0 -2
BITMAP
300c
3038
33e0
3060
fc60
3060
37ff
3060
3c60
f060
33fc
330c
330c
330c
33fc
730c
ENDCHAR
STARTCHAR 3368
ENCODING 13160
SWIDTH 960 0
DWIDTH 16 0
BBX 16 16 0 -2
BITMAP
300c
1838
1be0
0060
0060
c060
6fff
6060
1860
1860
33fc
330c
630c
630c
c3fc
c30c
ENDCHAR
STARTCHAR 3369
ENCODING 13161
SWIDTH 960 0
DWIDTH 16 0
BBX 16 16 0 -2
BITMAP
3000
1bf8
1b18
03f8
c318
6318
63f8
00c0
19fe
1b36
3766
35c6
631a
61fa
c00c
c038
ENDCHAR
STARTCHAR 336a
ENCODING 13162
SWIDTH 960 0
DWIDTH 16 0
BBX 16 16 0 -2
BITMAP
3000
1bf8
1b18
0378
0368
cfff
6c06
6df8
1b18
03f8
3318
33f8
6318
6318
c338
c318
ENDCHAR
STARTCHAR 336b
ENCODING 13163
SWIDTH 960 0
DWIDTH 16 0
BBX 16 16 0 -2
BITMAP
0c60
0c60
fffe
0c60
1ff0
1830
1ff0
1830
1ff0
0600
0ffe
3ce6
ef86
0c36
07f6
001c
ENDCHAR
STARTCHAR 336c
ENCODING 13164
SWIDTH 960 0
DWIDTH 16 0
BBX 16 16 0 -2
BITMAP
1800
19fc
198c
fefc
068c
0d8c
0dfc
1a60
3a7e
6cda
dad6
1b66
18da
187a
1806
181c
ENDCHAR
STARTCHAR 336d
ENCODING 13165
SWIDTH 960 0
DWIDTH 16 0
BBX 16 16 0 -2
BITMAP
1830
1830
ffff
1986
7f30
6afe
6a30
7efc
6a30
6aff
7e00
18fc
ff4c
18cc
18fc
18cc
ENDCHAR
STARTCHAR 336e
ENCODING 13166
SWIDTH 960 0
DWIDTH 16 0
BBX 16 16 0 -2
BITMAP
0000
1ff0
1830
1830
1830
1ff0
1830
1830
1830
1ff0
1830
1830
1830
1830
fffe
0000
ENDCHAR
STARTCHAR 336f
ENCODING 13167
SWIDTH 960 0
DWIDTH 16 0
BBX 16 16 0 -2
BITMAP
1800
1ef0
36be
6daa
fefa
6aba
6af4
7eae
6aaa
6af3
7e30
0d7c
76b0
6a30
6bff
c000
ENDCHAR
STARTCHAR 3370
ENCODING 13168
SWIDTH 960 0
DWIDTH 16 0
BBX 16 16 0 -2
BITMAP
0030
0030
7e30
6630
6630
6630
67ff
6630
6630
6630
6630
7e30
6630
6030
0030
0030
ENDCHAR
STARTCHAR 3371
ENCODING 13169
SWIDTH 960 0
DWIDTH 16 0
BBX 16 16 0 -2
BITMAP
1998
1998
1bff
fe98
1998
18d0
3cd0
3ab6
39b4
6bb8
6ab0
d9b0
19b0
19b3
19b3
199f
ENDCHAR
STARTCHAR 3372
ENCODING 13170
SWIDTH 960 0
DWIDTH 16 0
BBX 16 16 0 -2
BITMAP
18d8
18d8
1bff
fcd8
1bfe
19ac
3dac
3bff
39ac
69ac
6bfe
d860
1bff
1860
1860
1860
ENDCHAR
STARTCHAR 3373
ENCODING 13171
SWIDTH 960 0
DWIDTH 16 0
BBX 16 16 0 -2
BITMAP
3660
3660
ff60
36fe
36c6
3efa
199a
7f1a
6b7a
6b46
7f46
18dc
ffc0
18c3
18c3
187f
ENDCHAR
STARTCHAR 3374
ENCODING 13172
SWIDTH 960 0
DWIDTH 16 0
BBX 16 16 0 -2
BITMAP
1830
19b0
19b0
feb0
1bfe
1b30
3d30
3a30
3bff
6870
68d8
d8d8
19b4
1b36
1a33
1830
ENDCHAR
STARTCHAR 3375
ENCODING 13173
SWIDTH 960 0
DWIDTH 16 0
BBX 16 16 0 -2
BITMAP
0d80
1b00
77dc
66cc
66cc
67cc
66cc
66cc
7bdc
600c
06c0
06c0
06c6
0cc6
38c6
e07e
ENDCHAR
STARTCHAR 3376
ENCODING 13174
SWIDTH 960 0
DWIDTH 16 0
BBX 16 16 0 -2
BITMAP
0300
7ffe
6d6c
dbde
3300
fffe
1b30
1ff0
1b30
3ff8
3318
3ff8
3318
3ffa
0306
01fe
ENDCHAR
STARTCHAR 3377
ENCODING 13175
SWIDTH 960 0
DWIDTH 16 0
BBX 16 16 0 -2
BITMAP
0660
0660
ffff
0668
386c
0ffe
0060
e3fc
336c
03fc
1b6c
1bfc
336c
336c
636c
c36c
ENDCHAR
STARTCHAR 3378
ENCODING 13176
SWIDTH 960 0
DWIDTH 16 0
BBX 16 16 0 -2
BITMAP
0660
0c38
1a6c
7346
0180
0760
1c38
f7f7
0180
0180
ffff
1998
0d98
0db0
7ffe
0000
ENDCHAR
STARTCHAR 3379
ENCODING 13177
SWIDTH 960 0
DWIDTH 16 0
BBX 16 16 0 -2
BITMAP
1998
18d0
37ff
36d0
63fc
fed4
18d4
1bff
fed4
1bfc
d8d8
6dd4
69d6
1f53
3ad0
e0d0
ENDCHAR
STARTCHAR 337a
ENCODING 13178
SWIDTH 960 0
DWIDTH 16 0
BBX 16 16 0 -2
BITMAP
0060
0360
fb7e
db60
db60
dfff
da66
daaa
daf6
dbfe
da66
faf6
daaa
0766
07fe
0606
ENDCHAR
STARTCHAR 337b
ENCODING 13179
SWIDTH 960 0
DWIDTH 16 0
BBX 16 16 0 -2
BITMAP
0060
fec0
dafc
da8c
dafc
fe8c
dafc
da80
daff
fe80
19fe
186a
1bb6
1b56
1ac6
1c1c
ENDCHAR
STARTCHAR 337c
ENCODING 13180
SWIDTH 960 0
DWIDTH 16 0
BBX 16 16 0 -2
BITMAP
1800
1bff
1860
fe60
18c0
19fc
3d8c
3a8c
3a8c
69fc
698c
d98c
198c
198c
19fc
198c
ENDCHAR
STARTCHAR 337d
ENCODING 13181
SWIDTH 960 0
DWIDTH 16 0
BBX 16 16 0 -2
BITMAP
0630
0630
ffff
0630
1ff8
0030
0760
01c0
fffe
01cc
0358
06c0
0cc0
38c0
e3c0
00c0
ENDCHAR
STARTCHAR 337e
ENCODING 13182
SWIDTH 960 0
DWIDTH 16 0
BBX 16 16 0 -2
BITMAP
1860
1860
fffe
1860
0300
7ffe
600c
dff8
0000
1ff0
1830
1ff0
1830
1ff0
0000
fffe
ENDCHAR
STARTCHAR 3421
ENCODING 13345
SWIDTH 960 0
DWIDTH 16 0
BBX 16 16 0 -2
BITMAP
0000
f9be
1da6
1aa6
1ac6
799e
6ff8
6198
7bde
1bc6
1aa6
1aa6
1db6
1986
318c
e038
ENDCHAR
STARTCHAR 3422
ENCODING 13346
SWIDTH 960 0
DWIDTH 16 0
BBX 16 16 0 -2
BITMAP
0306
0366
0366
0366
6366
3366
1a66
0e66
0666
0d66
0d66
1986
1986
3186
601e
c006
ENDCHAR
STARTCHAR 3423
ENCODING 13347
SWIDTH 960 0
DWIDTH 16 0
BBX 16 16 0 -2
BITMAP
0630
0630
ffff
0630
0636
0306
7366
1b66
0e66
0666
0d66
0d66
1986
3186
619e
c006
ENDCHAR
STARTCHAR 3424
ENCODING 13348
SWIDTH 960 0
DWIDTH 16 0
BBX 16 16 0 -2
BITMAP
0000
7ffe
0600
0600
0600
07f0
0630
0630
0730
06b0
0db0
0c30
0c30
0dd6
1e36
f01e
ENDCHAR
STARTCHAR 3425
ENCODING 13349
SWIDTH 960 0
DWIDTH 16 0
BBX 16 16 0 -2
BITMAP
18c0
18c0
ff40
18ff
7ec0
6680
66fc
7f0c
6618
6630
7e60
1860
ffc6
18c6
18c6
187e
ENDCHAR
STARTCHAR 3426
ENCODING 13350
SWIDTH 960 0
DWIDTH 16 0
BBX 16 16 0 -2
BITMAP
0c00
0dfc
0d0c
1b0c
1b0c
33fc
3000
736c
d36c
336c
336c
336c
336c
366d
366d
3407
ENDCHAR
STARTCHAR 3427
ENCODING 13351
SWIDTH 960 0
DWIDTH 16 0
BBX 16 16 0 -2
BITMAP
0000
7ffe
600c
c000
7f18
0018
01fe
ff18
3698
36d8
36d8
3618
3618
663a
6306
c1fe
ENDCHAR
STARTCHAR 3428
ENCODING 13352
SWIDTH 960 0
DWIDTH 16 0
BBX 16 16 0 -2
BITMAP
0300
0300
fffe
c006
ccc6
3ff8
0cc0
3ff8
0cc0
fffe
0c60
3bb8
e0ce
1f00
01e0
0030
ENDCHAR
STARTCHAR 3429
ENCODING 13353
SWIDTH 960 0
DWIDTH 16 0
BBX 16 16 0 -2
BITMAP
0006
7fa6
0c66
0c66
0c66
0c66
ffe6
0c66
0c66
0c66
0c66
0c06
0c06
0c06
0c1e
0c06
ENDCHAR
STARTCHAR 342a
ENCODING 13354
SWIDTH 960 0
DWIDTH 16 0
BBX 16 16 0 -2
BITMAP
3330
3330
ffb0
3330
3f7e
3336
3f36
3336
ffb6
6a36
6a36
6aa6
73a6
6066
7f46
619c
ENDCHAR
STARTCHAR 342b
ENCODING 13355
SWIDTH 960 0
DWIDTH 16 0
BBX 16 16 0 -2
BITMAP
3030
3030
3fb0
6c30
6cfe
dfb6
1b36
3636
7fb6
d636
3f66
3666
3f66
36c6
3fc6
319c
ENDCHAR
STARTCHAR 342c
ENCODING 13356
SWIDTH 960 0
DWIDTH 16 0
BBX 16 16 0 -2
BITMAP
1998
0d98
0db0
3ffe
0180
0340
ffff
0660
0ff0
383c
e037
0ff0
0c00
0c18
0c18
07f8
ENDCHAR
STARTCHAR 342d
ENCODING 13357
SWIDTH 960 0
DWIDTH 16 0
BBX 16 16 0 -2
BITMAP
0180
01f8
fb30
da60
dffc
daac
daac
daac
dabc
db0c
fa6c
dfff
0060
00d0
039c
1e07
ENDCHAR
STARTCHAR 342e
ENCODING 13358
SWIDTH 960 0
DWIDTH 16 0
BBX 16 16 0 -2
BITMAP
018c
318c
37ff
318c
31fc
fd8c
31fc
318c
318c
37ff
36d0
36d6
3a9e
e700
07ff
0600
ENDCHAR
STARTCHAR 342f
ENCODING 13359
SWIDTH 960 0
DWIDTH 16 0
BBX 16 16 0 -2
BITMAP
0300
0300
7ffc
0660
0cc0
1f80
06f0
7c18
0c30
ffff
1b6c
1b6c
7df4
0e38
1b6c
f1c6
ENDCHAR
STARTCHAR 3430
ENCODING 13360
SWIDTH 960 0
DWIDTH 16 0
BBX 16 16 0 -2
BITMAP
0300
0300
7ffe
600c
c000
3ff8
0000
0000
fffe
06c0
06c0
06c0
0cc6
18c6
3066
e03e
ENDCHAR
STARTCHAR 3431
ENCODING 13361
SWIDTH 960 0
DWIDTH 16 0
BBX 16 16 0 -2
BITMAP
0300
0300
7ffe
600c
dff0
1830
1830
1ff0
1830
1800
1ff8
1818
1818
1818
1ff8
1818
ENDCHAR
STARTCHAR 3432
ENCODING 13362
SWIDTH 960 0
DWIDTH 16 0
BBX 16 16 0 -2
BITMAP
0300
0300
7ffe
6c6c
7ff8
cc60
1ff0
1830
1ff0
1830
1ff0
1830
1ff6
06c6
1cc6
f07e
ENDCHAR
STARTCHAR 3433
ENCODING 13363
SWIDTH 960 0
DWIDTH 16 0
BBX 16 16 0 -2
BITMAP
0000
3ffc
0180
0180
0180
0180
0186
ffff
0180
0180
0180
0180
0180
0180
0180
0180
ENDCHAR
STARTCHAR 3434
ENCODING 13364
SWIDTH 960 0
DWIDTH 16 0
BBX 16 16 0 -2
BITMAP
1830
1830
ff68
1868
7ecc
6686
677d
7e30
6630
6630
7fff
1830
ff30
1830
1830
1830
ENDCHAR
STARTCHAR 3435
ENCODING 13365
SWIDTH 960 0
DWIDTH 16 0
BBX 16 16 0 -2
BITMAP
0300
0300
7ff8
6318
7ff8
0300
7ff8
6318
7ff8
6318
0300
3598
358c
6c36
c636
03f0
ENDCHAR
STARTCHAR 3436
ENCODING 13366
SWIDTH 960 0
DWIDTH 16 0
BBX 16 16 0 -2
BITMAP
00d8
00cc
3fff
30c0
3fac
306c
37b8
35b0
37aa
60ce
c186
36cc
36c6
661b
c31b
01f8
ENDCHAR
STARTCHAR 3437
ENCODING 13367
SWIDTH 960 0
DWIDTH 16 0
BBX 16 16 0 -2
BITMAP
1800
19fe
19b6
1bff
1b6c
6dfc
6a00
6bfc
db0c
1bfc
1b0c
1bfc
1b0c
1bfc
18dc
1b87
ENDCHAR
STARTCHAR 3438
ENCODING 13368
SWIDTH 960 0
DWIDTH 16 0
BBX 16 16 0 -2
BITMAP
1834
1836
1bff
1b30
6bf6
6d1a
6bec
6bac
daed
1ab7
1c63
1b50
1b56
1acd
1ccd
187c
ENDCHAR
STARTCHAR 3439
ENCODING 13369
SWIDTH 960 0
DWIDTH 16 0
BBX 16 16 0 -2
BITMAP
30c0
30fc
3198
fd30
37fe
36d6
36d6
36d6
3e9e
f766
3666
37ff
30e0
31b0
331c
7607
ENDCHAR
STARTCHAR 343a
ENCODING 13370
SWIDTH 960 0
DWIDTH 16 0
BBX 16 16 0 -2
BITMAP
0060
7fa0
0c60
0c7f
ffac
334c
336c
3fac
3334
3f34
3338
3398
3f34
f36c
0346
0383
ENDCHAR
STARTCHAR 343b
ENCODING 13371
SWIDTH 960 0
DWIDTH 16 0
BBX 16 16 0 -2
BITMAP
18cc
18cc
18cc
ff4c
1bff
18cc
3ccc
3acc
3b4c
6b7c
68cc
d8cc
18cc
18cc
18fc
18cc
ENDCHAR
STARTCHAR 343c
ENCODING 13372
SWIDTH 960 0
DWIDTH 16 0
BBX 16 16 0 -2
BITMAP
1800
1bfe
1800
fe00
19fc
198c
3d8c
3afc
3a8c
698c
698c
d9fc
198c
1800
1bff
1800
ENDCHAR
STARTCHAR 343d
ENCODING 13373
SWIDTH 960 0
DWIDTH 16 0
BBX 16 16 0 -2
BITMAP
1860
1860
1bff
fd06
1b00
1af8
3d98
3a98
3af8
6980
6980
d9fc
198c
198c
19fc
198c
ENDCHAR
STARTCHAR 343e
ENCODING 13374
SWIDTH 960 0
DWIDTH 16 0
BBX 16 16 0 -2
BITMAP
1860
1860
ff60
187f
18c6
7f54
01b0
7f30
0030
ffb0
1868
6a68
6b6c
db4c
1986
3b03
ENDCHAR
STARTCHAR 343f
ENCODING 13375
SWIDTH 960 0
DWIDTH 16 0
BBX 16 16 0 -2
BITMAP
3060
3060
3fa0
6c7f
cc66
ffd4
1b58
36b0
3fb0
7630
df68
3668
3f6c
36cc
3f86
3303
ENDCHAR
STARTCHAR 3440
ENCODING 13376
SWIDTH 960 0
DWIDTH 16 0
BBX 16 16 0 -2
BITMAP
3000
1bfe
1860
0060
c060
6060
6060
0fff
1860
1860
3060
3060
6060
6060
c060
c060
ENDCHAR
STARTCHAR 3441
ENCODING 13377
SWIDTH 960 0
DWIDTH 16 0
BBX 16 16 0 -2
BITMAP
3198
1998
1fff
0198
c000
67fe
6666
0666
1bfe
1860
37fc
3060
6fff
60d0
c39c
ce07
ENDCHAR
STARTCHAR 3442
ENCODING 13378
SWIDTH 960 0
DWIDTH 16 0
BBX 16 16 0 -2
BITMAP
3000
1bde
1ad6
07de
c6d6
66d6
67de
0606
1afa
1a9a
36fa
369a
669a
66fa
c69a
c60e
ENDCHAR
STARTCHAR 3443
ENCODING 13379
SWIDTH 960 0
DWIDTH 16 0
BBX 16 16 0 -2
BITMAP
6300
3300
33fe
0340
c6c0
67ff
6d98
0330
07fe
1d30
33fc
3330
63fc
6330
c3ff
c300
ENDCHAR
STARTCHAR 3444
ENCODING 13380
SWIDTH 960 0
DWIDTH 16 0
BBX 16 16 0 -2
BITMAP
0000
03fc
ff54
3354
33fc
3000
37ff
fc00
33fc
330c
33fc
35e6
3b54
f6dc
00c7
00c0
ENDCHAR
STARTCHAR 3445
ENCODING 13381
SWIDTH 960 0
DWIDTH 16 0
BBX 16 16 0 -2
BITMAP
0c30
0c30
0c30
0c30
ffff
0c30
0c30
0c30
0c30
0ff0
0c30
0c30
0c30
0c30
0ff0
0c30
ENDCHAR
STARTCHAR 3446
ENCODING 13382
SWIDTH 960 0
DWIDTH 16 0
BBX 16 16 0 -2
BITMAP
0060
7f60
6c60
6c7f
7f40
6340
7fbe
6c00
7f00
0000
3ffc
366c
366c
366c
ffff
0000
ENDCHAR
STARTCHAR 3447
ENCODING 13383
SWIDTH 960 0
DWIDTH 16 0
BBX 16 16 0 -2
BITMAP
0018
00f0
1f80
0180
3ffc
0300
ffff
0600
0ff8
1a18
37f8
6618
07f8
0618
07f8
0618
ENDCHAR
STARTCHAR 3448
ENCODING 13384
SWIDTH 960 0
DWIDTH 16 0
BBX 16 16 0 -2
BITMAP
1860
1860
3fbf
6cd8
c68c
0000
3ffc
0180
0180
0180
ffff
0180
0180
0180
0180
0180
ENDCHAR
STARTCHAR 3449
ENCODING 13385
SWIDTH 960 0
DWIDTH 16 0
BBX 16 16 0 -2
BITMAP
3060
3060
7f7f
6cd0
c698
7ffe
600c
dff0
1830
1ff0
1800
1ff8
1818
1818
1ff8
1818
ENDCHAR
STARTCHAR 344a
ENCODING 13386
SWIDTH 960 0
DWIDTH 16 0
BBX 16 16 0 -2
BITMAP
3060
3fbf
6cd0
c698
7f7e
6346
7f7e
6346
7f7e
6006
6fe6
6c66
6fe6
6c66
6fe6
600e
ENDCHAR
STARTCHAR 344b
ENCODING 13387
SWIDTH 960 0
DWIDTH 16 0
BBX 16 16 0 -2
BITMAP
180c
183a
1be6
f66c
35b4
18d8
1dfe
36c0
fdff
18c0
6cfc
6aac
6ab8
6b30
d8ec
1b87
ENDCHAR
STARTCHAR 344c
ENCODING 13388
SWIDTH 960 0
DWIDTH 16 0
BBX 16 16 0 -2
BITMAP
1800
1800
1800
1ffc
3180
3180
6180
c180
ffff
0180
318c
318c
318c
318c
3ffc
300c
ENDCHAR
STARTCHAR 344d
ENCODING 13389
SWIDTH 960 0
DWIDTH 16 0
BBX 16 16 0 -2
BITMAP
1830
1830
ff68
18cc
7e86
67ff
6666
7f76
66aa
66aa
7e66
18ee
ffaa
1b76
1866
18ee
ENDCHAR
STARTCHAR 344e
ENCODING 13390
SWIDTH 960 0
DWIDTH 16 0
BBX 16 16 0 -2
BITMAP
0000
7efe
6630
6630
6630
7e30
6630
67ff
6630
7e30
6630
6630
6630
6630
6e30
c630
ENDCHAR
STARTCHAR 344f
ENCODING 13391
SWIDTH 960 0
DWIDTH 16 0
BBX 16 16 0 -2
BITMAP
0c0c
19f4
7eac
66af
76f8
6ab0
6af0
ffaf
66f0
7600
6afe
6aaa
6aaa
66aa
6fff
c600
ENDCHAR
STARTCHAR 3450
ENCODING 13392
SWIDTH 960 0
DWIDTH 16 0
BBX 16 16 0 -2
BITMAP
0c30
0c30
ffff
0c30
0180
7ffe
600c
6ff0
c000
0000
fffe
06c0
06c0
0cc6
38c6
e07e
ENDCHAR
STARTCHAR 3451
ENCODING 13393
SWIDTH 960 0
DWIDTH 16 0
BBX 16 16 0 -2
BITMAP
3000
30fe
7f46
68c6
d8fe
ffc6
36c6
34fe
7f46
ecc6
7f7e
6c68
7f68
6cdb
7f9b
630f
ENDCHAR
STARTCHAR 3452
ENCODING 13394
SWIDTH 960 0
DWIDTH 16 0
BBX 16 16 0 -2
BITMAP
0030
7c30
03ff
ff30
01fc
7eb4
01b4
01fc
7eb4
01b4
7efc
6678
66d4
66b6
7f33
6630
ENDCHAR
STARTCHAR 3453
ENCODING 13395
SWIDTH 960 0
DWIDTH 16 0
BBX 16 16 0 -2
BITMAP
0000
1ff8
1998
ffff
3330
3ff0
0000
1ff8
1818
1ff8
1818
1ff8
1818
1ff8
0c38
780e
ENDCHAR
STARTCHAR 3454
ENCODING 13396
SWIDTH 960 0
DWIDTH 16 0
BBX 16 16 0 -2
BITMAP
0000
67fc
36b4
37fc
0000
1fff
0000
fbf8
1b18
1bf8
19c6
1b6c
36d8
36cf
63c0
c0ff
ENDCHAR
STARTCHAR 3455
ENCODING 13397
SWIDTH 960 0
DWIDTH 16 0
BBX 16 16 0 -2
BITMAP
180c
19f4
35ac
36af
61f8
feb0
19f0
19af
fff0
1800
dafe
6daa
6baa
1eaa
3bff
e000
ENDCHAR
STARTCHAR 3456
ENCODING 13398
SWIDTH 960 0
DWIDTH 16 0
BBX 16 16 0 -2
BITMAP
0000
fefe
c6c6
fefe
c6c6
c6c6
fefe
c006
cfe6
cc66
cfe6
cc66
cfe6
cc66
c00e
c006
ENDCHAR
STARTCHAR 3457
ENCODING 13399
SWIDTH 960 0
DWIDTH 16 0
BBX 16 16 0 -2
BITMAP
0000
fefe
c6c6
fefe
c6c6
fefe
c306
c306
dff6
c306
c786
cd46
db66
d336
c30e
c006
ENDCHAR
STARTCHAR 3458
ENCODING 13400
SWIDTH 960 0
DWIDTH 16 0
BBX 16 16 0 -2
BITMAP
0000
fefe
c6c6
fefe
c6c6
fefe
cc66
c6c6
dff6
c306
c306
dffa
c346
c666
cc36
d806
ENDCHAR
STARTCHAR 3459
ENCODING 13401
SWIDTH 960 0
DWIDTH 16 0
BBX 16 16 0 -2
BITMAP
0060
7c60
6c7c
6ccc
68d8
7198
6830
6b7e
6d66
6d66
6d7e
6d66
7b66
6366
637e
6366
ENDCHAR
STARTCHAR 345a
ENCODING 13402
SWIDTH 960 0
DWIDTH 16 0
BBX 16 16 0 -2
BITMAP
1830
19fc
ff6c
186c
7fff
6600
66fc
7e8c
66fe
6618
7efe
18d8
ff58
1bff
1818
1818
ENDCHAR
STARTCHAR 345b
ENCODING 13403
SWIDTH 960 0
DWIDTH 16 0
BBX 16 16 0 -2
BITMAP
1830
1830
35ff
3686
6b00
fefc
66cc
7ecc
66fc
66c0
7ec0
6cfe
66c6
6ec6
7b7e
e0c6
ENDCHAR
STARTCHAR 345c
ENCODING 13404
SWIDTH 960 0
DWIDTH 16 0
BBX 16 16 0 -2
BITMAP
1830
1830
35ff
3686
6300
defc
18cc
18cc
ff7c
18c0
7ec0
66fe
66c6
66c6
7efe
66c6
ENDCHAR
STARTCHAR 345d
ENCODING 13405
SWIDTH 960 0
DWIDTH 16 0
BBX 16 16 0 -2
BITMAP
0600
0600
0600
0600
fff0
0630
0630
1a30
0e30
0630
0d30
0db0
19b6
3036
6036
c01e
ENDCHAR
STARTCHAR 345e
ENCODING 13406
SWIDTH 960 0
DWIDTH 16 0
BBX 16 16 0 -2
BITMAP
0180
0180
0340
0660
0ff0
381c
e007
1ff0
0030
0060
00c0
1ff8
1818
1818
1ff8
1818
ENDCHAR
STARTCHAR 345f
ENCODING 13407
SWIDTH 960 0
DWIDTH 16 0
BBX 16 16 0 -2
BITMAP
0180
318c
318c
3ffc
0000
3fff
3000
37fc
30c0
30c0
3fff
30c0
60c0
60c0
c0c0
00c0
ENDCHAR
STARTCHAR 3460
ENCODING 13408
SWIDTH 960 0
DWIDTH 16 0
BBX 16 16 0 -2
BITMAP
30c6
30c6
3ffe
0d18
3fff
37b0
3630
3fdf
35ac
37ac
35d4
3798
3598
6fb4
6da6
c1c3
ENDCHAR
STARTCHAR 3461
ENCODING 13409
SWIDTH 960 0
DWIDTH 16 0
BBX 16 16 0 -2
BITMAP
0000
01fc
fe00
3000
3000
3000
37ff
fcd8
30d8
30d8
30d8
36d8
3998
e19b
030f
0600
ENDCHAR
STARTCHAR 3462
ENCODING 13410
SWIDTH 960 0
DWIDTH 16 0
BBX 16 16 0 -2
BITMAP
00c0
00c0
1ffe
1800
dbf8
6b18
6bf8
1800
3fbe
6db6
dfde
30cc
34cc
6ccc
cffc
0c0c
ENDCHAR
STARTCHAR 3463
ENCODING 13411
SWIDTH 960 0
DWIDTH 16 0
BBX 16 16 0 -2
BITMAP
0000
7dfc
6d8c
6d8c
6dfc
7d8c
6d8c
6dfe
7db6
6db4
6db4
6d98
7d98
6db4
01c6
0783
ENDCHAR
STARTCHAR 3464
ENCODING 13412
SWIDTH 960 0
DWIDTH 16 0
BBX 16 16 0 -2
BITMAP
0180
318c
318c
318c
3ffc
0000
0000
ffff
0600
0c00
1ff8
3418
ec18
0c18
0ff8
0c18
ENDCHAR
STARTCHAR 3465
ENCODING 13413
SWIDTH 960 0
DWIDTH 16 0
BBX 16 16 0 -2
BITMAP
0000
ffbe
1980
dd80
6a80
3b80
eeff
3bb4
1834
7f34
6334
7f34
6334
636d
7f6d
6347
ENDCHAR
STARTCHAR 3466
ENCODING 13414
SWIDTH 960 0
DWIDTH 16 0
BBX 16 16 0 -2
BITMAP
0000
3ffe
36d8
36fe
35b0
3efc
35b0
37ff
3618
37f8
3618
37f8
6618
67f8
c738
3c0e
ENDCHAR
STARTCHAR 3467
ENCODING 13415
SWIDTH 960 0
DWIDTH 16 0
BBX 16 16 0 -2
BITMAP
0000
3fff
3360
336c
3358
36fe
36d8
3758
3afe
36d8
36d8
36fe
66d8
66d8
c6ff
06c0
ENDCHAR
STARTCHAR 3468
ENCODING 13416
SWIDTH 960 0
DWIDTH 16 0
BBX 16 16 0 -2
BITMAP
0000
03ff
7e30
0060
01fe
0186
ff86
35fe
3586
35fe
3586
3586
6efe
6c6c
c1c6
0703
ENDCHAR
STARTCHAR 3469
ENCODING 13417
SWIDTH 960 0
DWIDTH 16 0
BBX 16 16 0 -2
BITMAP
1800
19ff
ff30
6660
34fe
7f46
66c6
6cfe
6b46
66fe
6cc6
69c6
637e
c66c
1cc6
7383
ENDCHAR
STARTCHAR 346a
ENCODING 13418
SWIDTH 960 0
DWIDTH 16 0
BBX 16 16 0 -2
BITMAP
0000
7fff
6618
6c30
6fbe
69a6
6fa6
69be
69a6
6fbe
6666
6b66
6abe
dad4
d666
0ec3
ENDCHAR
STARTCHAR 346b
ENCODING 13419
SWIDTH 960 0
DWIDTH 16 0
BBX 16 16 0 -2
BITMAP
0180
0180
0340
0660
0c30
399c
e187
0180
19fc
1980
1980
1980
1980
1980
ffff
0000
ENDCHAR
STARTCHAR 346c
ENCODING 13420
SWIDTH 960 0
DWIDTH 16 0
BBX 16 16 0 -2
BITMAP
0c60
0c60
0c60
1fff
1860
3860
3860
6bfc
d98c
18d8
18d8
1870
1870
18d8
198c
1b07
ENDCHAR
STARTCHAR 346d
ENCODING 13421
SWIDTH 960 0
DWIDTH 16 0
BBX 16 16 0 -2
BITMAP
0c00
0ff0
1860
30c0
7ffe
d000
3000
37f8
3618
3618
3618
3670
6606
6606
c306
01fe
ENDCHAR
STARTCHAR 346e
ENCODING 13422
SWIDTH 960 0
DWIDTH 16 0
BBX 16 16 0 -2
BITMAP
0300
fffe
0300
7ffc
0000
3ff8
3018
3ff8
1830
0c60
ffff
0000
3ff8
3018
3ff8
3018
ENDCHAR
STARTCHAR 346f
ENCODING 13423
SWIDTH 960 0
DWIDTH 16 0
BBX 16 16 0 -2
BITMAP
0000
3f7c
334c
334c
3f7c
334c
0180
ffff
0340
0e70
381c
ff7f
334c
334c
3f7c
334c
ENDCHAR
STARTCHAR 3470
ENCODING 13424
SWIDTH 960 0
DWIDTH 16 0
BBX 16 16 0 -2
BITMAP
0c30
0c30
7ffe
0c30
0ff0
0c30
0ff0
0c30
ffff
0db0
1998
37f4
e187
0180
7ffe
0000
ENDCHAR
STARTCHAR 3471
ENCODING 13425
SWIDTH 960 0
DWIDTH 16 0
BBX 16 16 0 -2
BITMAP
0180
0180
7ffe
0340
0660
1c38
0000
ffff
0018
1fd8
18d8
18d8
1fd8
18d8
0018
0038
ENDCHAR
STARTCHAR 3472
ENCODING 13426
SWIDTH 960 0
DWIDTH 16 0
BBX 16 16 0 -2
BITMAP
1830
1bff
1830
19fe
fe00
36fe
3686
36fe
66cc
6c68
fdff
0e00
1afe
3186
e1fe
0186
ENDCHAR
STARTCHAR 3473
ENCODING 13427
SWIDTH 960 0
DWIDTH 16 0
BBX 16 16 0 -2
BITMAP
0300
0300
7ffe
630c
dff8
0380
06c0
1c70
fffe
0030
3fb0
31b0
31b0
3fb0
31b0
0070
ENDCHAR
STARTCHAR 3474
ENCODING 13428
SWIDTH 960 0
DWIDTH 16 0
BBX 16 16 0 -2
BITMAP
3060
3060
37ff
d460
d460
d460
d7fc
d58c
d598
d4d8
d4d0
fc70
cc70
c0d8
038c
0e07
ENDCHAR
STARTCHAR 3475
ENCODING 13429
SWIDTH 960 0
DWIDTH 16 0
BBX 16 16 0 -2
BITMAP
0e0c
03b8
00e0
07b0
7d98
0300
ffff
06c0
0cc0
1ffe
34c6
6cc6
ccc6
0cc6
0cdc
00c0
ENDCHAR
STARTCHAR 3476
ENCODING 13430
SWIDTH 960 0
DWIDTH 16 0
BBX 16 16 0 -2
BITMAP
19b0
19b0
76ec
1ab4
0d98
1ab4
1ebc
73f6
0198
ffff
0cc0
0ecc
1b68
1876
31da
670e
ENDCHAR
STARTCHAR 3477
ENCODING 13431
SWIDTH 960 0
DWIDTH 16 0
BBX 16 16 0 -2
BITMAP
0000
3ff0
0030
0030
3ff0
3000
3018
3018
1ff8
0180
36cc
3666
3663
661b
c318
01f8
ENDCHAR
STARTCHAR 3478
ENCODING 13432
SWIDTH 960 0
DWIDTH 16 0
BBX 16 16 0 -2
BITMAP
3000
33fe
336c
3660
fdfe
3060
33fc
336c
3dfc
f36c
336c
33fc
3060
37ff
3060
7060
ENDCHAR
STARTCHAR 3479
ENCODING 13433
SWIDTH 960 0
DWIDTH 16 0
BBX 16 16 0 -2
BITMAP
1800
18f8
18d8
ff58
18d8
18d8
3cd8
3ad8
3ad8
68d8
6998
d998
1b18
1b1b
1a1b
1c0f
ENDCHAR
STARTCHAR 347a
ENCODING 13434
SWIDTH 960 0
DWIDTH 16 0
BBX 16 16 0 -2
BITMAP
18c0
18c0
18ff
fe80
334c
37ff
30cc
3efc
36cc
36fc
36cc
37ff
6618
666c
c6c6
1d86
ENDCHAR
STARTCHAR 347b
ENCODING 13435
SWIDTH 960 0
DWIDTH 16 0
BBX 16 16 0 -2
BITMAP
0000
7efe
66d8
66d8
7ed8
66d8
66d8
7fff
6038
6c38
6638
6668
6d68
735b
e19b
070f
ENDCHAR
STARTCHAR 347c
ENCODING 13436
SWIDTH 960 0
DWIDTH 16 0
BBX 16 16 0 -2
BITMAP
3300
337e
ffe6
3366
3366
3f7e
3366
3366
3f66
337e
3366
ffe6
3666
3346
634e
c186
ENDCHAR
STARTCHAR 347d
ENCODING 13437
SWIDTH 960 0
DWIDTH 16 0
BBX 16 16 0 -2
BITMAP
18cc
18cc
1bff
ff4c
18cc
18fc
3ccc
3acc
3b7c
68cc
68cc
dbff
1818
18cc
1986
1b06
ENDCHAR
STARTCHAR 347e
ENCODING 13438
SWIDTH 960 0
DWIDTH 16 0
BBX 16 16 0 -2
BITMAP
0180
ffff
0370
061c
3ffa
1998
ffff
1998
1ff8
0180
ffff
06a0
0db0
399c
e187
0180
ENDCHAR
STARTCHAR 3521
ENCODING 13601
SWIDTH 960 0
DWIDTH 16 0
BBX 16 16 0 -2
BITMAP
19ac
19ac
1b78
fdac
19aa
1b7d
3bec
3c66
3bff
69b4
69b4
d9d8
1b6b
1b35
1a67
1cc3
ENDCHAR
STARTCHAR 3522
ENCODING 13602
SWIDTH 960 0
DWIDTH 16 0
BBX 16 16 0 -2
BITMAP
1800
1bfc
180c
69fc
680c
6bfc
6800
6bff
6a63
da63
1bfc
1b6c
1b6c
336c
336c
6060
ENDCHAR
STARTCHAR 3523
ENCODING 13603
SWIDTH 960 0
DWIDTH 16 0
BBX 16 16 0 -2
BITMAP
0c00
0c7c
7fac
336c
1a6d
ffad
18c7
3580
6d7c
1b6c
376c
6eb4
1ad8
3634
66e6
1d83
ENDCHAR
STARTCHAR 3524
ENCODING 13604
SWIDTH 960 0
DWIDTH 16 0
BBX 16 16 0 -2
BITMAP
1800
1800
1ffe
3000
37f8
6000
c000
3ff8
00d8
1cd8
0698
0398
06cd
0c6d
3807
e003
ENDCHAR
STARTCHAR 3525
ENCODING 13605
SWIDTH 960 0
DWIDTH 16 0
BBX 16 16 0 -2
BITMAP
3300
1b00
1bfe
0600
06f8
cc00
6000
6ff8
0018
1818
3018
3018
600d
600d
c007
c003
ENDCHAR
STARTCHAR 3526
ENCODING 13606
SWIDTH 960 0
DWIDTH 16 0
BBX 16 16 0 -2
BITMAP
19b0
1ab4
76ec
1db8
0d98
1ab4
7ebe
0356
ffff
3f58
3558
3f70
3536
356a
3f4e
0386
ENDCHAR
STARTCHAR 3527
ENCODING 13607
SWIDTH 960 0
DWIDTH 16 0
BBX 16 16 0 -2
BITMAP
180c
1838
19e0
fe80
0680
0dff
0d98
1998
3d98
6a98
db98
1998
1b18
1b18
1a18
1818
ENDCHAR
STARTCHAR 3528
ENCODING 13608
SWIDTH 960 0
DWIDTH 16 0
BBX 16 16 0 -2
BITMAP
0018
0070
3fc0
0180
ffff
03c0
06a0
1db8
f18f
0ff0
00c0
0180
ffff
0180
0180
0380
ENDCHAR
STARTCHAR 3529
ENCODING 13609
SWIDTH 960 0
DWIDTH 16 0
BBX 16 16 0 -2
BITMAP
060c
1cec
f838
1bec
1860
ffff
18d0
3cd0
3afe
39d6
6b56
6ad6
d8d6
18dc
18d0
1830
ENDCHAR
STARTCHAR 352a
ENCODING 13610
SWIDTH 960 0
DWIDTH 16 0
BBX 16 16 0 -2
BITMAP
1800
18fe
1a06
f606
3406
1806
1cfe
36c0
fd40
1b40
68c0
6ac0
6b43
6b63
d83f
1800
ENDCHAR
STARTCHAR 352b
ENCODING 13611
SWIDTH 960 0
DWIDTH 16 0
BBX 16 16 0 -2
BITMAP
1b30
1d50
3550
37df
636c
db6c
1ad4
36b4
3354
77d4
d368
3598
355c
3534
3b66
3343
ENDCHAR
STARTCHAR 352c
ENCODING 13612
SWIDTH 960 0
DWIDTH 16 0
BBX 16 16 0 -2
BITMAP
1800
19fc
198c
7f8c
19fc
198c
198c
fffc
198c
1d8c
35fc
36d0
36d0
61b3
631b
ce0f
ENDCHAR
STARTCHAR 352d
ENCODING 13613
SWIDTH 960 0
DWIDTH 16 0
BBX 16 16 0 -2
BITMAP
0000
7efe
0006
ff86
0006
7f06
00fe
7f40
00c0
00c0
7f40
6340
6343
6363
7f3f
6300
ENDCHAR
STARTCHAR 352e
ENCODING 13614
SWIDTH 960 0
DWIDTH 16 0
BBX 16 16 0 -2
BITMAP
0180
1ff0
19b0
1ff0
0180
fffe
0000
1ff0
1830
1ff0
1830
1ff0
1830
1ff0
0e38
780c
ENDCHAR
STARTCHAR 352f
ENCODING 13615
SWIDTH 960 0
DWIDTH 16 0
BBX 16 16 0 -2
BITMAP
0c00
0c7e
7f86
0c06
0c06
0c06
fffe
0c60
3460
37a0
3463
3c33
341f
6e00
63c0
c07f
ENDCHAR
STARTCHAR 3530
ENCODING 13616
SWIDTH 960 0
DWIDTH 16 0
BBX 16 16 0 -2
BITMAP
0c60
0c60
ffa0
0c60
7ffc
6d6c
6d6c
7f6c
6d6c
6d6c
7f6c
0c6c
ffcc
0ccd
0d8d
0d07
ENDCHAR
STARTCHAR 3531
ENCODING 13617
SWIDTH 960 0
DWIDTH 16 0
BBX 16 16 0 -2
BITMAP
1800
18ff
dad6
6ab0
6afe
6c30
18fe
ff56
34fe
34d6
34d6
357e
6e30
6dff
c030
0030
ENDCHAR
STARTCHAR 3532
ENCODING 13618
SWIDTH 960 0
DWIDTH 16 0
BBX 16 16 0 -2
BITMAP
0c00
0cf8
1ad8
1b58
35d8
7f58
d358
3f58
3358
3358
3f58
34d8
36db
375b
3d8f
7300
ENDCHAR
STARTCHAR 3533
ENCODING 13619
SWIDTH 960 0
DWIDTH 16 0
BBX 16 16 0 -2
BITMAP
0030
7f30
6dfe
6c30
7f68
6ccc
6d80
7fff
6c06
6c7a
7faa
35aa
6aba
6aaa
618e
c706
ENDCHAR
STARTCHAR 3534
ENCODING 13620
SWIDTH 960 0
DWIDTH 16 0
BBX 16 16 0 -2
BITMAP
0300
0600
3ff8
3318
3318
3ff8
3318
3318
3ff8
06b0
06b0
0da8
0df8
199a
30c6
e07e
ENDCHAR
STARTCHAR 3535
ENCODING 13621
SWIDTH 960 0
DWIDTH 16 0
BBX 16 16 0 -2
BITMAP
0600
0ff0
1860
3ff8
e998
1ff8
1998
1ff8
0180
3ffc
318c
3ffc
318c
3ffd
0183
00ff
ENDCHAR
STARTCHAR 3536
ENCODING 13622
SWIDTH 960 0
DWIDTH 16 0
BBX 16 16 0 -2
BITMAP
1a60
1b60
1b60
1bf8
30d8
30d8
31fc
718c
d30c
33fe
3636
355a
3aaa
36a6
3406
301c
ENDCHAR
STARTCHAR 3537
ENCODING 13623
SWIDTH 960 0
DWIDTH 16 0
BBX 16 16 0 -2
BITMAP
1b18
19b0
3bfe
3060
33f8
7060
77ff
d0d8
37b4
3330
37ff
3336
33dc
371a
3336
3766
ENDCHAR
STARTCHAR 3538
ENCODING 13624
SWIDTH 960 0
DWIDTH 16 0
BBX 16 16 0 -2
BITMAP
1830
1830
1bff
1830
ff30
3630
36fc
36cc
66cc
6c68
fc68
0e30
1b68
30cc
e186
0703
ENDCHAR
STARTCHAR 3539
ENCODING 13625
SWIDTH 960 0
DWIDTH 16 0
BBX 16 16 0 -2
BITMAP
0300
0300
7ffe
600c
6000
dfe0
1860
1860
1fe0
1860
1860
1fe0
1860
1860
fffe
0000
ENDCHAR
STARTCHAR 353a
ENCODING 13626
SWIDTH 960 0
DWIDTH 16 0
BBX 16 16 0 -2
BITMAP
1838
1f34
1834
7fd7
69bc
6ef6
79b6
6fb6
6a34
6ab4
6b18
7a18
6ab5
6b6d
dcc7
7003
ENDCHAR
STARTCHAR 353b
ENCODING 13627
SWIDTH 960 0
DWIDTH 16 0
BBX 16 16 0 -2
BITMAP
3060
3060
3060
37ff
fc60
3060
3060
37fc
318c
3d98
f0d8
3070
3070
30d8
738c
3607
ENDCHAR
STARTCHAR 353c
ENCODING 13628
SWIDTH 960 0
DWIDTH 16 0
BBX 16 16 0 -2
BITMAP
3600
36fe
3786
3634
fad8
33ff
361b
37da
3568
fb6e
37e8
3368
33b8
36e8
74cc
3987
ENDCHAR
STARTCHAR 353d
ENCODING 13629
SWIDTH 960 0
DWIDTH 16 0
BBX 16 16 0 -2
BITMAP
3360
3360
ffa0
337f
3366
3f54
3350
33b0
3f30
3330
3338
ffa8
366c
334c
6186
c703
ENDCHAR
STARTCHAR 353e
ENCODING 13630
SWIDTH 960 0
DWIDTH 16 0
BBX 16 16 0 -2
BITMAP
198c
18d8
6bfe
6860
7efc
6860
6bff
d86c
1bda
1cd8
3bff
e8da
18ec
1bdd
18f7
19c3
ENDCHAR
STARTCHAR 353f
ENCODING 13631
SWIDTH 960 0
DWIDTH 16 0
BBX 16 16 0 -2
BITMAP
6000
66fe
7c6c
6338
6318
3fff
3036
3f34
6cd0
ccde
7fd0
0cd0
1af0
1bb0
319c
6307
ENDCHAR
STARTCHAR 3540
ENCODING 13632
SWIDTH 960 0
DWIDTH 16 0
BBX 16 16 0 -2
BITMAP
180c
1838
19f0
feb0
06b0
0db0
0db0
19ff
3db0
6a98
db98
1998
198c
19b5
19c7
1b03
ENDCHAR
STARTCHAR 3541
ENCODING 13633
SWIDTH 960 0
DWIDTH 16 0
BBX 16 16 0 -2
BITMAP
0c30
0660
7ffe
0180
3ffc
0180
ffff
0768
7c6c
0c60
ffff
0c36
0fb4
fc1b
0c75
1dc7
ENDCHAR
STARTCHAR 3542
ENCODING 13634
SWIDTH 960 0
DWIDTH 16 0
BBX 16 16 0 -2
BITMAP
18cc
1868
19fe
1830
7efe
6a30
6bff
6a6c
7fda
18d8
1dff
1ada
1aea
1fcd
fb5b
01d3
ENDCHAR
STARTCHAR 3543
ENCODING 13635
SWIDTH 960 0
DWIDTH 16 0
BBX 16 16 0 -2
BITMAP
0060
7c60
01ff
fe86
0300
7dfc
018c
018c
7dfc
018c
7d8c
6dfc
6d8c
6d8c
7fff
6c00
ENDCHAR
STARTCHAR 3544
ENCODING 13636
SWIDTH 960 0
DWIDTH 16 0
BBX 16 16 0 -2
BITMAP
00cc
7c68
01fe
fe30
01fc
7c30
07ff
006c
7dda
00d8
7dff
6cda
6cea
6dcd
7cdb
6dd3
ENDCHAR
STARTCHAR 3545
ENCODING 13637
SWIDTH 960 0
DWIDTH 16 0
BBX 16 16 0 -2
BITMAP
3300
3300
3300
33fe
fe06
36da
3556
3346
3bfe
f0c6
31e6
31d6
335a
36c6
30cc
7038
ENDCHAR
STARTCHAR 3546
ENCODING 13638
SWIDTH 960 0
DWIDTH 16 0
BBX 16 16 0 -2
BITMAP
0c60
0c60
ffff
0c60
1800
1ffe
3b06
3566
6d46
fffa
0786
0d46
1b66
7336
030c
0038
ENDCHAR
STARTCHAR 3547
ENCODING 13639
SWIDTH 960 0
DWIDTH 16 0
BBX 16 16 0 -2
BITMAP
34c0
34c0
fefe
3586
356a
3eaa
19b6
7ffe
6a66
6af6
7eea
19ae
ffa6
1b66
186c
1838
ENDCHAR
STARTCHAR 3548
ENCODING 13640
SWIDTH 960 0
DWIDTH 16 0
BBX 16 16 0 -2
BITMAP
0180
0180
0180
ffff
0180
0180
0180
3ffc
0000
0000
1ff8
1818
1818
1818
1ff8
1818
ENDCHAR
STARTCHAR 3549
ENCODING 13641
SWIDTH 960 0
DWIDTH 16 0
BBX 16 16 0 -2
BITMAP
0180
0180
f980
dbff
db00
db00
dafc
dc18
d830
d860
d8c0
f980
db06
0306
0306
01fe
ENDCHAR
STARTCHAR 354a
ENCODING 13642
SWIDTH 960 0
DWIDTH 16 0
BBX 16 16 0 -2
BITMAP
0300
037e
ffda
db1a
db1a
dfda
db36
dbd6
de6c
d8c0
ffff
d8c0
01a0
0330
0e1c
3807
ENDCHAR
STARTCHAR 354b
ENCODING 13643
SWIDTH 960 0
DWIDTH 16 0
BBX 16 16 0 -2
BITMAP
1860
1860
1860
ffff
1860
1860
3c60
3bfe
3a00
6800
69fc
d98c
198c
198c
19fc
198c
ENDCHAR
STARTCHAR 354c
ENCODING 13644
SWIDTH 960 0
DWIDTH 16 0
BBX 16 16 0 -2
BITMAP
1800
19fc
18d8
fe70
1bfe
18d4
39b0
3d70
3bfe
6b56
6b56
dbbe
1b7a
1b5a
1b7a
1b0e
ENDCHAR
STARTCHAR 354d
ENCODING 13645
SWIDTH 960 0
DWIDTH 16 0
BBX 16 16 0 -2
BITMAP
0060
7e60
0060
ffff
0060
7e60
0060
03fe
7e00
0000
7efc
668c
668c
668c
7efc
668c
ENDCHAR
STARTCHAR 354e
ENCODING 13646
SWIDTH 960 0
DWIDTH 16 0
BBX 16 16 0 -2
BITMAP
0060
ff60
1860
1860
187e
1860
3e60
3660
7660
76fc
d68c
368c
3e8c
368c
31fc
018c
ENDCHAR
STARTCHAR 354f
ENCODING 13647
SWIDTH 960 0
DWIDTH 16 0
BBX 16 16 0 -2
BITMAP
18c0
18c0
18c0
fefe
19b0
19b0
3d30
3a30
3bff
6830
6830
d830
1830
1830
1830
1830
ENDCHAR
STARTCHAR 3550
ENCODING 13648
SWIDTH 960 0
DWIDTH 16 0
BBX 16 16 0 -2
BITMAP
0018
00f0
3f80
0180
ffff
06a0
1db8
f34f
0660
1db8
f59f
06b0
07e0
1db8
718e
0380
ENDCHAR
STARTCHAR 3551
ENCODING 13649
SWIDTH 960 0
DWIDTH 16 0
BBX 16 16 0 -2
BITMAP
0c00
0c7e
7fa6
0c66
0c66
0c66
0c66
ffe6
1866
1a66
1b66
3366
37ac
fda0
01a0
0060
ENDCHAR
STARTCHAR 3552
ENCODING 13650
SWIDTH 960 0
DWIDTH 16 0
BBX 16 16 0 -2
BITMAP
0300
0300
7ffe
660c
c7e0
0c60
1ac0
7380
06c0
0c60
3ff8
e836
1830
1830
1ff0
1830
ENDCHAR
STARTCHAR 3553
ENCODING 13651
SWIDTH 960 0
DWIDTH 16 0
BBX 16 16 0 -2
BITMAP
0180
7dbe
6db6
6ff6
6db6
7db6
6db6
6ff6
6db6
7db6
6dd6
6d56
6d7c
6fb0
6c70
dc30
ENDCHAR
STARTCHAR 3554
ENCODING 13652
SWIDTH 960 0
DWIDTH 16 0
BBX 16 16 0 -2
BITMAP
00c0
00fe
00c0
3ffe
330c
33f8
3f06
33fe
3000
37fc
3400
37fc
6c00
6c00
cffe
0c00
ENDCHAR
STARTCHAR 3555
ENCODING 13653
SWIDTH 960 0
DWIDTH 16 0
BBX 16 16 0 -2
BITMAP
0318
6198
31b0
37ff
0060
036c
036c
fb6c
1b6c
1bfc
1b6c
1860
1cc0
3580
6700
c1ff
ENDCHAR
STARTCHAR 3556
ENCODING 13654
SWIDTH 960 0
DWIDTH 16 0
BBX 16 16 0 -2
BITMAP
0030
01e0
1f00
1800
1800
1800
1ffc
1860
1860
1860
1860
1860
1860
1860
fffe
0000
ENDCHAR
STARTCHAR 3557
ENCODING 13655
SWIDTH 960 0
DWIDTH 16 0
BBX 16 16 0 -2
BITMAP
0300
0300
03f0
0630
0630
0c60
1860
30c0
00c0
01c0
01a0
0360
0630
0c18
380c
e007
ENDCHAR
STARTCHAR 3558
ENCODING 13656
SWIDTH 960 0
DWIDTH 16 0
BBX 16 16 0 -2
BITMAP
0d80
0d80
0d80
1980
19f0
1fb0
31b0
71b0
d1b0
31b0
31b0
3336
3336
3636
341e
3800
ENDCHAR
STARTCHAR 3559
ENCODING 13657
SWIDTH 960 0
DWIDTH 16 0
BBX 16 16 0 -2
BITMAP
18c0
18c0
18c0
18c0
37fe
31e0
31e0
7350
d350
36d8
36cc
34c6
38c3
30c0
30c0
30c0
ENDCHAR
STARTCHAR 355a
ENCODING 13658
SWIDTH 960 0
DWIDTH 16 0
BBX 16 16 0 -2
BITMAP
0000
7fe0
0c60
0cc0
0cc0
0ef0
0e30
0d30
0d30
19a0
18e0
18c0
31a0
3330
6618
dc0e
ENDCHAR
STARTCHAR 355b
ENCODING 13659
SWIDTH 960 0
DWIDTH 16 0
BBX 16 16 0 -2
BITMAP
0000
03f8
fd98
cdb0
cdb0
cdbc
cdcc
cdcc
cdac
cd68
fd68
cd30
c668
06cc
0d86
1b03
ENDCHAR
STARTCHAR 355c
ENCODING 13660
SWIDTH 960 0
DWIDTH 16 0
BBX 16 16 0 -2
BITMAP
0300
0300
7ffe
600c
dff0
1830
1830
1ff0
0300
0600
3ff8
3018
3018
3018
3ff8
3018
ENDCHAR
STARTCHAR 355d
ENCODING 13661
SWIDTH 960 0
DWIDTH 16 0
BBX 16 16 0 -2
BITMAP
0000
7ff0
0030
0030
0030
3ff0
3000
3000
3000
3ff8
3018
0018
0018
0018
0030
01e0
ENDCHAR
STARTCHAR 355e
ENCODING 13662
SWIDTH 960 0
DWIDTH 16 0
BBX 16 16 0 -2
BITMAP
0300
07e0
0cc0
1980
7ff8
0018
0018
1ff8
0018
3ff8
0180
36cc
36c6
66db
c61b
03f8
ENDCHAR
STARTCHAR 355f
ENCODING 13663
SWIDTH 960 0
DWIDTH 16 0
BBX 16 16 0 -2
BITMAP
0d60
0da0
0c60
ffbf
0c6c
cdac
6d4c
6d4c
1eac
1e68
3538
3530
6da8
cccc
1d86
0d03
ENDCHAR
STARTCHAR 3560
ENCODING 13664
SWIDTH 960 0
DWIDTH 16 0
BBX 16 16 0 -2
BITMAP
1800
1bff
1860
fe60
1860
18c0
3cfc
3a8c
3a8c
680c
680c
d80c
180c
180c
1818
1870
ENDCHAR
STARTCHAR 3561
ENCODING 13665
SWIDTH 960 0
DWIDTH 16 0
BBX 16 16 0 -2
BITMAP
01b0
0198
0198
ffff
0180
318c
19cc
0dcc
0da8
01a8
03b0
0698
0d8c
3986
e383
0180
ENDCHAR
STARTCHAR 3562
ENCODING 13666
SWIDTH 960 0
DWIDTH 16 0
BBX 16 16 0 -2
BITMAP
3000
1bf8
1998
0198
c1b0
61bc
618c
01cc
1b58
1b68
3370
3330
6668
66cc
cd86
db03
ENDCHAR
STARTCHAR 3563
ENCODING 13667
SWIDTH 960 0
DWIDTH 16 0
BBX 16 16 0 -2
BITMAP
3060
3060
1860
1bfe
c018
c318
6318
6198
0198
1998
31b0
31b0
61b0
6060
cfff
c000
ENDCHAR
STARTCHAR 3564
ENCODING 13668
SWIDTH 960 0
DWIDTH 16 0
BBX 16 16 0 -2
BITMAP
0600
07f0
0c60
38c0
01c0
0760
1c38
f18f
0d98
0d98
19b0
3340
0660
0c30
381c
e007
ENDCHAR
STARTCHAR 3565
ENCODING 13669
SWIDTH 960 0
DWIDTH 16 0
BBX 16 16 0 -2
BITMAP
006c
0066
fc66
37ff
3060
3666
3376
fdb4
31b4
3068
36e8
35ac
3b66
ee63
0060
00e0
ENDCHAR
STARTCHAR 3566
ENCODING 13670
SWIDTH 960 0
DWIDTH 16 0
BBX 16 16 0 -2
BITMAP
0300
0300
7ffe
6ccc
ccc0
0ccc
187c
3300
6300
3fe0
0360
0660
0666
0c66
1866
703e
ENDCHAR
STARTCHAR 3567
ENCODING 13671
SWIDTH 960 0
DWIDTH 16 0
BBX 16 16 0 -2
BITMAP
0300
0300
fffe
ccc6
38fe
ec00
3f7c
330c
3f7c
3340
3f7c
330c
ff0c
0d0c
3b0c
e738
ENDCHAR
STARTCHAR 3568
ENCODING 13672
SWIDTH 960 0
DWIDTH 16 0
BBX 16 16 0 -2
BITMAP
1860
1860
3fbf
34d0
6698
c000
7ff0
0660
06f8
0718
0db0
0ce0
18e0
33b0
6e1c
d807
ENDCHAR
STARTCHAR 3569
ENCODING 13673
SWIDTH 960 0
DWIDTH 16 0
BBX 16 16 0 -2
BITMAP
1800
1bfc
1acc
f6d8
34d8
18de
1ce6
36e6
fd54
18d4
6db8
6a98
6ab4
6b6c
dac6
1983
ENDCHAR
STARTCHAR 356a
ENCODING 13674
SWIDTH 960 0
DWIDTH 16 0
BBX 16 16 0 -2
BITMAP
1818
18d8
1ad8
f6d8
34d8
18d8
1cd8
36d8
fd58
18df
6cf8
6bd8
6a18
6a18
d818
1818
ENDCHAR
STARTCHAR 356b
ENCODING 13675
SWIDTH 960 0
DWIDTH 16 0
BBX 16 16 0 -2
BITMAP
1830
1830
1a68
f668
34cc
1986
1d7d
3600
fd00
1b7c
68cc
6acc
6b4c
6b4c
d8fc
18cc
ENDCHAR
STARTCHAR 356c
ENCODING 13676
SWIDTH 960 0
DWIDTH 16 0
BBX 16 16 0 -2
BITMAP
6000
67fc
660c
660c
660c
660c
660c
67fc
660c
660c
660c
660c
660c
660c
67fc
660c
ENDCHAR
STARTCHAR 356d
ENCODING 13677
SWIDTH 960 0
DWIDTH 16 0
BBX 16 16 0 -2
BITMAP
0180
0d80
0d80
0d80
1ffc
1980
3180
6180
0180
ffff
0180
0180
0180
0180
0180
0180
ENDCHAR
STARTCHAR 356e
ENCODING 13678
SWIDTH 960 0
DWIDTH 16 0
BBX 16 16 0 -2
BITMAP
0180
0180
0180
3ffc
0180
0180
0180
0180
ffff
0300
0360
0630
0618
0df8
7f0c
000c
ENDCHAR
STARTCHAR 356f
ENCODING 13679
SWIDTH 960 0
DWIDTH 16 0
BBX 16 16 0 -2
BITMAP
0000
3ffc
300c
300c
3ffc
30cc
30c0
3fff
30c0
30c0
37fc
340c
6c0c
6c0c
cffc
0c0c
ENDCHAR
STARTCHAR 3570
ENCODING 13680
SWIDTH 960 0
DWIDTH 16 0
BBX 16 16 0 -2
BITMAP
0000
7ffc
6000
6000
6000
7ff0
6030
6030
6030
7ff0
6030
6000
6000
6000
7ffc
6000
ENDCHAR
STARTCHAR 3571
ENCODING 13681
SWIDTH 960 0
DWIDTH 16 0
BBX 16 16 0 -2
BITMAP
1800
19fe
1980
1980
fe80
19fc
198c
198c
198c
1efc
f98c
1980
1980
1980
39ff
1980
ENDCHAR
STARTCHAR 3572
ENCODING 13682
SWIDTH 960 0
DWIDTH 16 0
BBX 16 16 0 -2
BITMAP
3300
333c
3334
3334
ffd4
36d4
36d4
3554
35b4
39ac
f3ad
334d
36c7
3460
7838
300f
ENDCHAR
STARTCHAR 3573
ENCODING 13683
SWIDTH 960 0
DWIDTH 16 0
BBX 16 16 0 -2
BITMAP
1b0c
0d8c
0d98
ffff
0660
0c70
39dc
ef87
0180
3ffc
0180
0180
7ffe
0180
0180
0380
ENDCHAR
STARTCHAR 3574
ENCODING 13684
SWIDTH 960 0
DWIDTH 16 0
BBX 16 16 0 -2
BITMAP
0000
3bfe
0d00
73fc
1b0c
030c
0dfc
3b00
e3fe
0180
ffff
03c0
06a0
1db8
f18f
0180
ENDCHAR
STARTCHAR 3575
ENCODING 13685
SWIDTH 960 0
DWIDTH 16 0
BBX 16 16 0 -2
BITMAP
0180
01fe
0180
3fff
3306
3374
3fc0
3306
31fe
3360
3b6c
356c
6d68
6360
dfff
0000
ENDCHAR
STARTCHAR 3576
ENCODING 13686
SWIDTH 960 0
DWIDTH 16 0
BBX 16 16 0 -2
BITMAP
00c0
7ec0
00c0
ff7e
01b0
7eb0
0330
7e30
07ff
0030
7e30
6630
6630
6630
7e30
6630
ENDCHAR
STARTCHAR 3577
ENCODING 13687
SWIDTH 960 0
DWIDTH 16 0
BBX 16 16 0 -2
BITMAP
0000
7efe
6680
6680
6680
66fc
7e8c
198c
698c
6efc
6980
6980
6980
6f80
79ff
e180
ENDCHAR
STARTCHAR 3578
ENCODING 13688
SWIDTH 960 0
DWIDTH 16 0
BBX 16 16 0 -2
BITMAP
1800
19fe
3586
3686
61fe
fe98
1998
19ff
ff98
1998
dabe
6da6
69a6
1f66
3b7e
e666
ENDCHAR
STARTCHAR 3579
ENCODING 13689
SWIDTH 960 0
DWIDTH 16 0
BBX 16 16 0 -2
BITMAP
30c0
18c0
19f8
0330
0e60
c3fc
636c
636c
1bfc
1b6c
336c
33fc
6600
66b6
ccdb
d8db
ENDCHAR
STARTCHAR 357a
ENCODING 13690
SWIDTH 960 0
DWIDTH 16 0
BBX 16 16 0 -2
BITMAP
3600
37de
6d36
dff6
3336
75d6
d536
35dc
3630
37f8
0000
7fff
06b0
1d9c
7186
0380
ENDCHAR
STARTCHAR 357b
ENCODING 13691
SWIDTH 960 0
DWIDTH 16 0
BBX 16 16 0 -2
BITMAP
0600
0600
07f0
0c60
38c0
eff8
1998
1998
1ff8
1998
1998
1ff8
3018
34cc
6666
c666
ENDCHAR
STARTCHAR 357c
ENCODING 13692
SWIDTH 960 0
DWIDTH 16 0
BBX 16 16 0 -2
BITMAP
0180
0180
ffff
0000
1ff8
1818
1ff8
0000
7ffc
0018
0070
01c0
0180
0180
0180
0380
ENDCHAR
STARTCHAR 357d
ENCODING 13693
SWIDTH 960 0
DWIDTH 16 0
BBX 16 16 0 -2
BITMAP
0180
0180
ffff
0000
1ff8
1818
1ff8
0000
3ff8
0060
00c0
fffe
0180
0180
0180
0380
ENDCHAR
STARTCHAR 357e
ENCODING 13694
SWIDTH 960 0
DWIDTH 16 0
BBX 16 16 0 -2
BITMAP
0180
0180
0180
ffff
0000
1ff8
1818
1818
1818
1ff8
0180
0db0
1998
318c
e386
0180
ENDCHAR
STARTCHAR 3621
ENCODING 13857
SWIDTH 960 0
DWIDTH 16 0
BBX 16 16 0 -2
BITMAP
0d98
0d98
0d98
1998
1bfe
3998
3998
6998
d998
1fff
1800
1998
198c
1b0c
1a06
1c06
ENDCHAR
STARTCHAR 3622
ENCODING 13858
SWIDTH 960 0
DWIDTH 16 0
BBX 16 16 0 -2
BITMAP
0cc0
0cc0
0ffe
18c0
1ad8
3358
3358
7350
d0c0
3fff
30e0
31a0
31b0
3318
360c
3c06
ENDCHAR
STARTCHAR 3623
ENCODING 13859
SWIDTH 960 0
DWIDTH 16 0
BBX 16 16 0 -2
BITMAP
0c1c
0df0
0cc0
1fff
1998
33fc
369b
71f8
d000
37fe
3606
36fa
369a
36fa
369e
3606
ENDCHAR
STARTCHAR 3624
ENCODING 13860
SWIDTH 960 0
DWIDTH 16 0
BBX 16 16 0 -2
BITMAP
0060
3068
36d8
3358
3198
3358
3668
3c68
3018
3ff8
36d8
06c0
0cc0
18c6
3066
e03e
ENDCHAR
STARTCHAR 3625
ENCODING 13861
SWIDTH 960 0
DWIDTH 16 0
BBX 16 16 0 -2
BITMAP
0c30
0c30
7ffe
334c
1a68
ffff
0000
3f7c
334c
334c
3f7c
1a68
1a68
36ab
675b
c68f
ENDCHAR
STARTCHAR 3626
ENCODING 13862
SWIDTH 960 0
DWIDTH 16 0
BBX 16 16 0 -2
BITMAP
0c60
0c60
0c60
0c60
7ffc
0c60
0c60
0c60
0c60
ffff
0000
0c60
0c30
1818
300c
600c
ENDCHAR
STARTCHAR 3627
ENCODING 13863
SWIDTH 960 0
DWIDTH 16 0
BBX 16 16 0 -2
BITMAP
0000
0030
6036
6036
6e66
63a6
60c6
60e6
61b6
6336
661a
6c1a
6806
6006
7ffe
6006
ENDCHAR
STARTCHAR 3628
ENCODING 13864
SWIDTH 960 0
DWIDTH 16 0
BBX 16 16 0 -2
BITMAP
30c0
30c0
37fc
30cc
30cc
fd8c
3338
3618
3618
3fff
36db
36db
36db
34db
34d3
3bae
ENDCHAR
STARTCHAR 3629
ENCODING 13865
SWIDTH 960 0
DWIDTH 16 0
BBX 16 16 0 -2
BITMAP
0000
7ffe
6000
6000
6ff8
6180
6180
6ff0
6180
6180
6180
6ffc
6000
6000
7ffe
6000
ENDCHAR
STARTCHAR 362a
ENCODING 13866
SWIDTH 960 0
DWIDTH 16 0
BBX 16 16 0 -2
BITMAP
0c00
1bde
76d6
6ad6
6bd6
6ad6
6ad6
6bd6
6a36
6b36
7ab6
ead6
1bdc
3670
3030
6030
ENDCHAR
STARTCHAR 362b
ENCODING 13867
SWIDTH 960 0
DWIDTH 16 0
BBX 16 16 0 -2
BITMAP
000c
000c
7ecc
66cc
66cc
66cc
66cc
66cc
66cc
66cc
66cf
7efc
67cc
000c
000c
000c
ENDCHAR
STARTCHAR 362c
ENCODING 13868
SWIDTH 960 0
DWIDTH 16 0
BBX 16 16 0 -2
BITMAP
0078
3fc0
0300
fffe
0660
0ff0
3a6c
e7e6
0000
3ffc
300c
37ec
366c
37ec
366c
300c
ENDCHAR
STARTCHAR 362d
ENCODING 13869
SWIDTH 960 0
DWIDTH 16 0
BBX 16 16 0 -2
BITMAP
0060
3060
37fe
3318
31b0
ffff
3000
33fc
330c
33fc
350c
3bfc
e0d0
01b3
0733
1c1f
ENDCHAR
STARTCHAR 362e
ENCODING 13870
SWIDTH 960 0
DWIDTH 16 0
BBX 16 16 0 -2
BITMAP
3030
3030
33fe
d430
d5b6
d4d6
d4d4
d430
d7ff
d430
d430
fc68
cc68
00cc
0186
0703
ENDCHAR
STARTCHAR 362f
ENCODING 13871
SWIDTH 960 0
DWIDTH 16 0
BBX 16 16 0 -2
BITMAP
00c0
fcd0
0d9c
0ffa
0c63
7c60
63fc
636c
7d6c
6d6c
0dfc
0d6c
0c66
0c7e
1bc3
7003
ENDCHAR
STARTCHAR 3630
ENCODING 13872
SWIDTH 960 0
DWIDTH 16 0
BBX 16 16 0 -2
BITMAP
0000
ffff
0c00
0dfc
0d6c
7dfc
636c
67fe
7c00
0dfc
0d6c
0dfc
0d6c
0dfc
1800
77ff
ENDCHAR
STARTCHAR 3631
ENCODING 13873
SWIDTH 960 0
DWIDTH 16 0
BBX 16 16 0 -2
BITMAP
1860
1860
1860
1bfc
6c60
6a60
6a60
6860
dbff
1860
1860
18d8
18cc
19bc
1bc6
1806
ENDCHAR
STARTCHAR 3632
ENCODING 13874
SWIDTH 960 0
DWIDTH 16 0
BBX 16 16 0 -2
BITMAP
0000
fff8
3318
3318
3358
3568
3b6a
e61a
0c0e
0300
0d80
34d8
34cc
6c36
c636
03f0
ENDCHAR
STARTCHAR 3633
ENCODING 13875
SWIDTH 960 0
DWIDTH 16 0
BBX 16 16 0 -2
BITMAP
0660
0660
3ffc
0660
0660
0660
ffff
0c30
1b18
330c
e307
1b58
1b6c
336c
6300
0700
ENDCHAR
STARTCHAR 3634
ENCODING 13876
SWIDTH 960 0
DWIDTH 16 0
BBX 16 16 0 -2
BITMAP
3060
3060
37fe
3060
fe6c
336c
31ac
31a8
3fff
f060
30d0
30d0
3198
330c
3606
7403
ENDCHAR
STARTCHAR 3635
ENCODING 13877
SWIDTH 960 0
DWIDTH 16 0
BBX 16 16 0 -2
BITMAP
0c60
0da0
7fa0
0da0
0d7f
ffe6
0666
7f66
1b54
36b4
ec18
0f98
fc34
0c6c
0dc6
1f03
ENDCHAR
STARTCHAR 3636
ENCODING 13878
SWIDTH 960 0
DWIDTH 16 0
BBX 16 16 0 -2
BITMAP
181c
1bf0
1860
ffff
18d8
19fc
3b5b
3cf8
6a00
6bfe
db06
1b7a
1b5a
1b7a
1b5a
1b0e
ENDCHAR
STARTCHAR 3637
ENCODING 13879
SWIDTH 960 0
DWIDTH 16 0
BBX 16 16 0 -2
BITMAP
3000
1bfc
1a0c
060c
c60c
660c
67fc
06b4
19b0
19b0
31b0
3330
6330
6633
cc33
d81f
ENDCHAR
STARTCHAR 3638
ENCODING 13880
SWIDTH 960 0
DWIDTH 16 0
BBX 16 16 0 -2
BITMAP
0c00
cdfe
6860
3060
3060
6860
d860
1bfc
3860
3860
6860
d860
1860
1860
efff
3000
ENDCHAR
STARTCHAR 3639
ENCODING 13881
SWIDTH 960 0
DWIDTH 16 0
BBX 16 16 0 -2
BITMAP
0c60
cc60
6bfe
3060
766c
d36c
19ac
19a8
3fff
3860
68d0
d8d0
1998
1b0c
ea06
3403
ENDCHAR
STARTCHAR 363a
ENCODING 13882
SWIDTH 960 0
DWIDTH 16 0
BBX 16 16 0 -2
BITMAP
301c
33f0
3060
7fff
68d8
d9fc
1b5b
fef8
1800
1bfe
3506
377a
675a
637a
c35e
0306
ENDCHAR
STARTCHAR 363b
ENCODING 13883
SWIDTH 960 0
DWIDTH 16 0
BBX 16 16 0 -2
BITMAP
0180
7d80
6d80
6dfe
6d36
7db6
6f6a
6d6a
6d5a
7d5a
6d9a
6d1a
6dfa
6d06
6c0c
cc38
ENDCHAR
STARTCHAR 363c
ENCODING 13884
SWIDTH 960 0
DWIDTH 16 0
BBX 16 16 0 -2
BITMAP
0180
1ff0
0730
3ce0
1830
fffe
3366
eedc
1ff8
1818
1ff8
1818
1ff8
1818
1818
1838
ENDCHAR
STARTCHAR 363d
ENCODING 13885
SWIDTH 960 0
DWIDTH 16 0
BBX 16 16 0 -2
BITMAP
0c00
1800
77fe
6c36
6ff6
7c3e
6dd6
6d56
7d5e
6dd6
6d56
6c36
ffff
0c70
381c
e006
ENDCHAR
STARTCHAR 363e
ENCODING 13886
SWIDTH 960 0
DWIDTH 16 0
BBX 16 16 0 -2
BITMAP
0660
ffff
0660
1ff8
0180
ffff
0660
0ff0
3a6c
e7e7
0000
3ffc
37ec
366c
37ec
301c
ENDCHAR
STARTCHAR 363f
ENCODING 13887
SWIDTH 960 0
DWIDTH 16 0
BBX 16 16 0 -2
BITMAP
1800
1bde
36d6
36d6
efd4
3ad8
1ad4
1fd6
3633
6eb3
fad3
1adb
36b6
3770
6e30
c030
ENDCHAR
STARTCHAR 3640
ENCODING 13888
SWIDTH 960 0
DWIDTH 16 0
BBX 16 16 0 -2
BITMAP
1830
1830
35fe
368c
60d8
ffff
1800
19fc
ff8c
19fc
da8c
6dfc
6868
1edb
399b
e70f
ENDCHAR
STARTCHAR 3641
ENCODING 13889
SWIDTH 960 0
DWIDTH 16 0
BBX 16 16 0 -2
BITMAP
33ee
ed6a
6bea
336c
3dea
ed5b
1beb
376e
6198
dffe
0660
ffff
0ff0
0c30
0ff0
0c30
ENDCHAR
STARTCHAR 3642
ENCODING 13890
SWIDTH 960 0
DWIDTH 16 0
BBX 16 16 0 -2
BITMAP
33ee
ed6a
6bea
336c
3dea
ed5b
1bef
31a8
e358
07f0
1c3c
f7f7
0c30
0ff4
0de8
ff3e
ENDCHAR
STARTCHAR 3643
ENCODING 13891
SWIDTH 960 0
DWIDTH 16 0
BBX 16 16 0 -2
BITMAP
1a60
7fbf
1a6c
3fd4
3eb8
6a98
deb4
0766
1ffb
1980
1ff8
1980
1ffc
6b6c
6db4
c038
ENDCHAR
STARTCHAR 3644
ENCODING 13892
SWIDTH 960 0
DWIDTH 16 0
BBX 16 16 0 -2
BITMAP
0cc0
0d80
0f7e
1a66
1a66
3666
3666
7666
d666
3666
36e6
37a6
366c
3060
3060
3060
ENDCHAR
STARTCHAR 3645
ENCODING 13893
SWIDTH 960 0
DWIDTH 16 0
BBX 16 16 0 -2
BITMAP
0c00
0dbe
6f06
3434
3598
078c
06ff
379a
351c
3368
6fee
6368
66a8
c6d8
ccdc
1987
ENDCHAR
STARTCHAR 3646
ENCODING 13894
SWIDTH 960 0
DWIDTH 16 0
BBX 16 16 0 -2
BITMAP
0300
0300
7ff8
0300
1b30
1830
fffe
1830
1830
0000
fffe
06c0
06c0
0cc6
18c6
707e
ENDCHAR
STARTCHAR 3647
ENCODING 13895
SWIDTH 960 0
DWIDTH 16 0
BBX 16 16 0 -2
BITMAP
0060
0060
fbfc
d860
d9a8
d998
dfff
f998
d998
d800
dbfe
d9b0
f9b0
db33
0633
1c1f
ENDCHAR
STARTCHAR 3648
ENCODING 13896
SWIDTH 960 0
DWIDTH 16 0
BBX 16 16 0 -2
BITMAP
0360
1b6c
0d68
ffff
0c18
0630
7fff
0180
3ffe
0180
ffff
06a0
0db0
399c
e187
0180
ENDCHAR
STARTCHAR 3649
ENCODING 13897
SWIDTH 960 0
DWIDTH 16 0
BBX 16 16 0 -2
BITMAP
0000
3ffc
300c
300c
3ffc
300c
3000
3ffe
3006
37f6
3636
3636
37f6
6636
600c
c038
ENDCHAR
STARTCHAR 364a
ENCODING 13898
SWIDTH 960 0
DWIDTH 16 0
BBX 16 16 0 -2
BITMAP
0660
0660
0660
0660
7ffe
6666
6666
6666
6666
7ffe
6666
6666
6666
6666
7ffe
6006
ENDCHAR
STARTCHAR 364b
ENCODING 13899
SWIDTH 960 0
DWIDTH 16 0
BBX 16 16 0 -2
BITMAP
3000
37fe
30c0
fec0
31e0
307e
3ba6
76aa
76ac
d7ac
d6aa
3073
31c0
3000
37ff
3000
ENDCHAR
STARTCHAR 364c
ENCODING 13900
SWIDTH 960 0
DWIDTH 16 0
BBX 16 16 0 -2
BITMAP
0000
7ffe
0180
0180
0180
0180
0180
3ffc
0180
0180
01b0
0198
0198
0180
ffff
0000
ENDCHAR
STARTCHAR 364d
ENCODING 13901
SWIDTH 960 0
DWIDTH 16 0
BBX 16 16 0 -2
BITMAP
1800
1bfe
1b06
ff06
1bfe
1b06
3d06
3b7a
3b5a
6b5a
6b5a
db7a
1b5a
1b06
1b06
1b0e
ENDCHAR
STARTCHAR 364e
ENCODING 13902
SWIDTH 960 0
DWIDTH 16 0
BBX 16 16 0 -2
BITMAP
180c
1a38
daf0
6a30
6c30
1830
ff30
1bff
3c30
3a30
6b30
6830
d830
1830
1830
1830
ENDCHAR
STARTCHAR 364f
ENCODING 13903
SWIDTH 960 0
DWIDTH 16 0
BBX 16 16 0 -2
BITMAP
0d98
0d98
0fff
1998
1bfe
3666
3666
77fe
d060
33fc
3060
33fc
3060
3060
37ff
3000
ENDCHAR
STARTCHAR 3650
ENCODING 13904
SWIDTH 960 0
DWIDTH 16 0
BBX 16 16 0 -2
BITMAP
3330
3330
ffd0
3330
00fe
7fb6
6db6
6db6
7fb6
0c36
7fb6
0c66
7fa6
0c66
0f46
f99c
ENDCHAR
STARTCHAR 3651
ENCODING 13905
SWIDTH 960 0
DWIDTH 16 0
BBX 16 16 0 -2
BITMAP
00c0
18c0
18c0
19fe
fe86
1b06
1ac6
1866
1806
181a
1e36
38e6
e386
0006
000c
0078
ENDCHAR
STARTCHAR 3652
ENCODING 13906
SWIDTH 960 0
DWIDTH 16 0
BBX 16 16 0 -2
BITMAP
0300
0300
0300
0300
7ffc
630c
630c
630c
630c
630c
630c
6338
6300
0300
0300
0300
ENDCHAR
STARTCHAR 3653
ENCODING 13907
SWIDTH 960 0
DWIDTH 16 0
BBX 16 16 0 -2
BITMAP
0c30
0c60
1cfc
1acc
337c
7f4c
cccc
0cfc
ff30
0dfe
6db6
36b6
35b6
0fbc
39b0
e030
ENDCHAR
STARTCHAR 3654
ENCODING 13908
SWIDTH 960 0
DWIDTH 16 0
BBX 16 16 0 -2
BITMAP
0018
0070
1fc0
1800
1800
1800
1fff
1860
1860
1860
1860
3060
3060
6060
c060
0060
ENDCHAR
STARTCHAR 3655
ENCODING 13909
SWIDTH 960 0
DWIDTH 16 0
BBX 16 16 0 -2
BITMAP
0660
0c60
7860
607f
60c6
7f54
6db0
6d30
6c30
6c38
6c68
6c68
6c6c
6ccc
cd86
0f03
ENDCHAR
STARTCHAR 3656
ENCODING 13910
SWIDTH 960 0
DWIDTH 16 0
BBX 16 16 0 -2
BITMAP
18c0
18c0
34c0
36ff
6346
feb4
19b0
1b30
ff30
1838
da38
6c68
6b6c
1ecc
3986
e703
ENDCHAR
STARTCHAR 3657
ENCODING 13911
SWIDTH 960 0
DWIDTH 16 0
BBX 16 16 0 -2
BITMAP
0000
ff7e
1818
7efe
1818
1b98
3dbf
e340
0660
1c38
f7ef
0000
1ff0
0060
00c0
0180
ENDCHAR
STARTCHAR 3658
ENCODING 13912
SWIDTH 960 0
DWIDTH 16 0
BBX 16 16 0 -2
BITMAP
0c30
0c30
ffff
1c78
1e74
3554
6db6
cc33
1ff8
0000
ffff
0180
0db0
399c
e186
0380
ENDCHAR
STARTCHAR 3659
ENCODING 13913
SWIDTH 960 0
DWIDTH 16 0
BBX 16 16 0 -2
BITMAP
0180
0340
0660
0db0
3ffc
eb5b
1998
1b68
1ff8
0300
3ffc
334c
336c
36d4
3f0c
301c
ENDCHAR
STARTCHAR 365a
ENCODING 13914
SWIDTH 960 0
DWIDTH 16 0
BBX 16 16 0 -2
BITMAP
3060
3060
3f7f
6cd8
66cc
c1a0
3e60
36fe
3666
3e66
3666
3666
3ec6
66c6
6686
cf1c
ENDCHAR
STARTCHAR 365b
ENCODING 13915
SWIDTH 960 0
DWIDTH 16 0
BBX 16 16 0 -2
BITMAP
0000
7ffc
6ccc
7f6c
6368
7f30
6c68
7fce
0360
1ed0
039c
fffa
0d70
3b1c
e306
0300
ENDCHAR
STARTCHAR 365c
ENCODING 13916
SWIDTH 960 0
DWIDTH 16 0
BBX 16 16 0 -2
BITMAP
0630
0630
ffff
0630
0060
0fc0
0c00
0c00
0fff
0c60
0c60
1860
1860
3060
6060
0060
ENDCHAR
STARTCHAR 365d
ENCODING 13917
SWIDTH 960 0
DWIDTH 16 0
BBX 16 16 0 -2
BITMAP
0c60
0c60
ffff
0c60
7ffe
6036
61e6
6f86
6186
7ffe
66a6
6db6
699a
6186
7ffe
6006
ENDCHAR
STARTCHAR 365e
ENCODING 13918
SWIDTH 960 0
DWIDTH 16 0
BBX 16 16 0 -2
BITMAP
1830
1830
1868
fe68
06cc
0d86
0d7d
1b00
3e00
6afc
db0c
180c
1818
1818
1830
1860
ENDCHAR
STARTCHAR 365f
ENCODING 13919
SWIDTH 960 0
DWIDTH 16 0
BBX 16 16 0 -2
BITMAP
3198
3198
37ff
fd98
0ddc
1baa
1a9b
3698
39fc
7400
d7ff
31a8
31ac
3366
36e6
3060
ENDCHAR
STARTCHAR 3660
ENCODING 13920
SWIDTH 960 0
DWIDTH 16 0
BBX 16 16 0 -2
BITMAP
00cc
7ecc
03ff
fecc
01fe
7eb6
01b6
01fe
7e30
01fe
7e30
66fe
6630
6630
7fff
6600
ENDCHAR
STARTCHAR 3661
ENCODING 13921
SWIDTH 960 0
DWIDTH 16 0
BBX 16 16 0 -2
BITMAP
000c
6038
33e0
3300
0300
03fe
0330
fb30
1b30
1b30
1a30
1a30
1c30
3430
6700
c1ff
ENDCHAR
STARTCHAR 3662
ENCODING 13922
SWIDTH 960 0
DWIDTH 16 0
BBX 16 16 0 -2
BITMAP
0180
0180
0340
0660
0c30
381c
eff7
0180
0180
3ffe
0180
1998
0d98
0db0
7ffe
0000
ENDCHAR
STARTCHAR 3663
ENCODING 13923
SWIDTH 960 0
DWIDTH 16 0
BBX 16 16 0 -2
BITMAP
0060
0060
fcd0
ccd0
cd98
cd0c
cefa
cc03
cc00
cdfc
cc0c
fc18
cc18
0030
0030
0060
ENDCHAR
STARTCHAR 3664
ENCODING 13924
SWIDTH 960 0
DWIDTH 16 0
BBX 16 16 0 -2
BITMAP
0c00
0cfc
1ccc
1acc
337c
7fcc
cccc
0cfc
ff56
0cd6
6d54
36d8
34d8
0f54
38e6
e383
ENDCHAR
STARTCHAR 3665
ENCODING 13925
SWIDTH 960 0
DWIDTH 16 0
BBX 16 16 0 -2
BITMAP
0000
0600
0600
0600
ffe0
0660
0660
0660
0660
0c60
0c60
0c60
1866
3066
603e
c000
ENDCHAR
STARTCHAR 3666
ENCODING 13926
SWIDTH 960 0
DWIDTH 16 0
BBX 16 16 0 -2
BITMAP
0c00
0dfc
0d0c
1b0c
1bfc
330c
330c
73fc
d30c
330c
33fc
3000
37ff
31b8
330c
3606
ENDCHAR
STARTCHAR 3667
ENCODING 13927
SWIDTH 960 0
DWIDTH 16 0
BBX 16 16 0 -2
BITMAP
0c00
0c00
0c00
1ffe
1806
3006
6fe6
cc66
0c66
0c66
0c66
0fe6
0c66
0006
000c
0038
ENDCHAR
STARTCHAR 3668
ENCODING 13928
SWIDTH 960 0
DWIDTH 16 0
BBX 16 16 0 -2
BITMAP
0000
7ffe
6018
6018
6018
6030
6e30
63a0
60c0
61a0
6330
6618
6c18
6800
7fff
6000
ENDCHAR
STARTCHAR 3669
ENCODING 13929
SWIDTH 960 0
DWIDTH 16 0
BBX 16 16 0 -2
BITMAP
0d80
cd80
6980
33fe
6b06
da06
0df6
1db6
35b6
6db6
cdb6
0df6
0db6
1806
e80c
3038
ENDCHAR
STARTCHAR 366a
ENCODING 13930
SWIDTH 960 0
DWIDTH 16 0
BBX 16 16 0 -2
BITMAP
00c0
00c0
fcf8
3198
3198
3318
3630
fc30
3060
3060
30d0
36d8
3d8c
f30c
0606
1c06
ENDCHAR
STARTCHAR 366b
ENCODING 13931
SWIDTH 960 0
DWIDTH 16 0
BBX 16 16 0 -2
BITMAP
3000
31fe
3180
3f80
6980
69fc
d98c
198c
ff8c
19fc
358c
3680
3680
6680
61ff
c180
ENDCHAR
STARTCHAR 366c
ENCODING 13932
SWIDTH 960 0
DWIDTH 16 0
BBX 16 16 0 -2
BITMAP
0c30
0c30
ffff
0c30
0db0
0180
ffff
0180
0180
0180
1ff8
1818
1818
1818
1ff8
1818
ENDCHAR
STARTCHAR 366d
ENCODING 13933
SWIDTH 960 0
DWIDTH 16 0
BBX 16 16 0 -2
BITMAP
1800
31fe
7e80
668c
7e8c
66ac
7eb8
6698
679c
7eb4
e6b6
0ea6
1ac0
3680
eeff
0680
ENDCHAR
STARTCHAR 366e
ENCODING 13934
SWIDTH 960 0
DWIDTH 16 0
BBX 16 16 0 -2
BITMAP
0000
7f7f
6cc0
6cc6
7f46
6cd6
7f5c
6ccc
6ccc
7fda
0dda
76d6
6ae0
69c0
c37f
0ec0
ENDCHAR
STARTCHAR 366f
ENCODING 13935
SWIDTH 960 0
DWIDTH 16 0
BBX 16 16 0 -2
BITMAP
000c
7f98
6c70
6c60
7f60
6c7f
7f6c
6c6c
6c6c
7fac
0dac
76ac
6aac
69ac
c1ff
0700
ENDCHAR
STARTCHAR 3670
ENCODING 13936
SWIDTH 960 0
DWIDTH 16 0
BBX 16 16 0 -2
BITMAP
0060
7f60
6c7e
6c66
7f46
6cfa
7faa
6d6a
6c6a
7faa
0dba
76aa
6a86
6986
c18c
0738
ENDCHAR
STARTCHAR 3671
ENCODING 13937
SWIDTH 960 0
DWIDTH 16 0
BBX 16 16 0 -2
BITMAP
0000
1ff0
1830
1830
1ff0
1830
1830
1ff0
1830
1830
1ff0
0000
ffff
0ce0
3838
e00c
ENDCHAR
STARTCHAR 3672
ENCODING 13938
SWIDTH 960 0
DWIDTH 16 0
BBX 16 16 0 -2
BITMAP
0000
3ff0
3330
3ff0
3330
3ff0
0300
fffc
c374
c3ec
de0c
c19c
34c0
34d4
6c36
c7f6
ENDCHAR
STARTCHAR 3673
ENCODING 13939
SWIDTH 960 0
DWIDTH 16 0
BBX 16 16 0 -2
BITMAP
0180
01fc
0180
3fff
333a
3fe0
3306
31fe
368c
36fc
3600
37f8
6018
6fff
c738
3c0e
ENDCHAR
STARTCHAR 3674
ENCODING 13940
SWIDTH 960 0
DWIDTH 16 0
BBX 16 16 0 -2
BITMAP
0060
0060
fcd0
cd98
cd6c
cefb
cd98
cdf8
cd98
cd9a
cdfa
fdac
cdb0
c198
01ec
0f07
ENDCHAR
STARTCHAR 3675
ENCODING 13941
SWIDTH 960 0
DWIDTH 16 0
BBX 16 16 0 -2
BITMAP
0300
0300
7ffe
6ccc
6cc0
cccc
18cc
307c
6000
3ff8
0300
0300
0300
0300
fffe
0000
ENDCHAR
STARTCHAR 3676
ENCODING 13942
SWIDTH 960 0
DWIDTH 16 0
BBX 16 16 0 -2
BITMAP
0c00
0ffc
0e6c
1a6c
1bfc
366c
366c
77fc
d060
37fe
3476
346a
3476
35ce
3406
340e
ENDCHAR
STARTCHAR 3677
ENCODING 13943
SWIDTH 960 0
DWIDTH 16 0
BBX 16 16 0 -2
BITMAP
0300
0300
7ffe
600c
6ff0
db30
1ff0
1b30
1ff0
0300
7ffc
634c
6374
7fdc
600c
601c
ENDCHAR
STARTCHAR 3678
ENCODING 13944
SWIDTH 960 0
DWIDTH 16 0
BBX 16 16 0 -2
BITMAP
0000
63fc
336c
33fc
036c
036c
03fc
f860
1bfe
1a66
1a6a
1a7a
36da
360e
6380
c0ff
ENDCHAR
STARTCHAR 3679
ENCODING 13945
SWIDTH 960 0
DWIDTH 16 0
BBX 16 16 0 -2
BITMAP
0000
7dfc
6d6c
6d6c
6bfc
736c
6b6c
6dfc
6c60
6ffe
6e66
6e6a
7a76
66ee
6606
660e
ENDCHAR
STARTCHAR 367a
ENCODING 13946
SWIDTH 960 0
DWIDTH 16 0
BBX 16 16 0 -2
BITMAP
0180
0180
3ffc
318c
318c
3ffc
0180
0180
7ffe
6186
6186
7ffe
6186
0180
0180
0180
ENDCHAR
STARTCHAR 367b
ENCODING 13947
SWIDTH 960 0
DWIDTH 16 0
BBX 16 16 0 -2
BITMAP
3330
3330
33df
faa8
36cc
3400
77de
7ad6
77d6
d6d6
d7d6
3636
36b6
37dc
36d0
30d0
ENDCHAR
STARTCHAR 367c
ENCODING 13948
SWIDTH 960 0
DWIDTH 16 0
BBX 16 16 0 -2
BITMAP
1806
18d6
34d6
36d6
6356
fed6
18d6
18d6
ff56
18d6
dad6
6cd6
69b6
1e86
3b06
e606
ENDCHAR
STARTCHAR 367d
ENCODING 13949
SWIDTH 960 0
DWIDTH 16 0
BBX 16 16 0 -2
BITMAP
0000
3ffc
300c
300c
3ffc
30c0
36d8
3350
37f8
3418
37f8
3418
6ff8
6c18
cc18
0c38
ENDCHAR
STARTCHAR 367e
ENCODING 13950
SWIDTH 960 0
DWIDTH 16 0
BBX 16 16 0 -2
BITMAP
0000
3ffc
300c
300c
3ffc
3180
3598
3598
37f8
3598
3180
398c
698c
698c
dffc
180c
ENDCHAR
STARTCHAR 3721
ENCODING 14113
SWIDTH 960 0
DWIDTH 16 0
BBX 16 16 0 -2
BITMAP
3000
37fe
3606
3606
fffe
3630
36b6
36b6
3eb6
f6fe
3630
36b6
35b6
35b6
39fe
7186
ENDCHAR
STARTCHAR 3722
ENCODING 14114
SWIDTH 960 0
DWIDTH 16 0
BBX 16 16 0 -2
BITMAP
0300
0300
7ffe
66cc
dcfc
7000
3ffc
300c
3ffc
34d8
34d8
37f8
68cc
68cc
dffc
180c
ENDCHAR
STARTCHAR 3723
ENCODING 14115
SWIDTH 960 0
DWIDTH 16 0
BBX 16 16 0 -2
BITMAP
0180
018c
7ed8
06d0
0da0
19b0
319c
e387
1ff8
1818
1818
1ff8
1818
1818
1ff8
1818
ENDCHAR
STARTCHAR 3724
ENCODING 14116
SWIDTH 960 0
DWIDTH 16 0
BBX 16 16 0 -2
BITMAP
3670
3670
ffb0
36d6
36d6
3ed4
19d8
7f50
6b50
6b50
7f50
18d3
ffd3
18d3
18df
18c0
ENDCHAR
STARTCHAR 3725
ENCODING 14117
SWIDTH 960 0
DWIDTH 16 0
BBX 16 16 0 -2
BITMAP
318c
37ec
e9ba
37ec
6aaa
ffff
36ac
7bee
759d
d7f4
318c
1ff8
1818
1818
1ff8
1818
ENDCHAR
STARTCHAR 3726
ENCODING 14118
SWIDTH 960 0
DWIDTH 16 0
BBX 16 16 0 -2
BITMAP
0300
0300
7ffe
66cc
6cc6
f87e
0060
73fc
1860
e7fe
3060
0060
1bfc
3060
6fff
c000
ENDCHAR
STARTCHAR 3727
ENCODING 14119
SWIDTH 960 0
DWIDTH 16 0
BBX 16 16 0 -2
BITMAP
18c0
36cc
ff78
01c6
7ec6
667e
7e00
66cc
7ef8
66c6
66c6
6e7e
3018
34cc
6666
c666
ENDCHAR
STARTCHAR 3728
ENCODING 14120
SWIDTH 960 0
DWIDTH 16 0
BBX 16 16 0 -2
BITMAP
0000
7dfc
6d6c
6d6c
6bfc
736c
6b6c
6bfc
6c00
6fff
6d4c
6d68
7b30
6318
63cc
6f07
ENDCHAR
STARTCHAR 3729
ENCODING 14121
SWIDTH 960 0
DWIDTH 16 0
BBX 16 16 0 -2
BITMAP
0300
07f0
1c60
70c0
01a0
0730
1d9c
f9b7
0db0
0da0
ffff
06a0
0db0
399c
e187
0180
ENDCHAR
STARTCHAR 372a
ENCODING 14122
SWIDTH 960 0
DWIDTH 16 0
BBX 16 16 0 -2
BITMAP
0000
ffff
0660
0660
3ffc
366c
366c
3ffc
0180
ffff
06a0
0db0
399c
e187
0180
0180
ENDCHAR
STARTCHAR 372b
ENCODING 14123
SWIDTH 960 0
DWIDTH 16 0
BBX 16 16 0 -2
BITMAP
1800
18fc
1acc
f6cc
34fc
1bef
1d6b
376b
fdef
1830
6dff
6a78
6ad4
6ab6
db33
1830
ENDCHAR
STARTCHAR 372c
ENCODING 14124
SWIDTH 960 0
DWIDTH 16 0
BBX 16 16 0 -2
BITMAP
0000
1ff0
0660
03c0
0e70
ff7e
366c
1db8
f6ef
0180
ffff
06a0
0db0
399c
e187
0180
ENDCHAR
STARTCHAR 372d
ENCODING 14125
SWIDTH 960 0
DWIDTH 16 0
BBX 16 16 0 -2
BITMAP
1868
18d8
35d8
36da
635a
feda
1bea
18dc
ff68
19d8
dadc
6d54
68d4
1ed6
38e6
e0c3
ENDCHAR
STARTCHAR 372e
ENCODING 14126
SWIDTH 960 0
DWIDTH 16 0
BBX 16 16 0 -2
BITMAP
0330
7e30
0c30
ffb0
0cfe
7f36
6d36
7f36
6d36
7f66
3e66
0f5c
f800
366c
6336
c333
ENDCHAR
STARTCHAR 372f
ENCODING 14127
SWIDTH 960 0
DWIDTH 16 0
BBX 16 16 0 -2
BITMAP
0000
3ff8
0318
0318
ffff
0318
0318
3ff8
0600
0600
0ffc
1c0c
340c
6c0c
cffc
0c0c
ENDCHAR
STARTCHAR 3730
ENCODING 14128
SWIDTH 960 0
DWIDTH 16 0
BBX 16 16 0 -2
BITMAP
0c30
7ffe
0c38
3fe0
0180
ffff
1998
1ff8
1998
1ff8
0180
3ffc
0180
ffff
1acc
7366
ENDCHAR
STARTCHAR 3731
ENCODING 14129
SWIDTH 960 0
DWIDTH 16 0
BBX 16 16 0 -2
BITMAP
0006
7ec6
00d6
ff56
00d6
7ed6
00d6
00d6
7ed6
00d6
7ed6
66d6
66d6
6686
7e86
6706
ENDCHAR
STARTCHAR 3732
ENCODING 14130
SWIDTH 960 0
DWIDTH 16 0
BBX 16 16 0 -2
BITMAP
0066
7f36
1b34
1b7f
ff98
1b18
1b18
7f7e
1818
3018
3f18
73ff
7318
d318
3f18
3318
ENDCHAR
STARTCHAR 3733
ENCODING 14131
SWIDTH 960 0
DWIDTH 16 0
BBX 16 16 0 -2
BITMAP
0000
3ffe
318c
6180
dffc
0180
3ffc
318c
3ffc
318c
318c
3ffc
0180
ffff
0180
0180
ENDCHAR
STARTCHAR 3734
ENCODING 14132
SWIDTH 960 0
DWIDTH 16 0
BBX 16 16 0 -2
BITMAP
0000
7f7c
1b6c
1b6c
ffa8
1b70
1b68
7f6c
186c
3066
3f66
7366
7376
d36c
3f60
3360
ENDCHAR
STARTCHAR 3735
ENCODING 14133
SWIDTH 960 0
DWIDTH 16 0
BBX 16 16 0 -2
BITMAP
0c30
0c30
7fb0
0c30
0c30
0c38
ffd4
0c36
0c36
7fb0
0c30
0c30
0dd0
1e30
f030
0030
ENDCHAR
STARTCHAR 3736
ENCODING 14134
SWIDTH 960 0
DWIDTH 16 0
BBX 16 16 0 -2
BITMAP
0c00
0c7e
ffa6
0da6
19a6
19a6
377e
61a6
0180
ffff
068c
1cd8
f470
0c30
0f9c
7c07
ENDCHAR
STARTCHAR 3737
ENCODING 14135
SWIDTH 960 0
DWIDTH 16 0
BBX 16 16 0 -2
BITMAP
1800
187e
1866
ff66
036c
066c
0c68
1c6c
3a66
6b66
d9a3
1873
186b
186e
1860
1860
ENDCHAR
STARTCHAR 3738
ENCODING 14136
SWIDTH 960 0
DWIDTH 16 0
BBX 16 16 0 -2
BITMAP
0c0e
0c78
0fc0
18d8
1998
3730
31a0
70d8
d18c
37fe
3066
3368
336c
3666
3466
3060
ENDCHAR
STARTCHAR 3739
ENCODING 14137
SWIDTH 960 0
DWIDTH 16 0
BBX 16 16 0 -2
BITMAP
1800
1bff
1830
3460
34fe
3546
76c6
d4fe
34c6
34fe
3546
3546
377e
3034
3066
31c3
ENDCHAR
STARTCHAR 373a
ENCODING 14138
SWIDTH 960 0
DWIDTH 16 0
BBX 16 16 0 -2
BITMAP
0006
7fe6
1b66
1b66
1b66
1b66
ffe6
1b66
1b66
1b66
1b66
1b06
3306
3306
630e
c306
ENDCHAR
ENDFONT
